<svg width="545" height="526" viewBox="0 0 545 526" fill="none" xmlns="http://www.w3.org/2000/svg">
<path d="M0.5 470.92H526.802" stroke="#022C40" stroke-linecap="round" stroke-linejoin="round"/>
<path d="M497.76 0.5H53.4626V255.09H497.76V0.5Z" fill="#275F7A"/>
<path opacity="0.6" d="M497.76 0.5H53.4626V255.09H497.76V0.5Z" fill="white"/>
<path d="M497.76 0.5H53.4626V255.09H497.76V0.5Z" stroke="#022C40" stroke-linecap="round" stroke-linejoin="round"/>
<path d="M497.76 0.5H53.4626V26.2793H497.76V0.5Z" fill="#022C40" stroke="#022C40" stroke-linecap="round" stroke-linejoin="round"/>
<path d="M290.076 7.31201H80.8209V19.4533H290.076V7.31201Z" fill="white" stroke="#022C40" stroke-linecap="round" stroke-linejoin="round"/>
<path d="M119.459 7.31201H80.8209V19.4533H119.459V7.31201Z" fill="#275F7A"/>
<path opacity="0.5" d="M119.459 7.31201H80.8209V19.4533H119.459V7.31201Z" fill="white" stroke="#022C40" stroke-linecap="round" stroke-linejoin="round"/>
<path d="M119.459 7.31201H80.8209V19.4533H119.459V7.31201Z" stroke="#022C40" stroke-linecap="round" stroke-linejoin="round"/>
<path d="M299.434 155.33H151.573V167.471H299.434V155.33Z" fill="white" stroke="#022C40" stroke-linecap="round" stroke-linejoin="round"/>
<path d="M492.457 180.382H376.29V192.523H492.457V180.382Z" fill="white" stroke="#022C40" stroke-linecap="round" stroke-linejoin="round"/>
<path d="M492.457 204.762H376.29V216.904H492.457V204.762Z" fill="white" stroke="#022C40" stroke-linecap="round" stroke-linejoin="round"/>
<path d="M492.457 229.143H376.29V241.284H492.457V229.143Z" fill="white" stroke="#022C40" stroke-linecap="round" stroke-linejoin="round"/>
<path d="M190.212 155.33H151.573V167.471H190.212V155.33Z" fill="#275F7A" stroke="#022C40" stroke-linecap="round" stroke-linejoin="round"/>
<path opacity="0.7" d="M360.829 180.382H151.573V241.284H360.829V180.382Z" fill="white"/>
<path d="M492.022 35.3853H151.573V55.1499H492.022V35.3853Z" fill="white" stroke="#022C40" stroke-linecap="round" stroke-linejoin="round"/>
<path opacity="0.5" d="M492.022 64.2419H151.573V142.405H492.022V64.2419Z" fill="white"/>
<path d="M214.441 35.3853H151.573V55.1499H214.441V35.3853Z" fill="#275F7A" stroke="#022C40" stroke-linecap="round" stroke-linejoin="round"/>
<path d="M198.265 70.8301H156.133V84.0764H198.265V70.8301Z" fill="#275F7A" stroke="#022C40" stroke-linecap="round" stroke-linejoin="round"/>
<path d="M418.421 160.841H376.29V174.087H418.421V160.841Z" fill="#275F7A" stroke="#022C40" stroke-linecap="round" stroke-linejoin="round"/>
<path d="M107.267 125.984H65.1356V139.23H107.267V125.984Z" fill="#275F7A" stroke="#022C40" stroke-linecap="round" stroke-linejoin="round"/>
<path d="M421.424 90.4128H156.133V97.029H421.424V90.4128Z" fill="white" stroke="#022C40" stroke-linecap="round" stroke-linejoin="round"/>
<path d="M95.5663 145.37H65.6266V151.987H95.5663V145.37Z" fill="white" stroke="#022C40" stroke-linecap="round" stroke-linejoin="round"/>
<path d="M107.267 164.198H65.1356V177.444H107.267V164.198Z" fill="#275F7A" stroke="#022C40" stroke-linecap="round" stroke-linejoin="round"/>
<path d="M103.17 183.585H65.6266V190.201H103.17V183.585Z" fill="white" stroke="#022C40" stroke-linecap="round" stroke-linejoin="round"/>
<path d="M98.6108 196.356H65.6266V202.972H98.6108V196.356Z" fill="white" stroke="#022C40" stroke-linecap="round" stroke-linejoin="round"/>
<path d="M90.9926 209.126H65.6266V215.743H90.9926V209.126Z" fill="white" stroke="#022C40" stroke-linecap="round" stroke-linejoin="round"/>
<path d="M103.17 221.897H65.6266V228.513H103.17V221.897Z" fill="white" stroke="#022C40" stroke-linecap="round" stroke-linejoin="round"/>
<path d="M95.5663 234.654H65.6266V241.27H95.5663V234.654Z" fill="white" stroke="#022C40" stroke-linecap="round" stroke-linejoin="round"/>
<path d="M442.735 103.365H156.133V109.982H442.735V103.365Z" fill="white" stroke="#022C40" stroke-linecap="round" stroke-linejoin="round"/>
<path d="M410.27 116.332H156.133V122.948H410.27V116.332Z" fill="white" stroke="#022C40" stroke-linecap="round" stroke-linejoin="round"/>
<path d="M435.636 129.285H156.133V135.901H435.636V129.285Z" fill="white" stroke="#022C40" stroke-linecap="round" stroke-linejoin="round"/>
<path d="M492.022 7.31201H479.844V19.4533H492.022V7.31201Z" fill="#275F7A" stroke="#022C40" stroke-linecap="round" stroke-linejoin="round"/>
<path d="M461.984 7.31201H449.806V19.4533H461.984V7.31201Z" fill="#275F7A"/>
<path opacity="0.6" d="M461.984 7.31201H449.806V19.4533H461.984V7.31201Z" fill="white"/>
<path d="M461.984 7.31201H449.806V19.4533H461.984V7.31201Z" stroke="#022C40" stroke-linecap="round" stroke-linejoin="round"/>
<path d="M476.996 7.31201H464.818V19.4533H476.996V7.31201Z" fill="#275F7A"/>
<path opacity="0.4" d="M476.996 7.31201H464.818V19.4533H476.996V7.31201Z" fill="white"/>
<path d="M476.996 7.31201H464.818V19.4533H476.996V7.31201Z" stroke="#022C40" stroke-linecap="round" stroke-linejoin="round"/>
<path d="M143.871 35.3853H65.1356V113.884H143.871V35.3853Z" fill="white"/>
<path d="M102.006 46.9112C102.006 46.9112 88.3269 46.4076 90.1087 50.478C91.8905 54.5484 81.4242 55.4576 83.9496 59.9057C86.475 64.3538 79.1935 70.3825 82.8693 72.7324C86.5451 75.0824 84.8475 79.5165 83.0938 81.8524C81.3401 84.1884 85.8998 87.2237 89.5054 87.1817C93.1111 87.1398 88.1024 91.378 89.5054 92.3991C90.9084 93.4202 92.9427 89.8114 95.6224 90.5667C98.3021 91.3221 104.377 89.0001 106.033 89.6435C107.688 90.287 129.42 91.5599 129.617 90.0912C129.813 88.6224 127.61 88.3707 128.073 86.9299C128.536 85.4892 132.1 86.9299 132.83 83.8387C133.559 80.7474 130.767 79.3066 131.188 76.2993C131.609 73.2919 133.868 74.6348 134.373 70.5224C134.878 66.41 128.901 65.1371 128.761 63.039C128.621 60.9408 134.471 61.6402 132.759 57.6957C131.048 53.7511 124.805 54.3946 123.43 52.1006C122.055 49.8066 127.176 50.0584 123.865 46.9391C120.553 43.8199 107.323 41.8476 102.006 46.9112Z" fill="#022C40" stroke="#022C40" stroke-linecap="round" stroke-linejoin="round"/>
<path d="M87.3869 79.6843C85.8016 83.0414 88.7899 83.6289 91.4836 84.5381C94.1774 85.4473 92.6201 89.4058 92.6201 89.4058" stroke="#7F7F7F" stroke-width="0.75" stroke-linecap="round" stroke-linejoin="round"/>
<path d="M85.9419 72.3967C87.3189 74.0269 87.9945 76.1333 87.8219 78.2576" stroke="#7F7F7F" stroke-width="0.75" stroke-linecap="round" stroke-linejoin="round"/>
<path d="M86.7415 61.85C86.503 65.0392 83.3603 69.6411 84.7774 71.0679" stroke="#7F7F7F" stroke-width="0.75" stroke-linecap="round" stroke-linejoin="round"/>
<path d="M91.8063 54.3525C91.8063 54.3525 84.7213 57.1501 86.4048 59.9476" stroke="#7F7F7F" stroke-width="0.75" stroke-linecap="round" stroke-linejoin="round"/>
<path d="M92.0448 51.1074C92.4098 51.8068 93.4486 51.8628 93.4486 52.8559" stroke="#7F7F7F" stroke-width="0.75" stroke-linecap="round" stroke-linejoin="round"/>
<path d="M100.94 48.4638C100.94 48.4638 92.3535 48.3799 91.9747 50.1283" stroke="#7F7F7F" stroke-width="0.75" stroke-linecap="round" stroke-linejoin="round"/>
<path d="M131.132 69.5571C130.459 71.4595 126.586 75.1522 128.101 78.4533C129.617 81.7544 130.725 82.9993 127.947 83.7966" stroke="#7F7F7F" stroke-width="0.75" stroke-linecap="round" stroke-linejoin="round"/>
<path d="M128.579 58.521C128.003 60.5772 124.594 60.2974 125.029 63.8083C125.324 66.2982 128.579 67.1794 130.234 68.1585" stroke="#7F7F7F" stroke-width="0.75" stroke-linecap="round" stroke-linejoin="round"/>
<path d="M120.834 51.1355C120.834 53.7512 118.337 54.1149 121.802 56.0732C123.324 56.926 125.037 57.383 126.783 57.402" stroke="#7F7F7F" stroke-width="0.75" stroke-linecap="round" stroke-linejoin="round"/>
<path d="M103.577 48.7575C103.577 48.7575 118.617 44.5612 120.413 49.1072" stroke="#7F7F7F" stroke-width="0.75" stroke-linecap="round" stroke-linejoin="round"/>
<path d="M124.468 83.8806C123.794 85.7829 125.872 88.4266 125.872 88.4266" stroke="#7F7F7F" stroke-width="0.75" stroke-linecap="round" stroke-linejoin="round"/>
<path d="M122.447 60.2834C122.742 62.5495 120.511 63.4167 121.045 65.8785C121.578 68.3404 125.899 67.8088 126.109 69.6552C126.32 71.5016 122.672 73.5438 123.514 77.2225C123.949 79.0549 124.356 80.2579 124.58 81.251" stroke="#7F7F7F" stroke-width="0.75" stroke-linecap="round" stroke-linejoin="round"/>
<path d="M116.864 56.2549C117.383 58.437 119.319 58.6048 120.764 58.9685" stroke="#7F7F7F" stroke-width="0.75" stroke-linecap="round" stroke-linejoin="round"/>
<path d="M117.762 52.1704C117.607 52.921 117.348 53.6462 116.99 54.3245" stroke="#7F7F7F" stroke-width="0.75" stroke-linecap="round" stroke-linejoin="round"/>
<path d="M101.571 50.5479C101.571 50.5479 116.302 46.7153 117.523 50.3381" stroke="#7F7F7F" stroke-width="0.75" stroke-linecap="round" stroke-linejoin="round"/>
<path d="M118.8 76.3691C119.123 77.7679 120.611 78.803 120.568 80.7193C120.498 83.293 119.403 85.0275 120.568 87.3635" stroke="#7F7F7F" stroke-width="0.75" stroke-linecap="round" stroke-linejoin="round"/>
<path d="M113.09 56.8984C113.264 57.931 113.649 58.9169 114.221 59.7951C114.793 60.6733 115.54 61.4251 116.415 62.0039C118.603 63.5286 117.916 66.536 119.221 68.5502C120.525 70.5644 119.978 72.7465 118.94 74.9146" stroke="#7F7F7F" stroke-width="0.75" stroke-linecap="round" stroke-linejoin="round"/>
<path d="M98.9334 52.2545C98.9334 52.2545 112.15 51.2894 112.725 55.0521" stroke="#7F7F7F" stroke-width="0.75" stroke-linecap="round" stroke-linejoin="round"/>
<path d="M95.2436 51.4983C95.2436 51.4983 95.8609 49.6113 99.0878 50.8833" stroke="#7F7F7F" stroke-width="0.75" stroke-linecap="round" stroke-linejoin="round"/>
<path d="M86.7275 96.3296C92.0588 94.819 99.8173 92.2452 109.175 92.2452C115.194 92.2452 120.525 94.0217 125.225 95.1407C130.234 96.3436 136.94 96.6514 133.938 113.772H80.6245C80.6245 113.772 78.8567 98.5397 86.7275 96.3296Z" fill="#275F7A" stroke="#022C40" stroke-linecap="round" stroke-linejoin="round"/>
<path d="M114.17 88.5385L111.364 77.2224L103.647 79.5444L101.333 88.7203C101.113 89.6026 100.701 90.4259 100.126 91.1317C99.5517 91.8376 98.8283 92.4088 98.0075 92.8047C96.8464 93.3365 95.7419 93.9831 94.7105 94.735C94.7105 94.735 103.872 107.198 121.451 94.735C120.285 93.8911 119.023 93.1868 117.691 92.6369C116.826 92.2725 116.057 91.7126 115.446 91.0014C114.835 90.2901 114.398 89.4469 114.17 88.5385Z" fill="white" stroke="#022C40" stroke-linecap="round" stroke-linejoin="round"/>
<path d="M90.1648 60.4512L89.1547 67.1513C89.055 67.8592 89.1125 68.5802 89.323 69.2635L89.9123 71.1098L89.5615 75.474C89.5475 75.7022 89.5475 75.9311 89.5615 76.1594C89.7159 78.3974 90.7962 90.287 97.278 90.7905C103.03 91.2241 108.754 84.1324 110.789 81.3208C111.291 80.6209 111.657 79.8333 111.869 78.9989L112.739 75.5859C113.557 75.5811 114.353 75.3189 115.013 74.8366C115.673 74.3544 116.164 73.6767 116.415 72.9003C117.285 70.1027 118.73 68.3683 115.938 67.0114C113.146 65.6546 112.15 69.5013 112.15 69.5013C111.869 67.5133 111.37 65.562 110.662 63.6824C109.989 62.5494 107.52 61.1646 106.79 60.0596C106.383 59.1856 106.055 58.2775 105.808 57.3459C105.808 57.3459 97.3902 58.9685 90.8663 57.6677L90.1648 60.4512Z" fill="white" stroke="#022C40" stroke-linecap="round" stroke-linejoin="round"/>
<path d="M94.0511 72.1729L91.7502 77.7679C91.6768 77.9497 91.6474 78.1461 91.6645 78.3413C91.6816 78.5365 91.7447 78.7249 91.8486 78.8912C91.9525 79.0574 92.0943 79.1969 92.2625 79.2983C92.4307 79.3996 92.6205 79.46 92.8164 79.4744L95.6224 79.6563" stroke="#022C40" stroke-linecap="round" stroke-linejoin="round"/>
<path d="M102.665 80.6355C100.828 83.7408 98.5968 83.0833 97.2359 82.2161" stroke="#022C40" stroke-linecap="round" stroke-linejoin="round"/>
<path d="M97.5304 71.5014C97.5304 72.4526 97.8954 73.2219 98.3306 73.2219C98.7657 73.2219 99.1448 72.4526 99.1448 71.5014C99.1448 70.5503 98.7798 69.767 98.3306 69.767C97.8814 69.767 97.5304 70.5503 97.5304 71.5014Z" fill="#022C40"/>
<path d="M90.7961 71.5014C90.7961 72.4526 91.1611 73.2219 91.5963 73.2219C92.0315 73.2219 92.4105 72.4526 92.4105 71.5014C92.4105 70.5503 92.0455 69.767 91.5963 69.767C91.1471 69.767 90.7961 70.5503 90.7961 71.5014Z" fill="#022C40"/>
<path d="M97.2359 67.6967C98.1816 67.398 99.2027 67.4419 100.119 67.8206C101.035 68.1994 101.788 68.8887 102.245 69.7669" stroke="#022C40" stroke-linecap="round" stroke-linejoin="round"/>
<path d="M93.069 67.445C93.069 67.445 90.5717 66.0462 89.323 69.2494" stroke="#022C40" stroke-linecap="round" stroke-linejoin="round"/>
<path d="M90.3753 56.0031C90.3753 56.0031 92.4657 63.7663 96.2117 64.6615C99.9577 65.5567 102.637 66.1442 103.395 69.4313C104.153 72.7184 108.488 73.3059 110.284 75.6978C112.079 78.0897 108.881 87.8391 112.823 89.2379C112.292 87.0311 112.292 84.7305 112.823 82.5238C113.721 78.9849 116.036 75.5299 114.352 69.2774C112.669 63.0249 105.191 56.0031 105.191 56.0031L97.6568 55.1079L90.3753 56.0031Z" fill="#022C40" stroke="#022C40" stroke-linecap="round" stroke-linejoin="round"/>
<path d="M93.7564 57.3459C94.5842 58.6071 95.6716 59.6784 96.9463 60.4887C98.221 61.299 99.654 61.8298 101.15 62.0458C106.313 62.8431 106.313 68.606 108.712 70.2006C111.111 71.7952 113.931 72.1729 112.5 79.5864" stroke="#7F7F7F" stroke-width="0.75" stroke-linecap="round" stroke-linejoin="round"/>
<path d="M456.021 485.146C456.364 485.148 456.695 485.026 456.954 484.802C457.212 484.578 457.38 484.267 457.424 483.929C457.494 483.495 463.948 439.574 469.504 380.35C472.38 349.703 479.675 328.246 485.287 315.657C491.362 302.005 496.834 295.514 496.89 295.444C497.134 295.159 497.254 294.788 497.223 294.415C497.193 294.041 497.015 293.694 496.729 293.451C496.442 293.208 496.071 293.089 495.696 293.119C495.321 293.149 494.973 293.326 494.729 293.612C493.803 294.689 472.282 320.454 466.67 380.084C461.058 439.224 454.674 483.089 454.604 483.523C454.574 483.708 454.582 483.897 454.627 484.079C454.672 484.261 454.753 484.432 454.866 484.582C454.978 484.732 455.12 484.858 455.282 484.952C455.445 485.047 455.624 485.108 455.811 485.132L456.021 485.146Z" fill="#275F7A" stroke="#022C40" stroke-linecap="round" stroke-linejoin="round"/>
<path d="M473.208 451.855H472.955C472.725 451.822 472.503 451.745 472.303 451.626C472.102 451.508 471.927 451.352 471.788 451.166C471.648 450.98 471.547 450.768 471.49 450.543C471.432 450.318 471.42 450.084 471.454 449.855C471.454 449.533 476.112 418.172 480.082 375.902C484.095 333.001 499.724 314.356 500.313 313.614C500.629 313.296 501.054 313.109 501.503 313.089C501.952 313.07 502.391 313.22 502.734 313.51C503.076 313.8 503.296 314.209 503.349 314.653C503.402 315.098 503.285 315.546 503.021 315.908C502.867 316.09 487.518 334.568 483.604 376.223C479.633 418.606 475.018 450.05 474.961 450.358C474.898 450.776 474.685 451.157 474.363 451.431C474.042 451.706 473.631 451.856 473.208 451.855Z" fill="#275F7A" stroke="#022C40" stroke-linecap="round" stroke-linejoin="round"/>
<path d="M525.23 282.855C525.824 282.781 526.425 282.934 526.91 283.285C527.394 283.636 527.727 284.157 527.84 284.744C530.197 296.619 540.326 353.773 516.616 346.29C496.89 340.023 498.181 325.644 500.131 318.692C500.225 318.369 500.224 318.026 500.13 317.703C500.036 317.38 499.852 317.09 499.599 316.868C499.346 316.645 499.035 316.498 498.702 316.445C498.369 316.392 498.028 316.433 497.718 316.566C490.029 319.727 473.292 324.721 471.44 309.054C469.279 290.968 514.652 284.254 525.23 282.855Z" fill="#275F7A"/>
<path opacity="0.2" d="M503.723 309.838C498.826 310.565 482.944 313.167 483.955 308.439C484.965 303.711 505.252 307.04 506.276 305.166C507.3 303.292 496.385 298.256 498.153 295.375C499.92 292.493 508.296 302.914 510.078 301.781C511.86 300.648 517.682 286.8 520.979 289.933C524.276 293.067 513.123 301.963 513.375 305.096C513.628 308.229 524.276 307.474 525.539 310.887C526.802 314.3 513.123 307.712 512.365 309.74C511.607 311.768 526.058 328.707 521.484 331.239C516.911 333.771 507.932 309.222 503.723 309.838Z" fill="black"/>
<path d="M535.037 212.33C535.869 212.222 536.71 212.433 537.39 212.922C538.07 213.41 538.538 214.139 538.699 214.959C541.968 231.563 556.138 311.474 522.929 300.928C495.361 292.185 497.171 272.071 499.906 262.364C500.032 261.912 500.027 261.434 499.893 260.984C499.759 260.535 499.501 260.132 499.149 259.822C498.796 259.511 498.364 259.306 497.9 259.228C497.436 259.151 496.96 259.205 496.525 259.384C485.764 263.818 462.377 270.784 459.795 248.893C456.821 223.674 520.25 214.19 535.037 212.33Z" fill="#275F7A"/>
<path opacity="0.7" d="M496.104 255.44C489.398 256.083 468.578 253.971 471.44 244.613C474.302 235.255 497.662 248.152 501.45 245.62C505.238 243.089 495.571 229.409 501.66 226.779C507.749 224.149 509.04 239.368 511.313 239.242C513.586 239.116 524.501 219.659 529.075 222.107C533.648 224.555 517.851 240.067 516.897 244.613C515.943 249.159 534.897 245.117 536.174 249.425C537.45 253.733 516.139 250.11 515.129 253.174C514.119 256.237 534.658 273.442 529.341 280.771C524.024 288.101 511.972 253.929 496.104 255.44Z" fill="white"/>
<path d="M469.756 448.274C469.374 448.272 469.007 448.127 468.726 447.868C468.446 447.609 468.273 447.255 468.241 446.875C466.291 430.09 464.509 413.011 462.952 396.268C457.494 338.163 436.085 312.537 435.874 312.342C435.721 312.194 435.601 312.016 435.521 311.819C435.441 311.622 435.403 311.411 435.41 311.199C435.417 310.987 435.468 310.779 435.56 310.587C435.652 310.396 435.783 310.226 435.945 310.088C436.107 309.95 436.296 309.847 436.5 309.786C436.704 309.725 436.918 309.708 437.13 309.734C437.341 309.761 437.544 309.831 437.727 309.94C437.909 310.05 438.067 310.196 438.189 310.369C439.087 311.432 460.441 336.946 465.982 396.044C467.54 412.759 469.321 429.754 471.272 446.582C471.293 446.784 471.273 446.989 471.214 447.184C471.154 447.379 471.056 447.56 470.925 447.716C470.795 447.872 470.634 448.001 470.452 448.095C470.271 448.188 470.072 448.244 469.869 448.26L469.756 448.274Z" fill="#275F7A" stroke="#022C40" stroke-linecap="round" stroke-linejoin="round"/>
<path d="M395.426 292.647C394.775 292.882 394.234 293.35 393.907 293.959C393.581 294.569 393.492 295.277 393.658 295.948C397.292 309.572 416.008 374.489 436.983 354.501C454.394 337.911 445.667 323.532 440.069 317.265C439.809 316.975 439.635 316.618 439.567 316.235C439.5 315.851 439.542 315.457 439.688 315.095C439.834 314.734 440.078 314.421 440.394 314.192C440.709 313.962 441.083 313.825 441.472 313.796C451.139 313.195 471.187 309.88 465.084 292.563C458.097 272.673 407.169 288.702 395.426 292.647Z" fill="#275F7A"/>
<path opacity="0.5" d="M432.451 320.622C432.9 326.973 434.724 346.276 429.912 344.262C425.099 342.247 427.877 321.755 424.833 318.972C421.788 316.188 415.461 333.645 412.921 328.833C410.382 324.021 419.01 316.398 418.758 313.013C418.505 309.628 403.325 301.277 404.546 298.242C405.766 295.207 419.768 305.572 421.283 303.054C422.798 300.536 424.58 288.884 428.396 290.157C432.212 291.43 428.396 302.033 429.912 303.557C431.427 305.082 447.154 288.884 449.694 296.983C452.149 304.802 430.866 298.368 432.451 320.622Z" fill="white"/>
<path d="M483.323 488.838H461.268C457.137 488.837 453.165 487.254 450.17 484.417C447.176 481.58 445.388 477.705 445.176 473.592L442.917 430.23H501.66L499.415 473.592C499.203 477.705 497.416 481.58 494.421 484.417C491.427 487.254 487.454 488.837 483.323 488.838Z" fill="#022C40" stroke="#022C40" stroke-linecap="round" stroke-linejoin="round"/>
<path d="M456.021 485.146C456.364 485.148 456.695 485.026 456.954 484.802C457.212 484.578 457.38 484.267 457.424 483.929C457.494 483.495 463.948 439.574 469.504 380.35C472.38 349.703 479.675 328.246 485.287 315.657C491.362 302.005 496.834 295.514 496.89 295.444C497.134 295.159 497.254 294.788 497.223 294.415C497.193 294.041 497.015 293.694 496.729 293.451C496.442 293.208 496.071 293.089 495.696 293.119C495.321 293.149 494.973 293.326 494.729 293.612C493.803 294.689 472.282 320.454 466.67 380.084C461.058 439.224 454.674 483.089 454.604 483.523C454.574 483.708 454.582 483.897 454.627 484.079C454.672 484.261 454.753 484.432 454.866 484.582C454.978 484.732 455.12 484.858 455.282 484.952C455.445 485.047 455.624 485.108 455.811 485.132L456.021 485.146Z" fill="#275F7A" stroke="#022C40" stroke-linecap="round" stroke-linejoin="round"/>
<path d="M473.208 451.855H472.955C472.725 451.822 472.503 451.745 472.303 451.626C472.102 451.508 471.927 451.352 471.788 451.166C471.648 450.98 471.547 450.768 471.49 450.543C471.432 450.318 471.42 450.084 471.454 449.855C471.454 449.533 476.112 418.172 480.082 375.902C484.095 333.001 499.724 314.356 500.313 313.614C500.629 313.296 501.054 313.109 501.503 313.089C501.952 313.07 502.391 313.22 502.734 313.51C503.076 313.8 503.296 314.209 503.349 314.653C503.402 315.098 503.285 315.546 503.021 315.908C502.867 316.09 487.518 334.568 483.604 376.223C479.633 418.606 475.018 450.05 474.961 450.358C474.898 450.776 474.685 451.157 474.363 451.431C474.042 451.706 473.631 451.856 473.208 451.855Z" fill="#275F7A" stroke="#022C40" stroke-linecap="round" stroke-linejoin="round"/>
<path d="M525.23 282.855C525.824 282.781 526.425 282.934 526.91 283.285C527.394 283.636 527.727 284.157 527.84 284.744C530.197 296.619 540.326 353.773 516.616 346.29C496.89 340.023 498.181 325.644 500.131 318.692C500.225 318.369 500.224 318.026 500.13 317.703C500.036 317.38 499.852 317.09 499.599 316.868C499.346 316.645 499.035 316.498 498.702 316.445C498.369 316.392 498.028 316.433 497.718 316.566C490.029 319.727 473.292 324.721 471.44 309.054C469.279 290.968 514.652 284.254 525.23 282.855Z" fill="#275F7A"/>
<path opacity="0.2" d="M503.723 309.838C498.826 310.565 482.944 313.167 483.955 308.439C484.965 303.711 505.252 307.04 506.276 305.166C507.3 303.292 496.385 298.256 498.153 295.375C499.92 292.493 508.296 302.914 510.078 301.781C511.86 300.648 517.682 286.8 520.979 289.933C524.276 293.067 513.123 301.963 513.375 305.096C513.628 308.229 524.276 307.474 525.539 310.887C526.802 314.3 513.123 307.712 512.365 309.74C511.607 311.768 526.058 328.707 521.484 331.239C516.911 333.771 507.932 309.222 503.723 309.838Z" fill="black"/>
<path d="M535.037 212.33C535.869 212.222 536.71 212.433 537.39 212.922C538.07 213.41 538.538 214.139 538.699 214.959C541.968 231.563 556.138 311.474 522.929 300.928C495.361 292.185 497.171 272.071 499.906 262.364C500.032 261.912 500.027 261.434 499.893 260.984C499.759 260.535 499.501 260.132 499.149 259.822C498.796 259.511 498.364 259.306 497.9 259.228C497.436 259.151 496.96 259.205 496.525 259.384C485.764 263.818 462.377 270.784 459.795 248.893C456.821 223.674 520.25 214.19 535.037 212.33Z" fill="#275F7A"/>
<path opacity="0.7" d="M496.104 255.44C489.398 256.083 468.578 253.971 471.44 244.613C474.302 235.255 497.662 248.152 501.45 245.62C505.238 243.089 495.571 229.409 501.66 226.779C507.749 224.149 509.04 239.368 511.313 239.242C513.586 239.116 524.501 219.659 529.075 222.107C533.648 224.555 517.851 240.067 516.897 244.613C515.943 249.159 534.897 245.117 536.174 249.425C537.45 253.733 516.139 250.11 515.129 253.174C514.119 256.237 534.658 273.442 529.341 280.771C524.024 288.101 511.972 253.929 496.104 255.44Z" fill="white"/>
<path d="M469.756 448.274C469.374 448.272 469.007 448.127 468.726 447.868C468.446 447.609 468.273 447.255 468.241 446.875C466.291 430.09 464.509 413.011 462.952 396.268C457.494 338.163 436.085 312.537 435.874 312.342C435.721 312.194 435.601 312.016 435.521 311.819C435.441 311.622 435.403 311.411 435.41 311.199C435.417 310.987 435.468 310.779 435.56 310.587C435.652 310.396 435.783 310.226 435.945 310.088C436.107 309.95 436.296 309.847 436.5 309.786C436.704 309.725 436.918 309.708 437.13 309.734C437.341 309.761 437.544 309.831 437.727 309.94C437.909 310.05 438.067 310.196 438.189 310.369C439.087 311.432 460.441 336.946 465.982 396.044C467.54 412.759 469.321 429.754 471.272 446.582C471.293 446.784 471.273 446.989 471.214 447.184C471.154 447.379 471.056 447.56 470.925 447.716C470.795 447.872 470.634 448.001 470.452 448.095C470.271 448.188 470.072 448.244 469.869 448.26L469.756 448.274Z" fill="#275F7A" stroke="#022C40" stroke-linecap="round" stroke-linejoin="round"/>
<path d="M395.426 292.647C394.775 292.882 394.234 293.35 393.907 293.959C393.581 294.569 393.492 295.277 393.658 295.948C397.292 309.572 416.008 374.489 436.983 354.501C454.394 337.911 445.667 323.532 440.069 317.265C439.809 316.975 439.635 316.618 439.567 316.235C439.5 315.851 439.542 315.457 439.688 315.095C439.834 314.734 440.078 314.421 440.394 314.192C440.709 313.962 441.083 313.825 441.472 313.796C451.139 313.195 471.187 309.88 465.084 292.563C458.097 272.673 407.169 288.702 395.426 292.647Z" fill="#275F7A"/>
<path opacity="0.5" d="M432.451 320.622C432.9 326.973 434.724 346.276 429.912 344.262C425.099 342.247 427.877 321.755 424.833 318.972C421.788 316.188 415.461 333.645 412.921 328.833C410.382 324.021 419.01 316.398 418.758 313.013C418.505 309.628 403.325 301.277 404.546 298.242C405.766 295.207 419.768 305.572 421.283 303.054C422.798 300.536 424.58 288.884 428.396 290.157C432.212 291.43 428.396 302.033 429.912 303.557C431.427 305.082 447.154 288.884 449.694 296.983C452.149 304.802 430.866 298.368 432.451 320.622Z" fill="white"/>
<path d="M483.323 488.838H461.268C457.137 488.837 453.165 487.254 450.17 484.417C447.176 481.58 445.388 477.705 445.176 473.592L442.917 430.23H501.66L499.415 473.592C499.203 477.705 497.416 481.58 494.421 484.417C491.427 487.254 487.454 488.837 483.323 488.838Z" fill="#022C40" stroke="#022C40" stroke-linecap="round" stroke-linejoin="round"/>
<path d="M204.761 523.108H221.4L221.4 396.897H204.761V523.108Z" fill="white"/>
<path opacity="0.2" d="M198.194 514.072H211.312L211.312 395.736H198.194V514.072Z" fill="black"/>
<path d="M204.761 523.108H221.4L221.4 396.897H204.761V523.108Z" stroke="#022C40" stroke-linecap="round" stroke-linejoin="round"/>
<path d="M166.571 508.351H259.603C262.852 508.351 265.967 509.638 268.264 511.928C270.561 514.218 271.851 517.324 271.851 520.562V523.108H154.379V520.562C154.379 517.333 155.662 514.236 157.947 511.947C160.232 509.659 163.333 508.366 166.571 508.351Z" fill="white"/>
<path opacity="0.2" d="M170.149 511.96H256.012C258.997 511.956 261.863 513.131 263.982 515.228C266.101 517.325 267.301 520.174 267.32 523.15V525.5H158.841V523.15C158.859 520.174 160.059 517.325 162.178 515.228C164.298 513.131 167.163 511.956 170.149 511.96Z" fill="black"/>
<path d="M166.571 508.351H259.603C262.852 508.351 265.967 509.638 268.264 511.928C270.561 514.218 271.851 517.324 271.851 520.562V523.108H154.379V520.562C154.379 517.333 155.662 514.236 157.947 511.947C160.232 509.659 163.333 508.366 166.571 508.351V508.351Z" stroke="#022C40" stroke-linecap="round" stroke-linejoin="round"/>
<path d="M209.32 523.108H216.84V512.1C216.84 511.106 216.444 510.152 215.739 509.449C215.034 508.746 214.077 508.351 213.08 508.351C212.083 508.351 211.127 508.746 210.422 509.449C209.716 510.152 209.32 511.106 209.32 512.1V523.108Z" fill="white" stroke="#022C40" stroke-linecap="round" stroke-linejoin="round"/>
<path d="M203.161 398.31H213.08H222.999V378.531H203.161V398.31Z" fill="white" stroke="#022C40" stroke-linecap="round" stroke-linejoin="round"/>
<path d="M154.997 378.21H171.636V333.799H154.997V378.21Z" fill="white"/>
<path opacity="0.2" d="M147.855 382.825H160.973V337.435H147.855V382.825Z" fill="black"/>
<path d="M154.997 378.21H171.636V333.799H154.997V378.21Z" stroke="#022C40" stroke-linecap="round" stroke-linejoin="round"/>
<path d="M148.192 385.875C191.278 391.26 234.869 391.26 277.954 385.875C278.804 385.766 279.623 385.491 280.366 385.066C281.109 384.64 281.759 384.072 282.281 383.395C282.802 382.718 283.185 381.944 283.405 381.119C283.626 380.294 283.68 379.434 283.566 378.587L282.514 371.901C282.234 370.228 281.308 368.731 279.933 367.732C278.558 366.733 276.845 366.311 275.162 366.558C233.904 371.649 192.173 371.649 150.914 366.558C149.231 366.311 147.518 366.733 146.143 367.732C144.769 368.731 143.842 370.228 143.562 371.901L142.51 378.587C142.396 379.439 142.454 380.304 142.679 381.134C142.904 381.963 143.292 382.739 143.82 383.417C144.349 384.096 145.008 384.662 145.759 385.084C146.509 385.506 147.336 385.775 148.192 385.875Z" fill="#022C40"/>
<path opacity="0.2" d="M150.956 366.558C192.215 371.649 233.946 371.649 275.204 366.558C276.888 366.311 278.601 366.733 279.975 367.732C281.35 368.731 282.277 370.228 282.556 371.901C282.893 374.027 283.089 375.314 283.37 377.091C240.509 379.451 197.521 377.967 154.927 372.656C153.313 372.444 151.786 371.805 150.504 370.807C149.221 369.808 148.229 368.486 147.631 366.977C148.683 366.548 149.83 366.403 150.956 366.558Z" fill="black"/>
<path d="M148.192 385.875C191.278 391.26 234.869 391.26 277.954 385.875C278.804 385.766 279.623 385.491 280.366 385.066C281.109 384.64 281.759 384.072 282.281 383.395C282.802 382.718 283.185 381.944 283.405 381.119C283.626 380.294 283.68 379.434 283.566 378.587L282.514 371.901C282.234 370.228 281.308 368.731 279.933 367.732C278.558 366.733 276.845 366.311 275.162 366.558C233.904 371.649 192.173 371.649 150.914 366.558C149.231 366.311 147.518 366.733 146.143 367.732C144.769 368.731 143.842 370.228 143.562 371.901L142.51 378.587C142.396 379.439 142.454 380.304 142.679 381.134C142.904 381.963 143.292 382.739 143.82 383.417C144.349 384.096 145.008 384.662 145.759 385.084C146.509 385.506 147.336 385.775 148.192 385.875V385.875Z" stroke="#022C40" stroke-linecap="round" stroke-linejoin="round"/>
<path d="M148.585 345.702L186.872 340.205C196.595 338.806 203.021 330.246 201.506 321.336C197.687 298.931 196.501 276.16 197.97 253.481C198.167 249.25 196.753 245.101 194.011 241.866C191.268 238.631 187.4 236.549 183.183 236.039L151.349 231.493C142.201 230.192 133.264 237.088 131.707 247.145C127.491 274.068 126.497 301.396 128.747 328.553C129.631 339.268 138.946 347.073 148.585 345.702Z" fill="#022C40"/>
<path opacity="0.2" d="M148.347 255.859C149.904 245.774 158.827 238.892 167.988 240.207L195.711 244.166C197.4 246.943 198.193 250.17 197.984 253.412C196.507 276.122 197.694 298.927 201.52 321.364C203.035 330.274 196.609 338.834 186.887 340.233L148.599 345.702H148.122C146.578 343.127 145.651 340.231 145.414 337.24C143.149 310.093 144.134 282.774 148.347 255.859Z" fill="black"/>
<path d="M148.585 345.702L186.872 340.205C196.595 338.806 203.021 330.246 201.506 321.336C197.687 298.931 196.501 276.16 197.97 253.481C198.167 249.25 196.753 245.101 194.011 241.866C191.268 238.631 187.4 236.549 183.183 236.039L151.349 231.493C142.201 230.192 133.264 237.088 131.707 247.145C127.491 274.068 126.497 301.396 128.747 328.553C129.631 339.268 138.946 347.073 148.585 345.702Z" stroke="#022C40" stroke-linecap="round" stroke-linejoin="round"/>
<path d="M321.447 451.841V471.004L345.971 495.664C345.971 495.664 357.938 501.483 358.949 506.715C359.959 511.946 354.263 515.904 340.064 511.946C325.866 507.987 323.916 503.204 318.571 500.882C313.225 498.56 298.466 496.909 299.111 490.013C299.757 483.117 306.575 472.682 306.575 472.682L305.719 457.464L321.447 451.841Z" fill="white" stroke="#022C40" stroke-linecap="round" stroke-linejoin="round"/>
<path d="M305.102 475.032C307.515 477.116 308.483 481.397 308.483 481.397C308.483 481.397 320.914 487.831 321.11 482.516C321.264 478.921 324.828 477.396 327.101 476.781L345.887 495.664C345.887 495.664 357.854 501.483 358.864 506.714C359.875 511.946 354.178 515.904 339.98 511.946C325.782 507.987 323.832 503.203 318.487 500.881C313.141 498.559 298.382 496.909 299.027 490.013C299.532 485.131 303.096 478.501 305.102 475.032Z" fill="#275F7A"/>
<path opacity="0.3" d="M305.102 475.032C307.515 477.116 308.483 481.397 308.483 481.397C308.483 481.397 320.914 487.831 321.11 482.516C321.264 478.921 324.828 477.396 327.101 476.781L345.887 495.664C345.887 495.664 357.854 501.483 358.864 506.714C359.875 511.946 354.178 515.904 339.98 511.946C325.782 507.987 323.832 503.203 318.487 500.881C313.141 498.559 298.382 496.909 299.027 490.013C299.532 485.131 303.096 478.501 305.102 475.032Z" fill="black"/>
<path d="M305.102 475.032C307.515 477.116 308.483 481.397 308.483 481.397C308.483 481.397 320.914 487.831 321.11 482.516C321.264 478.921 324.828 477.396 327.101 476.781L345.887 495.664C345.887 495.664 357.854 501.483 358.864 506.714C359.875 511.946 354.178 515.904 339.98 511.946C325.782 507.987 323.832 503.203 318.487 500.881C313.141 498.559 298.382 496.909 299.027 490.013C299.532 485.131 303.096 478.501 305.102 475.032Z" stroke="#022C40" stroke-linecap="round" stroke-linejoin="round"/>
<path d="M299.069 490.013C299.069 489.608 299.167 489.188 299.252 488.754C300.533 490.091 301.943 491.3 303.461 492.363C310.153 497.133 320.423 496.182 324.281 499.749C327.117 502.168 330.342 504.093 333.821 505.442C337.385 502.644 343.137 506.421 350.068 507.232C352.981 507.64 355.943 506.963 358.387 505.33C358.629 505.768 358.803 506.239 358.906 506.729C359.917 511.96 354.221 515.918 340.022 511.96C325.824 508.001 323.874 503.218 318.529 500.896C313.183 498.574 298.424 496.867 299.069 490.013Z" fill="white" stroke="#022C40" stroke-linecap="round" stroke-linejoin="round"/>
<path d="M359.019 509.051C359.019 509.051 355.792 513.583 337.876 507.232" stroke="#022C40" stroke-linecap="round" stroke-linejoin="round"/>
<path d="M206.739 332.316C206.739 332.316 311.963 325.322 316.705 340.093C321.447 354.864 323.72 402.31 324 421.124C324.281 439.937 322.738 463.772 322.738 463.772C316.42 465.671 309.68 465.671 303.362 463.772C303.362 463.772 298.746 436.426 295.393 423.124C292.04 409.822 288.519 392.113 290.539 364.096C290.539 364.096 189.763 379.231 189.187 361.662C188.612 344.094 206.739 332.316 206.739 332.316Z" fill="white"/>
<path opacity="0.5" d="M206.739 332.316C206.739 332.316 311.963 325.322 316.705 340.093C321.447 354.864 323.72 402.31 324 421.124C324.281 439.937 322.738 463.772 322.738 463.772C316.42 465.671 309.68 465.671 303.362 463.772C303.362 463.772 298.746 436.426 295.393 423.124C292.04 409.822 288.519 392.113 290.539 364.096C290.539 364.096 189.763 379.231 189.187 361.662C188.612 344.094 206.739 332.316 206.739 332.316Z" fill="black"/>
<path opacity="0.3" d="M312.412 462.821C306.07 461.422 300.865 433.853 297.891 405.01C294.916 376.167 305.818 361.424 300.332 357.704C294.846 353.983 248.001 361.802 220.867 363.173C205.616 363.942 195.459 360.375 189.468 357.074C189.239 358.592 189.145 360.128 189.187 361.662C189.763 379.231 290.539 364.096 290.539 364.096C288.519 392.071 292.04 409.836 295.393 423.124C298.746 436.412 303.362 463.772 303.362 463.772C304.975 464.301 306.633 464.68 308.315 464.905C312.089 463.94 314.011 463.171 312.412 462.821Z" fill="black"/>
<path d="M206.739 332.316C206.739 332.316 311.963 325.322 316.705 340.093C321.447 354.864 323.72 402.31 324 421.124C324.281 439.937 322.738 463.772 322.738 463.772C316.42 465.671 309.68 465.671 303.362 463.772C303.362 463.772 298.746 436.426 295.393 423.124C292.04 409.822 288.519 392.113 290.539 364.096C290.539 364.096 189.763 379.231 189.187 361.662C188.612 344.094 206.739 332.316 206.739 332.316Z" stroke="#022C40" stroke-linecap="round" stroke-linejoin="round"/>
<path d="M301.833 354.514C301.833 354.514 300.753 359.382 293.948 364.096" stroke="#022C40" stroke-linecap="round" stroke-linejoin="round"/>
<path d="M325.179 457.772L324.463 464.863C324.463 464.863 312.426 471.298 301.847 465.339L299.63 458.345C299.63 458.345 306.8 463.297 325.179 457.772Z" fill="white"/>
<path opacity="0.3" d="M325.179 457.772L324.463 464.863C324.463 464.863 312.426 471.298 301.847 465.339L299.63 458.345C299.63 458.345 306.8 463.297 325.179 457.772Z" fill="black"/>
<path d="M325.179 457.772L324.463 464.863C324.463 464.863 312.426 471.298 301.847 465.339L299.63 458.345C299.63 458.345 306.8 463.297 325.179 457.772Z" stroke="#022C40" stroke-linecap="round" stroke-linejoin="round"/>
<path d="M234.784 446.036L227.994 457.478L224.865 494.293C224.865 494.293 230.351 510.183 226.563 513.96C222.775 517.737 207.524 512.561 202.866 498.574C198.209 484.586 201.071 480.39 200.061 474.613C199.05 468.836 192.877 456.988 198.98 453.631C205.083 450.274 214.708 448.54 214.708 448.54L220.095 436.972L234.784 446.036Z" fill="white" stroke="#022C40" stroke-linecap="round" stroke-linejoin="round"/>
<path d="M200.004 474.627C198.924 468.92 192.821 457.002 198.924 453.645C202.939 451.667 207.179 450.178 211.551 449.211C211.207 450.805 210.544 452.313 209.601 453.645C209.601 453.645 209.362 457.94 211.004 459.842C212.645 461.744 216.981 457.464 223.196 459.842C226.072 460.947 227.152 462.346 227.489 463.535L227.335 466.094L224.935 494.349C224.935 494.349 230.421 510.239 226.633 514.016C222.845 517.793 207.595 512.617 202.937 498.63C198.279 484.642 201.071 480.348 200.004 474.627Z" fill="#275F7A"/>
<path opacity="0.3" d="M200.004 474.627C198.924 468.92 192.821 457.002 198.924 453.645C202.939 451.667 207.179 450.178 211.551 449.211C211.207 450.805 210.544 452.313 209.601 453.645C209.601 453.645 209.362 457.94 211.004 459.842C212.645 461.744 216.981 457.464 223.196 459.842C226.072 460.947 227.152 462.346 227.489 463.535L227.335 466.094L224.935 494.349C224.935 494.349 230.421 510.239 226.633 514.016C222.845 517.793 207.595 512.617 202.937 498.63C198.279 484.642 201.071 480.348 200.004 474.627Z" fill="black"/>
<path d="M200.004 474.627C198.924 468.92 192.821 457.002 198.924 453.645C202.939 451.667 207.179 450.178 211.551 449.211C211.207 450.805 210.544 452.313 209.601 453.645C209.601 453.645 209.362 457.94 211.004 459.842C212.645 461.744 216.981 457.464 223.196 459.842C226.072 460.947 227.152 462.346 227.489 463.535L227.335 466.094L224.935 494.349C224.935 494.349 230.421 510.239 226.633 514.016C222.845 517.793 207.595 512.617 202.937 498.63C198.279 484.642 201.071 480.348 200.004 474.627Z" stroke="#022C40" stroke-linecap="round" stroke-linejoin="round"/>
<path d="M202.866 498.588C198.209 484.6 201.071 480.404 200.061 474.627C199.05 468.85 192.877 457.002 198.98 453.645C199.275 453.477 199.598 453.337 199.906 453.184C199.598 455.55 199.57 457.944 199.822 460.317C200.65 466.989 204.354 468.71 204.831 483.201C205.308 497.692 209.376 498.923 209.376 498.923C209.376 498.923 218.945 502.98 223.715 507.987C225.609 509.974 226.97 510.142 227.924 509.652C228.021 511.195 227.552 512.721 226.605 513.946C222.789 517.723 207.524 512.533 202.866 498.588Z" fill="white" stroke="#022C40" stroke-linecap="round" stroke-linejoin="round"/>
<path d="M224.374 512.17C224.374 512.17 217.921 512.351 208.24 501.623" stroke="#022C40" stroke-linecap="round" stroke-linejoin="round"/>
<path d="M170.514 336.261C170.514 336.261 155.6 365.998 174.652 368.628C193.705 371.258 252.041 367.873 252.041 367.873C244.737 379.552 238.262 391.728 232.666 404.311C225.118 422.131 217.514 440.441 217.514 440.441C217.514 440.441 220.797 449.225 234.125 450.974C234.125 450.974 244.942 434.188 268.596 407.822C292.251 381.455 298.803 355.144 293.766 346.108C288.729 337.072 262.564 332.12 220.292 330.246L170.514 336.261Z" fill="white"/>
<path opacity="0.5" d="M170.514 336.261C170.514 336.261 155.6 365.998 174.653 368.628C193.705 371.258 252.042 367.873 252.042 367.873C244.737 379.552 238.263 391.728 232.666 404.311C225.118 422.131 217.514 440.441 217.514 440.441C217.514 440.441 220.797 449.225 234.125 450.974C234.125 450.974 244.942 434.188 268.597 407.822C292.251 381.455 298.803 355.144 293.766 346.108C288.73 337.072 262.564 332.12 220.292 330.246L170.514 336.261Z" fill="black"/>
<path opacity="0.3" d="M262.62 359.662C256.713 352.347 202.6 364.46 182.65 363.173C172.127 362.502 167.708 355.55 165.884 349.185C163.948 357.578 164.144 367.215 174.624 368.67C193.691 371.3 252.013 367.915 252.013 367.915C244.709 379.594 238.234 391.77 232.638 404.353C225.118 422.131 217.514 440.441 217.514 440.441C218.626 442.829 220.33 444.894 222.466 446.442C217.163 430.496 268.358 366.782 262.62 359.662Z" fill="black"/>
<path d="M170.514 336.261C170.514 336.261 155.6 365.998 174.652 368.628C193.705 371.258 252.041 367.873 252.041 367.873C244.737 379.552 238.262 391.728 232.666 404.311C225.118 422.131 217.514 440.441 217.514 440.441C217.514 440.441 220.797 449.225 234.125 450.974C234.125 450.974 244.942 434.188 268.596 407.822C292.251 381.455 298.803 355.144 293.766 346.108C288.729 337.072 262.564 332.12 220.292 330.246L170.514 336.261Z" stroke="#022C40" stroke-linecap="round" stroke-linejoin="round"/>
<path d="M256.601 363.173C258.004 361.984 260.95 359.648 268.638 356.179" stroke="#022C40" stroke-linecap="round" stroke-linejoin="round"/>
<path d="M263.812 352.136C263.812 352.136 251.536 362.166 253.991 363.676" stroke="#022C40" stroke-linecap="round" stroke-linejoin="round"/>
<path d="M238.699 448.47L234.167 453.981C234.167 453.981 220.586 452.736 215.044 441.951L217.065 434.958C217.065 434.958 220.32 442.944 238.699 448.47Z" fill="white"/>
<path opacity="0.3" d="M238.699 448.47L234.167 453.981C234.167 453.981 220.586 452.736 215.044 441.951L217.065 434.958C217.065 434.958 220.32 442.944 238.699 448.47Z" fill="black"/>
<path d="M238.699 448.47L234.167 453.981C234.167 453.981 220.586 452.736 215.044 441.951L217.065 434.958C217.065 434.958 220.32 442.944 238.699 448.47Z" stroke="#022C40" stroke-linecap="round" stroke-linejoin="round"/>
<path d="M255.745 306.201L257.807 318.048L248.225 321.084L240.859 306.984C240.859 306.984 249.404 299.641 255.745 306.201Z" fill="white" stroke="#022C40" stroke-linecap="round" stroke-linejoin="round"/>
<path d="M272.469 325.826C273.872 327.225 277.253 327.336 274.98 324.301C273.11 321.865 270.585 320.007 267.698 318.944C262.634 316.692 260.684 317.153 256.082 316.146C251.48 315.139 250.652 316.999 249.067 317.867C245.293 319.937 244.381 320.287 243.455 322.357C242.529 324.427 241.449 327.141 244.395 327.141C247.089 327.141 247.201 322.706 249.867 322.944C252.532 323.182 253.753 327.141 255.577 327.141H256.278C257.835 327.141 257.92 325.84 256.966 323.812C256.012 321.783 254.973 319.951 254.973 319.951C256.513 320.757 257.745 322.045 258.481 323.616C259.729 326.259 259.954 327.378 262.255 327.378C264.556 327.378 264.387 325.672 262.101 321.923C263.427 322.711 264.525 323.829 265.285 325.168C266.408 327.28 266.997 327.141 268.47 327.141C270.392 327.141 270.266 323.965 266.843 321.881C266.829 321.881 267.586 320.958 272.469 325.826Z" fill="white" stroke="#022C40" stroke-linecap="round" stroke-linejoin="round"/>
<path d="M259.098 318.244C259.098 318.244 260.501 318.174 261.287 320.44" stroke="#022C40" stroke-linecap="round" stroke-linejoin="round"/>
<path d="M222.705 214.484C222.703 214.108 222.79 213.736 222.959 213.4C223.129 213.064 223.375 212.772 223.678 212.549C223.982 212.325 224.334 212.176 224.706 212.114C225.078 212.052 225.459 212.077 225.819 212.19C230.674 213.7 239.428 217.785 239.035 226.891C238.502 239.48 239.035 265.119 239.035 265.119C239.035 265.119 243.876 263.063 249.558 282.632C255.24 302.2 256.012 307.67 256.012 307.67C256.012 307.67 249.221 302.788 242.445 310.048C242.445 310.048 227.012 281.037 224.711 268.532C222.747 257.999 222.677 224.779 222.705 214.484Z" fill="#275F7A" stroke="#022C40" stroke-linecap="round" stroke-linejoin="round"/>
<path d="M257.807 310.048C257.807 310.048 249.909 304.942 242.445 313.125L237.787 307.67C237.787 307.67 243.399 302.718 249.558 302.55C255.717 302.382 257.807 304.592 257.807 304.592V310.048Z" fill="#275F7A"/>
<path opacity="0.6" d="M257.807 310.048C257.807 310.048 249.909 304.942 242.445 313.125L237.787 307.67C237.787 307.67 243.399 302.718 249.558 302.55C255.717 302.382 257.807 304.592 257.807 304.592V310.048Z" fill="white"/>
<path d="M257.807 310.048C257.807 310.048 249.909 304.942 242.445 313.125L237.787 307.67C237.787 307.67 243.399 302.718 249.558 302.55C255.717 302.382 257.807 304.592 257.807 304.592V310.048Z" stroke="#022C40" stroke-linecap="round" stroke-linejoin="round"/>
<path d="M240.523 282.408C240.172 266.028 244.633 245.886 235.724 234.962C235.724 234.962 236.075 217.897 222.719 211.406C209.362 204.916 176.154 201.853 167.595 208.679C160.398 214.428 170.317 271.623 171.804 314.216C172.071 322.259 169.363 329.784 168.998 336.331C168.998 336.331 171.734 341.45 185.427 336.331C199.121 331.211 238.488 329.686 238.488 329.686C238.488 329.686 240.859 298.788 240.523 282.408Z" fill="#275F7A"/>
<path opacity="0.3" d="M240.172 301.04C237.212 305.376 231.417 311.908 223.336 312.23C211.102 312.705 221.596 288.535 218.65 285.947C215.704 283.359 205.111 311.74 185.077 307.796C165.042 303.851 181.471 299.039 181.934 284.254C182.397 269.469 186.494 244.445 177.599 244.669C173.993 244.767 170.472 251.397 167.553 259.258C169.223 277.009 171.229 296.801 171.762 314.174C172.029 322.217 169.321 329.742 168.956 336.289C168.956 336.289 171.692 341.408 185.385 336.289C199.078 331.169 238.446 329.644 238.446 329.644C238.446 329.644 239.569 315.391 240.172 301.04Z" fill="black"/>
<path d="M240.523 282.408C240.172 266.028 244.633 245.886 235.724 234.962C235.724 234.962 236.075 217.897 222.719 211.406C209.362 204.916 176.154 201.853 167.595 208.679C160.398 214.428 170.317 271.624 171.804 314.216C172.071 322.259 169.363 329.784 168.998 336.331C168.998 336.331 171.734 341.45 185.427 336.331C199.121 331.211 238.488 329.686 238.488 329.686C238.488 329.686 240.859 298.788 240.523 282.408Z" stroke="#022C40" stroke-linecap="round" stroke-linejoin="round"/>
<path d="M220.32 210.357C222.48 214.554 225.707 221.799 224.529 224.611C222.705 228.709 218.131 219.603 215.62 220.051C213.108 220.498 211.06 226.275 206.262 225.646C201.842 225.086 195.276 211.854 185.133 204.818C196.918 204.622 211.453 206.874 220.32 210.357Z" fill="#275F7A"/>
<path opacity="0.7" d="M220.32 210.357C222.48 214.554 225.707 221.799 224.529 224.611C222.705 228.709 218.131 219.603 215.62 220.051C213.108 220.498 211.06 226.275 206.262 225.646C201.842 225.086 195.276 211.854 185.133 204.818C196.918 204.622 211.453 206.874 220.32 210.357Z" fill="white"/>
<path d="M220.32 210.357C222.48 214.554 225.707 221.799 224.529 224.611C222.705 228.709 218.131 219.603 215.62 220.051C213.108 220.498 211.06 226.275 206.262 225.646C201.842 225.086 195.276 211.854 185.133 204.818C196.918 204.622 211.453 206.874 220.32 210.357Z" stroke="#022C40" stroke-linecap="round" stroke-linejoin="round"/>
<path d="M189.047 327.798C169.868 329.784 185.035 320.329 185.035 320.329" stroke="#022C40" stroke-linecap="round" stroke-linejoin="round"/>
<path d="M219.702 282.926C214.624 297.473 204.62 321.629 192.597 326.847" stroke="#022C40" stroke-linecap="round" stroke-linejoin="round"/>
<path d="M223.294 271.665C223.294 271.665 222.649 273.931 221.484 277.568" stroke="#022C40" stroke-linecap="round" stroke-linejoin="round"/>
<path d="M225.286 321.084C225.286 321.084 231.824 324.105 233.957 325.182C234.644 325.532 237.787 326.721 235.5 327.798C233.536 328.721 227.335 325.588 227.335 325.588L221.344 324.385L225.286 321.084Z" fill="white"/>
<path opacity="0.2" d="M225.286 321.084C225.286 321.084 231.824 324.105 233.957 325.182C234.644 325.532 237.787 326.721 235.5 327.798C233.536 328.721 227.335 325.588 227.335 325.588L221.344 324.385L225.286 321.084Z" fill="black"/>
<path d="M225.286 321.084C225.286 321.084 231.824 324.105 233.957 325.182C234.644 325.532 237.787 326.721 235.5 327.798C233.536 328.721 227.335 325.588 227.335 325.588L221.344 324.385L225.286 321.084Z" stroke="#022C40" stroke-linecap="round" stroke-linejoin="round"/>
<path d="M187.518 313.628L205.49 323.7C208.721 326.508 212.849 328.079 217.135 328.134C219.112 328.178 221.068 327.733 222.831 326.84C224.594 325.946 226.107 324.632 227.236 323.014L230.996 323.518C230.996 323.518 235.612 327.784 236.987 325.91V324.819L233.957 321.923L232.371 320.804L234.995 321.294C236.129 322.432 237.541 323.257 239.092 323.686C239.092 323.686 246.626 327.882 247.425 325.266C247.425 325.266 249.712 325.728 250.231 324.595C250.75 323.462 249.319 321.923 249.319 321.923C249.783 321.987 250.255 321.916 250.679 321.717C251.102 321.518 251.458 321.201 251.704 320.804C252.392 319.475 248.898 318.216 247.944 317.531C246.99 316.846 242.01 313.209 239.274 312.985C236.538 312.761 217.822 316.86 215.072 315.489C212.323 314.118 194.757 300.354 194.757 300.354L185.287 311.852L187.518 313.628Z" fill="white" stroke="#022C40" stroke-linecap="round" stroke-linejoin="round"/>
<path d="M246.401 323.574C246.401 323.574 237.043 317.895 235.668 317.321C234.293 316.748 229.173 317.321 229.173 317.321" stroke="#022C40" stroke-linecap="round" stroke-linejoin="round"/>
<path d="M246.864 320.329C244.43 318.746 241.915 317.289 239.33 315.964C238.816 315.603 238.22 315.375 237.595 315.302C236.97 315.228 236.337 315.312 235.752 315.545" stroke="#022C40" stroke-linecap="round" stroke-linejoin="round"/>
<path d="M170.64 209.896C169.644 208.651 168.62 208.147 167.595 208.679C167.595 208.679 161.436 210.735 157.55 228.262C153.664 245.788 151.615 288.339 155.039 293.346C158.462 298.354 187.686 314.734 187.686 314.734C187.686 314.734 189.089 309.278 198.91 303.362C198.91 303.362 180.882 285.835 178.146 286.576C178.146 286.576 180.264 284.226 175.635 283.387C175.635 283.387 177.038 268.602 177.038 260.853C177.038 260.853 180.685 254.027 179.549 242.431" fill="#275F7A"/>
<path d="M170.64 209.896C169.644 208.651 168.62 208.147 167.595 208.679C167.595 208.679 161.436 210.735 157.55 228.262C153.664 245.788 151.615 288.339 155.039 293.346C158.462 298.354 187.686 314.734 187.686 314.734C187.686 314.734 189.089 309.278 198.91 303.362C198.91 303.362 180.882 285.835 178.146 286.576C178.146 286.576 180.264 284.226 175.635 283.387C175.635 283.387 177.038 268.602 177.038 260.853C177.038 260.853 180.685 254.027 179.549 242.431" stroke="#022C40" stroke-linecap="round" stroke-linejoin="round"/>
<path d="M173.6 243.061C175.003 247.872 176.785 254.838 175.817 257.314C174.274 261.245 172.169 249.649 168.451 246.907" stroke="#022C40" stroke-linecap="round" stroke-linejoin="round"/>
<path d="M172.043 238.207C172.043 238.207 172.352 239.088 172.801 240.487" stroke="#022C40" stroke-linecap="round" stroke-linejoin="round"/>
<path d="M170.64 287.905C169.237 288.506 167.09 288.954 166.235 292.479" stroke="#022C40" stroke-linecap="round" stroke-linejoin="round"/>
<path opacity="0.3" d="M163.316 284.968C163.316 284.968 171.019 282.925 171.734 285.989L163.316 284.968Z" fill="black"/>
<path d="M203.133 305.236C203.133 305.236 196.286 307.46 192.007 317.699L185.68 315.811C185.68 315.811 186.872 306.607 199.022 299.948L203.133 305.236Z" fill="#275F7A"/>
<path opacity="0.6" d="M203.133 305.236C203.133 305.236 196.286 307.46 192.007 317.699L185.68 315.811C185.68 315.811 186.872 306.607 199.022 299.948L203.133 305.236Z" fill="white"/>
<path d="M203.133 305.236C203.133 305.236 196.286 307.46 192.007 317.699L185.68 315.811C185.68 315.811 186.872 306.607 199.022 299.948L203.133 305.236Z" stroke="#022C40" stroke-linecap="round" stroke-linejoin="round"/>
<path d="M225.791 139.048C225.791 139.048 246.836 140.643 243.371 146.559C239.905 152.476 255.703 155.665 251.129 162.03C246.555 168.394 256.573 178.815 250.54 181.822C244.507 184.83 246.331 191.838 248.618 195.712C250.905 199.587 243.371 203.447 237.899 202.706C232.427 201.965 239.302 209.308 236.987 210.679C234.672 212.05 232.189 206.119 227.966 206.804C223.743 207.49 214.848 202.902 212.224 203.601C209.601 204.301 176.154 202.482 176.098 200.202C176.041 197.922 179.465 197.936 179.016 195.656C178.567 193.376 172.843 195.027 172.281 190.061C171.72 185.096 176.21 183.487 176.098 178.871C175.985 174.255 172.281 175.85 172.225 169.485C172.169 163.121 181.527 162.198 182.201 159.022C182.874 155.847 173.713 155.889 177.024 150.168C180.335 144.447 189.735 146.504 192.246 143.314C194.757 140.125 186.872 139.538 192.47 135.355C198.068 131.173 218.552 130.39 225.791 139.048Z" fill="#022C40" stroke="#022C40" stroke-linecap="round" stroke-linejoin="round"/>
<path d="M216.195 210.315C217.794 212.26 222.144 218.47 212.337 218.232C202.53 217.995 187.686 204.832 187.686 204.832C187.686 204.832 193.621 202.538 197.507 193.432C199.205 189.46 202.993 177.053 202.993 177.053L218.005 193.208L213.305 206.175C213.305 206.175 215.549 209.532 216.195 210.315Z" fill="white"/>
<path d="M216.405 204.832C216.405 204.832 203.007 197.95 201.492 186.522C199.976 175.094 202.74 175.57 202.74 175.57L208.029 187.515L215.044 195.013L218.706 201.028L216.405 204.832Z" fill="#022C40"/>
<path d="M216.195 210.315C217.794 212.26 222.144 218.47 212.337 218.232C202.53 217.995 187.686 204.832 187.686 204.832C187.686 204.832 193.621 202.538 197.507 193.432C199.205 189.46 202.993 177.053 202.993 177.053L218.005 193.208L213.305 206.175C213.305 206.175 215.549 209.532 216.195 210.315Z" stroke="#022C40" stroke-linecap="round" stroke-linejoin="round"/>
<path d="M238.558 155.204C238.558 155.204 241.519 169.08 239.12 173.64C236.721 178.2 238.895 184.103 234.097 189.572C229.299 195.041 225.805 204.818 219.955 203.447C212.295 201.643 203.666 191.39 203.119 187.292C202.83 184.679 202.83 182.043 203.119 179.431C202.475 179.477 201.828 179.375 201.23 179.133C200.631 178.89 200.097 178.513 199.668 178.032C197.844 176.325 195.459 169.401 199.668 167.107C203.372 165.107 204.873 169.387 204.873 169.387L215.521 154.141L238.558 155.204Z" fill="white" stroke="#022C40" stroke-linecap="round" stroke-linejoin="round"/>
<path d="M230.589 180.354C229.902 182.508 233.101 186.033 232.077 187.627C231.052 189.222 228.429 188.425 228.429 190.019" stroke="#022C40" stroke-linecap="round" stroke-linejoin="round"/>
<path d="M227.166 192.985C227.166 192.985 222.031 193.656 219.015 190.019" stroke="#022C40" stroke-linecap="round" stroke-linejoin="round"/>
<path d="M233.69 178.689C233.339 179.878 233.494 180.983 234.055 181.151C234.616 181.319 235.346 180.48 235.696 179.277C236.047 178.074 235.893 176.983 235.332 176.829C234.77 176.675 234.055 177.5 233.69 178.689Z" fill="#022C40"/>
<path d="M222.522 176.549C222.158 177.738 222.326 178.843 222.873 179.011C223.42 179.179 224.164 178.339 224.515 177.137C224.865 175.934 224.711 174.843 224.164 174.675C223.617 174.507 222.873 175.304 222.522 176.549Z" fill="#022C40"/>
<path d="M237.899 174.773C237.899 174.773 236.412 171.471 232.764 175.57" stroke="#022C40" stroke-linecap="round" stroke-linejoin="round"/>
<path d="M227.966 173.514C227.966 173.514 224.08 168.296 219.983 172.619" stroke="#022C40" stroke-linecap="round" stroke-linejoin="round"/>
<path d="M231.038 150.658C231.038 150.658 231.137 160.449 235.332 160.547C239.527 160.645 235.472 167.779 241.336 168.576C247.201 169.373 241.336 156.799 241.336 156.799L237.492 152.197L231.038 150.658Z" fill="#022C40" stroke="#022C40" stroke-linecap="round" stroke-linejoin="round"/>
<path d="M232.301 150.658C232.301 150.658 229.902 159.526 225.623 160.547C221.344 161.568 218.271 162.254 217.416 166.016C216.56 169.779 211.593 170.45 209.531 173.178C207.468 175.906 211.074 187.068 206.627 188.662C207.232 186.138 207.232 183.507 206.627 180.983C205.602 176.941 202.951 173.01 204.873 165.848C206.795 158.687 215.353 150.658 215.353 150.658L223.967 149.637L232.301 150.658Z" fill="#022C40" stroke="#022C40" stroke-linecap="round" stroke-linejoin="round"/>
<path d="M201.337 179.948C201.337 179.948 203.049 189.166 201.337 192.663C199.626 196.16 204.41 197.615 202.109 200.342C199.808 203.07 190.394 204.958 188.332 200.342C186.269 195.726 198.868 179.011 201.337 179.948Z" fill="#022C40" stroke="#022C40" stroke-linecap="round" stroke-linejoin="round"/>
<path d="M242.445 191.67C244.283 197.069 239.555 197.433 235.332 198.37C231.109 199.307 232.764 205.602 232.764 205.602" stroke="#7F7F7F" stroke-width="0.75" stroke-linecap="round" stroke-linejoin="round"/>
<path d="M245.924 180.745C243.848 182.927 241.869 185.991 242.024 189.362" stroke="#7F7F7F" stroke-width="0.75" stroke-linecap="round" stroke-linejoin="round"/>
<path d="M246.527 164.506C246.345 169.415 250.344 176.983 247.93 178.927" stroke="#7F7F7F" stroke-width="0.75" stroke-linecap="round" stroke-linejoin="round"/>
<path d="M240.088 152.197C240.088 152.197 250.442 157.652 247.369 161.75" stroke="#7F7F7F" stroke-width="0.75" stroke-linecap="round" stroke-linejoin="round"/>
<path d="M240.298 147.175C239.611 148.182 237.983 148.084 237.899 149.623" stroke="#7F7F7F" stroke-width="0.75" stroke-linecap="round" stroke-linejoin="round"/>
<path d="M227.166 141.58C227.166 141.58 240.284 142.979 240.579 145.678" stroke="#7F7F7F" stroke-width="0.75" stroke-linecap="round" stroke-linejoin="round"/>
<path d="M177.36 168.604C178.034 171.653 183.337 177.948 180.433 182.732C177.529 187.515 175.649 189.222 179.745 190.928" stroke="#7F7F7F" stroke-width="0.75" stroke-linecap="round" stroke-linejoin="round"/>
<path d="M183.169 152.197C183.688 155.428 188.949 155.61 187.686 160.897C186.802 164.632 181.653 165.429 178.96 166.646" stroke="#7F7F7F" stroke-width="0.75" stroke-linecap="round" stroke-linejoin="round"/>
<path d="M196.301 142.265C195.838 146.238 199.584 147.245 193.958 149.637C191.476 150.667 188.776 151.066 186.101 150.798" stroke="#7F7F7F" stroke-width="0.75" stroke-linecap="round" stroke-linejoin="round"/>
<path d="M223.126 141.58C223.126 141.58 200.888 132.53 197.353 139.188" stroke="#7F7F7F" stroke-width="0.75" stroke-linecap="round" stroke-linejoin="round"/>
<path d="M185.035 191.67C185.736 194.691 182.144 198.37 182.144 198.37" stroke="#7F7F7F" stroke-width="0.75" stroke-linecap="round" stroke-linejoin="round"/>
<path d="M192.26 155.945C191.404 159.358 194.659 161.065 193.466 164.646C192.274 168.227 185.708 166.744 185.049 169.541C184.389 172.339 189.636 176.088 187.7 181.543C186.732 184.34 185.89 186.047 185.385 187.516" stroke="#7F7F7F" stroke-width="0.75" stroke-linecap="round" stroke-linejoin="round"/>
<path d="M201.492 150.658C200.299 153.889 197.283 153.819 195.052 154.141" stroke="#7F7F7F" stroke-width="0.75" stroke-linecap="round" stroke-linejoin="round"/>
<path d="M200.818 144.377C200.926 145.556 201.195 146.713 201.618 147.818" stroke="#7F7F7F" stroke-width="0.75" stroke-linecap="round" stroke-linejoin="round"/>
<path d="M225.833 144.685C225.833 144.685 203.989 136.292 201.492 141.608" stroke="#7F7F7F" stroke-width="0.75" stroke-linecap="round" stroke-linejoin="round"/>
<path d="M195.066 181.165C194.35 183.165 191.881 184.578 191.615 187.515C191.278 191.446 192.653 194.299 190.422 197.643" stroke="#7F7F7F" stroke-width="0.75" stroke-linecap="round" stroke-linejoin="round"/>
<path d="M207.132 152.392C206.681 153.941 205.919 155.383 204.891 156.628C203.864 157.874 202.592 158.898 201.155 159.638C197.549 161.582 198.068 166.296 195.669 169.15C193.27 172.003 193.789 175.402 194.982 178.941" stroke="#7F7F7F" stroke-width="0.75" stroke-linecap="round" stroke-linejoin="round"/>
<path d="M229.565 147.748C229.565 147.748 209.531 144 208.001 149.637" stroke="#7F7F7F" stroke-width="0.75" stroke-linecap="round" stroke-linejoin="round"/>
<path d="M235.332 147.245C235.332 147.245 234.728 144.238 229.565 145.622" stroke="#7F7F7F" stroke-width="0.75" stroke-linecap="round" stroke-linejoin="round"/>
<path d="M228.429 152.197C227.486 153.634 226.248 154.856 224.797 155.782C223.346 156.707 221.715 157.316 220.011 157.568C214.09 158.477 214.09 165.079 211.355 166.898C208.619 168.716 205.378 169.15 207.019 177.626" stroke="#7F7F7F" stroke-width="0.75" stroke-linecap="round" stroke-linejoin="round"/>
<path d="M213.305 206.175C213.305 206.175 211.677 209.126 215.101 212.092L213.305 206.175Z" fill="white"/>
<path d="M213.305 206.175C213.305 206.175 211.677 209.126 215.101 212.092" stroke="#022C40" stroke-linecap="round" stroke-linejoin="round"/>
<path d="M248.043 327.616L274.11 280.701C274.629 279.771 275.388 278.995 276.307 278.454C277.227 277.913 278.275 277.627 279.343 277.624H281.49V331.561H250.372C249.908 331.56 249.453 331.439 249.05 331.209C248.648 330.98 248.313 330.649 248.078 330.251C247.843 329.853 247.716 329.4 247.71 328.938C247.703 328.476 247.818 328.02 248.043 327.616Z" fill="#022C40" stroke="#022C40" stroke-linecap="round" stroke-linejoin="round"/>
<path d="M252.224 331.561H304.611C305.524 331.559 306.42 331.314 307.207 330.852C307.994 330.389 308.642 329.726 309.087 328.931L335.954 280.561C336.119 280.26 336.203 279.92 336.197 279.576C336.191 279.233 336.096 278.896 335.92 278.6C335.745 278.304 335.496 278.059 335.196 277.888C334.897 277.716 334.559 277.626 334.214 277.624H281.195C280.126 277.629 279.077 277.916 278.155 278.456C277.233 278.997 276.472 279.772 275.948 280.701L249.895 327.616C249.67 328.02 249.555 328.476 249.562 328.938C249.568 329.4 249.695 329.853 249.93 330.251C250.165 330.649 250.5 330.98 250.902 331.209C251.305 331.439 251.76 331.56 252.224 331.561Z" fill="white"/>
<path opacity="0.2" d="M252.224 331.561H304.611C305.524 331.559 306.42 331.314 307.207 330.852C307.994 330.389 308.642 329.726 309.087 328.931L335.954 280.561C336.119 280.26 336.203 279.92 336.197 279.576C336.191 279.233 336.096 278.896 335.92 278.6C335.745 278.304 335.496 278.059 335.196 277.888C334.897 277.716 334.559 277.626 334.214 277.624H281.195C280.126 277.629 279.077 277.916 278.155 278.456C277.233 278.997 276.472 279.772 275.948 280.701L249.895 327.616C249.67 328.02 249.555 328.476 249.562 328.938C249.568 329.4 249.695 329.853 249.93 330.251C250.165 330.649 250.5 330.98 250.902 331.209C251.305 331.439 251.76 331.56 252.224 331.561Z" fill="black"/>
<path d="M252.224 331.561H304.611C305.524 331.559 306.42 331.314 307.207 330.852C307.994 330.389 308.642 329.726 309.087 328.931L335.954 280.561C336.119 280.26 336.203 279.92 336.197 279.576C336.191 279.233 336.096 278.896 335.92 278.6C335.745 278.304 335.496 278.059 335.196 277.888C334.897 277.716 334.559 277.626 334.214 277.624H281.195C280.126 277.629 279.077 277.916 278.155 278.456C277.233 278.997 276.472 279.772 275.948 280.701L249.895 327.616C249.67 328.02 249.555 328.476 249.562 328.938C249.568 329.4 249.695 329.853 249.93 330.251C250.165 330.649 250.5 330.98 250.902 331.209C251.305 331.439 251.76 331.56 252.224 331.561V331.561Z" stroke="#022C40" stroke-linecap="round" stroke-linejoin="round"/>
<path d="M206.627 331.561H246.078C246.51 331.561 246.924 331.39 247.229 331.085C247.534 330.781 247.706 330.368 247.706 329.938V327.798H202.81C202.809 328.296 202.906 328.79 203.098 329.25C203.289 329.71 203.571 330.127 203.926 330.478C204.282 330.828 204.704 331.104 205.167 331.29C205.631 331.476 206.127 331.568 206.627 331.561Z" fill="white"/>
<path opacity="0.4" d="M206.627 331.561H246.078C246.51 331.561 246.924 331.39 247.229 331.085C247.534 330.781 247.706 330.368 247.706 329.938V327.798H202.81C202.809 328.296 202.906 328.79 203.098 329.25C203.289 329.71 203.571 330.127 203.926 330.478C204.282 330.828 204.704 331.104 205.167 331.29C205.631 331.476 206.127 331.568 206.627 331.561Z" fill="black"/>
<path d="M206.627 331.561H246.078C246.51 331.561 246.924 331.39 247.229 331.085C247.534 330.781 247.706 330.368 247.706 329.938V327.798H202.81C202.809 328.296 202.906 328.79 203.098 329.25C203.289 329.71 203.571 330.127 203.926 330.478C204.282 330.828 204.704 331.104 205.167 331.29C205.631 331.476 206.127 331.568 206.627 331.561Z" stroke="#022C40" stroke-linecap="round" stroke-linejoin="round"/>
</svg>
