<svg width="98" height="98" viewBox="0 0 98 98" fill="none" xmlns="http://www.w3.org/2000/svg">
<circle cx="49" cy="49" r="47.5" fill="white" stroke="#022C40" stroke-width="3"/>
<g clip-path="url(#clip0_1_511)">
<path d="M51.0606 66.01L46.2958 61.42L41.8566 57.16L47.7756 56.29L54.4343 55.33L55.2926 53.62H55.2334C54.5541 53.6203 53.8954 53.3837 53.3679 52.95C52.8403 52.5163 52.476 51.9118 52.3361 51.238C52.3331 49.387 54.7007 49.987 56.5651 46.867C56.8019 46.807 64.9108 24.997 48.3378 24.997C31.7649 24.997 39.8738 46.807 39.8738 46.807C41.7383 49.807 44.1354 49.357 44.1058 51.157C44.0762 52.957 41.9158 53.557 39.8738 53.767C36.5 54.157 33.5406 53.377 30.5811 59.047C28.8054 62.317 28.0656 72.997 28.0656 72.997H49.8472V72.487L51.0606 66.01ZM59.347 73H61.0043L60.1757 72.58L59.347 73Z" fill="#022C40"/>
<path d="M60.1757 69.19L67.4856 73L66.0946 64.93L72.0135 59.23L63.8454 58.06L60.1757 50.71L56.506 58.06L48.3379 59.23L54.2568 64.93L52.8658 73L60.1757 69.19Z" fill="#022C40"/>
</g>
<defs>
<clipPath id="clip0_1_511">
<rect width="47.3514" height="48" fill="white" transform="translate(24.6622 25)"/>
</clipPath>
</defs>
</svg>
