<svg width="40" height="40" viewBox="0 0 40 40" fill="none" xmlns="http://www.w3.org/2000/svg">
<g clip-path="url(#clip0_2_1029)">
<path d="M22.7006 39.0578H16.2824C15.2104 39.0578 14.3383 38.2063 14.3383 37.1595V23.024H10.5938C9.52177 23.024 8.64971 22.1721 8.64971 21.1257V15.0686C8.64971 14.0218 9.52177 13.1703 10.5938 13.1703H14.3383V10.1371C14.3383 7.12958 15.3055 4.57083 17.1349 2.73791C18.9726 0.896624 21.5408 -0.076416 24.5618 -0.076416L29.4566 -0.0686532C30.5268 -0.0668618 31.3974 0.784661 31.3974 1.82966V7.45353C31.3974 8.50031 30.5256 9.35184 29.4539 9.35184L26.1583 9.35303C25.1532 9.35303 24.8973 9.54979 24.8425 9.6101C24.7523 9.71012 24.645 9.99287 24.645 10.7736V13.17H29.2062C29.5496 13.17 29.8823 13.2527 30.1682 13.4085C30.7849 13.745 31.1684 14.3813 31.1684 15.0689L31.1659 21.126C31.1659 22.1721 30.2938 23.0237 29.2218 23.0237H24.645V37.1595C24.645 38.2063 23.7726 39.0578 22.7006 39.0578ZM16.6879 36.7636H22.2951V21.9969C22.2951 21.2979 22.8776 20.7295 23.5931 20.7295H28.8164L28.8185 15.4645H23.5928C22.8773 15.4645 22.2951 14.896 22.2951 14.197V10.7736C22.2951 9.87732 22.3884 8.858 23.0813 8.09187C23.9185 7.1657 25.2379 7.05882 26.1577 7.05882L29.0478 7.05762V2.22496L24.56 2.2178C19.7049 2.2178 16.6879 5.25247 16.6879 10.1371V14.197C16.6879 14.8957 16.1057 15.4645 15.3902 15.4645H10.9993V20.7295H15.3902C16.1057 20.7295 16.6879 21.2979 16.6879 21.9969V36.7636ZM29.4521 2.22556H29.4524H29.4521Z" fill="white"/>
</g>
<defs>
<clipPath id="clip0_2_1029">
<rect width="40" height="39.1342" fill="white"/>
</clipPath>
</defs>
</svg>
