<svg width="573" height="561" viewBox="0 0 573 561" fill="none" xmlns="http://www.w3.org/2000/svg">
<path d="M389.72 76.7387C440.772 77.5403 483.462 97.2104 517.047 136.551C518.125 137.741 518.955 139.141 519.485 140.665C520.016 142.189 520.236 143.807 520.134 145.42C520.032 147.034 519.609 148.609 518.89 150.052C518.172 151.495 517.173 152.775 515.953 153.816C514.769 154.839 513.395 155.612 511.911 156.087C510.428 156.563 508.866 156.732 507.317 156.585C505.768 156.438 504.264 155.977 502.893 155.231C501.523 154.484 500.313 153.466 499.337 152.237C487.35 137.87 472.775 125.95 456.392 117.115C431.208 103.54 402.584 97.9568 374.234 101.088C345.884 104.22 319.115 115.921 297.4 134.676C291.225 139.967 285.731 146.12 280.164 152.102C275.302 157.294 268.239 158.12 263.146 153.668C258.053 149.216 257.737 141.779 262.332 136.403C290.459 103.311 325.864 83.764 368.545 77.7622C371.888 77.2936 375.255 76.936 378.634 76.7756C382.317 76.603 386.025 76.7387 389.72 76.7387Z" fill="#275F7A"/>
<path d="M393.938 124.81C426.235 125.661 456.611 139.609 480.496 167.677C485.213 173.202 484.666 180.33 479.427 184.943C474.455 189.284 467.271 188.704 462.64 183.302C450.169 168.652 435.06 157.91 416.632 152.866C379.084 142.581 346.617 151.954 319.389 180.158C318.38 181.206 317.444 182.328 316.484 183.426C314.434 185.826 311.527 187.303 308.404 187.529C305.281 187.756 302.197 186.715 299.831 184.634C297.465 182.554 296.01 179.605 295.787 176.437C295.563 173.268 296.59 170.14 298.64 167.739C309.145 155.092 322.11 144.781 336.723 137.451C353.485 128.978 371.195 124.896 393.938 124.81Z" fill="#275F7A"/>
<path d="M447.081 206.808C447.088 209.232 446.37 211.601 445.022 213.602C443.675 215.603 441.761 217.143 439.533 218.018C437.268 218.924 434.781 219.087 432.42 218.485C430.059 217.884 427.943 216.547 426.369 214.664C421.446 208.814 415.278 204.175 408.33 201.098C388.881 192.762 367.549 197.941 353.12 214.466C349.705 218.388 345.438 219.806 340.503 218.289C338.621 217.708 336.912 216.659 335.532 215.238C334.151 213.816 333.143 212.067 332.598 210.149C332.053 208.232 331.989 206.206 332.413 204.257C332.836 202.308 333.732 200.497 335.021 198.989C359.721 168.775 405.157 164.459 434.877 189.691C438.275 192.561 441.405 195.744 444.225 199.199C445.866 201.221 446.571 204.021 447.701 206.475L447.081 206.808Z" fill="#275F7A"/>
<path d="M389.672 269.752C384.971 269.767 380.373 268.364 376.46 265.722C372.547 263.08 369.496 259.318 367.695 254.913C365.894 250.509 365.423 245.661 366.342 240.984C367.262 236.308 369.531 232.014 372.86 228.648C376.19 225.282 380.43 222.996 385.043 222.08C389.655 221.164 394.432 221.659 398.767 223.502C403.102 225.346 406.799 228.455 409.389 232.434C411.979 236.413 413.345 241.084 413.314 245.852C413.301 252.202 410.803 258.286 406.37 262.768C401.936 267.25 395.93 269.762 389.672 269.752Z" fill="#275F7A"/>
<path d="M247.537 384.955C258.574 373.758 258.574 355.603 247.537 344.406C236.5 333.208 218.606 333.208 207.57 344.406C196.533 355.603 196.533 373.758 207.57 384.955C218.606 396.153 236.5 396.153 247.537 384.955Z" stroke="#022C40" stroke-width="2" stroke-linecap="round" stroke-linejoin="round"/>
<path d="M227.555 393.359C235.275 393.359 241.534 380.522 241.534 364.687C241.534 348.851 235.275 336.014 227.555 336.014C219.835 336.014 213.577 348.851 213.577 364.687C213.577 380.522 219.835 393.359 227.555 393.359Z" stroke="#022C40" stroke-width="2" stroke-linecap="round" stroke-linejoin="round"/>
<path d="M208.107 344.4C213.404 349.498 220.44 352.318 227.74 352.27C235.041 352.221 242.04 349.308 247.271 344.141" stroke="#022C40" stroke-width="2" stroke-linecap="round" stroke-linejoin="round"/>
<path d="M247.077 385.048C241.771 379.897 234.698 377.045 227.355 377.096C220.013 377.147 212.978 380.096 207.742 385.319" stroke="#022C40" stroke-width="2" stroke-linecap="round" stroke-linejoin="round"/>
<path d="M199.294 364.687H255.816" stroke="#022C40" stroke-width="2" stroke-linecap="round" stroke-linejoin="round"/>
<path d="M227.555 336.014V393.359" stroke="#022C40" stroke-width="2" stroke-linecap="round" stroke-linejoin="round"/>
<path d="M227.689 326.95V323.867" stroke="#022C40" stroke-linecap="round" stroke-linejoin="round"/>
<path d="M227.689 317.602V7.8501" stroke="#022C40" stroke-linecap="round" stroke-linejoin="round" stroke-dasharray="5.07 5.07"/>
<path d="M227.689 4.73006V1.64697" stroke="#022C40" stroke-linecap="round" stroke-linejoin="round"/>
<path d="M182.094 159.809C177.44 159.816 172.979 161.696 169.69 165.037C166.401 168.379 164.554 172.908 164.554 177.63C164.554 187.495 182.119 207.585 182.119 207.585C182.119 207.585 199.671 187.471 199.671 177.63C199.673 175.288 199.219 172.969 198.336 170.805C197.453 168.642 196.158 166.676 194.526 165.021C192.893 163.366 190.955 162.053 188.822 161.159C186.688 160.265 184.402 159.806 182.094 159.809ZM182.094 185.707C180.514 185.71 178.968 185.236 177.653 184.347C176.338 183.458 175.312 182.192 174.706 180.711C174.1 179.23 173.941 177.6 174.249 176.027C174.557 174.454 175.318 173.01 176.435 171.876C177.553 170.742 178.977 169.97 180.527 169.658C182.077 169.345 183.684 169.507 185.144 170.122C186.604 170.736 187.851 171.777 188.727 173.111C189.604 174.446 190.071 176.014 190.068 177.617C190.068 179.764 189.229 181.823 187.733 183.342C186.238 184.861 184.21 185.716 182.094 185.72V185.707Z" fill="#022C40" stroke="#022C40" stroke-linecap="round" stroke-linejoin="round"/>
<path d="M182.094 159.809V156.726" stroke="#022C40" stroke-linecap="round" stroke-linejoin="round"/>
<path d="M182.094 150.646V7.76367" stroke="#022C40" stroke-linecap="round" stroke-linejoin="round" stroke-dasharray="4.93 4.93"/>
<path d="M182.094 4.73006V1.64697" stroke="#022C40" stroke-linecap="round" stroke-linejoin="round"/>
<path d="M140.572 305.985H105.771C103.05 305.985 100.441 307.081 98.5166 309.033C96.5926 310.985 95.5117 313.633 95.5117 316.393V332.425C95.5117 335.186 96.5926 337.833 98.5166 339.785C100.441 341.737 103.05 342.834 105.771 342.834L106.123 358.989L117.063 342.834H140.596C143.317 342.834 145.926 341.737 147.85 339.785C149.774 337.833 150.855 335.186 150.855 332.425V316.393C150.855 315.024 150.589 313.669 150.072 312.405C149.555 311.14 148.797 309.992 147.842 309.025C146.886 308.058 145.753 307.292 144.505 306.77C143.258 306.248 141.921 305.982 140.572 305.985Z" fill="white" stroke="#022C40" stroke-linecap="round" stroke-linejoin="round"/>
<path d="M127.444 314.655H156.045C158.279 314.671 160.417 315.577 161.997 317.178C163.578 318.78 164.474 320.947 164.493 323.213V336.433C164.474 338.7 163.578 340.867 161.997 342.468C160.417 344.07 158.279 344.976 156.045 344.992L155.766 358.262L146.795 344.992H127.444C125.207 344.992 123.061 344.09 121.479 342.485C119.897 340.88 119.008 338.703 119.008 336.433V323.213C119.008 320.943 119.897 318.766 121.479 317.161C123.061 315.556 125.207 314.655 127.444 314.655Z" fill="#022C40" stroke="#022C40" stroke-linecap="round" stroke-linejoin="round"/>
<path d="M135.989 329.811C135.989 329.179 135.804 328.561 135.458 328.035C135.111 327.51 134.619 327.1 134.043 326.859C133.467 326.618 132.833 326.555 132.222 326.679C131.611 326.804 131.05 327.109 130.61 327.557C130.171 328.005 129.872 328.575 129.752 329.196C129.631 329.816 129.696 330.459 129.936 331.042C130.176 331.625 130.581 332.123 131.101 332.473C131.62 332.822 132.23 333.008 132.853 333.005C133.686 333.002 134.483 332.664 135.071 332.065C135.659 331.467 135.989 330.656 135.989 329.811Z" fill="#275F7A"/>
<path d="M142.59 333.005C144.328 333.005 145.738 331.575 145.738 329.811C145.738 328.047 144.328 326.617 142.59 326.617C140.851 326.617 139.441 328.047 139.441 329.811C139.441 331.575 140.851 333.005 142.59 333.005Z" fill="#275F7A"/>
<path d="M152.326 333.005C154.065 333.005 155.474 331.575 155.474 329.811C155.474 328.047 154.065 326.617 152.326 326.617C150.587 326.617 149.178 328.047 149.178 329.811C149.178 331.575 150.587 333.005 152.326 333.005Z" fill="#275F7A"/>
<path d="M133.57 294.701V291.618" stroke="#022C40" stroke-linecap="round" stroke-linejoin="round"/>
<path d="M133.57 285.538V8.87378" stroke="#022C40" stroke-linecap="round" stroke-linejoin="round" stroke-dasharray="4.93 4.93"/>
<path d="M133.57 5.82772V2.74463" stroke="#022C40" stroke-linecap="round" stroke-linejoin="round"/>
<path d="M120.588 204.107H59.1308V240.55H120.588V204.107Z" fill="white" stroke="#022C40" stroke-linecap="round" stroke-linejoin="round"/>
<path d="M59.1308 240.549L89.3855 212.21L120.6 240.549H59.1308Z" fill="white" stroke="#022C40" stroke-linecap="round" stroke-linejoin="round"/>
<path d="M59.1308 204.107L89.8717 222.335L120.6 204.107H59.1308Z" fill="white" stroke="#022C40" stroke-linecap="round" stroke-linejoin="round"/>
<path d="M89.3246 202.442V199.359" stroke="#022C40" stroke-linecap="round" stroke-linejoin="round"/>
<path d="M89.3246 193.576V150.153" stroke="#022C40" stroke-linecap="round" stroke-linejoin="round" stroke-dasharray="4.69 4.69"/>
<path d="M89.3246 147.267V144.184" stroke="#022C40" stroke-linecap="round" stroke-linejoin="round"/>
<path d="M105.759 91.5497C102.753 85.4309 97.9882 80.3814 92.0937 77.0686C86.1993 73.7558 79.4527 72.3356 72.7457 72.9958C66.0388 73.6559 59.6871 76.3653 54.5302 80.7659C49.3733 85.1664 45.654 91.051 43.8637 97.6419C43.3288 97.6419 42.794 97.5556 42.2591 97.5556C37.0767 97.4463 32.052 99.3672 28.2292 102.919C24.4064 106.471 22.0796 111.381 21.7322 116.628C21.3847 121.875 23.0435 127.056 26.3637 131.095C29.684 135.134 34.4103 137.719 39.5607 138.314V138.561H101.735C107.653 138.702 113.401 136.551 117.811 132.545C122.221 128.539 124.96 122.979 125.473 116.996C125.986 111.013 124.232 105.057 120.57 100.339C116.908 95.621 111.612 92.4958 105.759 91.599V91.5497Z" fill="white" stroke="#022C40" stroke-linecap="round" stroke-linejoin="round"/>
<path d="M75.9173 72.8416V69.7585" stroke="#022C40" stroke-linecap="round" stroke-linejoin="round"/>
<path d="M75.9173 63.7404V6.59229" stroke="#022C40" stroke-linecap="round" stroke-linejoin="round" stroke-dasharray="4.88 4.88"/>
<path d="M75.9173 3.58309V0.5" stroke="#022C40" stroke-linecap="round" stroke-linejoin="round"/>
<path d="M36.4123 292.839C35.019 292.844 33.6657 293.312 32.559 294.17L17.2554 282.516C17.54 281.782 17.6843 280.999 17.6808 280.21C17.6946 278.745 17.2188 277.318 16.3311 276.162C15.4433 275.006 14.1959 274.189 12.792 273.844C11.3881 273.499 9.91045 273.647 8.5998 274.263C7.28915 274.879 6.22272 275.927 5.57424 277.236C4.92576 278.546 4.73344 280.039 5.02863 281.474C5.32382 282.909 6.0891 284.2 7.19982 285.136C8.31054 286.073 9.70123 286.601 11.1453 286.634C12.5895 286.666 14.0019 286.202 15.1525 285.316L30.4561 296.958C30.1785 297.698 30.0344 298.484 30.0307 299.276C30.0334 300.065 30.1776 300.846 30.4561 301.582L15.1525 313.224C14.0058 312.343 12.5992 311.88 11.1609 311.912C9.72261 311.944 8.33707 312.467 7.22906 313.398C6.12105 314.329 5.35558 315.613 5.05684 317.04C4.75809 318.468 4.94361 319.956 5.58328 321.264C6.22296 322.571 7.27926 323.621 8.58081 324.243C9.88236 324.864 11.3528 325.022 12.7536 324.689C14.1543 324.356 15.4032 323.553 16.2976 322.41C17.192 321.267 17.6795 319.851 17.6808 318.391C17.6829 317.598 17.5386 316.812 17.2554 316.073L32.559 304.431C33.3664 305.049 34.3072 305.464 35.3037 305.641C36.3003 305.818 37.324 305.752 38.2904 305.449C39.2569 305.145 40.1384 304.613 40.8623 303.896C41.5862 303.179 42.1316 302.298 42.4537 301.325C42.7757 300.352 42.8652 299.315 42.7146 298.3C42.564 297.285 42.1777 296.321 41.5876 295.487C40.9975 294.653 40.2205 293.974 39.3207 293.505C38.4208 293.036 37.4239 292.791 36.4123 292.789V292.839Z" fill="#022C40"/>
<path d="M27.0041 80.3272V77.2441" stroke="#022C40" stroke-linecap="round" stroke-linejoin="round"/>
<path d="M27.0041 70.6218V7.72681" stroke="#022C40" stroke-linecap="round" stroke-linejoin="round" stroke-dasharray="5.37 5.37"/>
<path d="M27.0041 4.42171V1.33862" stroke="#022C40" stroke-linecap="round" stroke-linejoin="round"/>
<path d="M27.0041 279.125V276.042" stroke="#022C40" stroke-linecap="round" stroke-linejoin="round"/>
<path d="M27.0041 269.863V149.216" stroke="#022C40" stroke-linecap="round" stroke-linejoin="round" stroke-dasharray="5.02 5.02"/>
<path d="M27.0041 146.12V143.037" stroke="#022C40" stroke-linecap="round" stroke-linejoin="round"/>
<path d="M92.0961 470.535C100.608 470.535 107.509 452.171 107.509 429.518C107.509 406.865 100.608 388.501 92.0961 388.501C83.5838 388.501 76.6831 406.865 76.6831 429.518C76.6831 452.171 83.5838 470.535 92.0961 470.535Z" fill="#275F7A" stroke="#022C40" stroke-miterlimit="10"/>
<path d="M139.985 404.245C144.804 388.861 143.358 374.665 136.755 372.536C130.153 370.407 120.894 381.152 116.075 396.536C111.256 411.92 112.702 426.117 119.305 428.246C125.908 430.374 135.166 419.629 139.985 404.245Z" fill="#275F7A" stroke="#022C40" stroke-miterlimit="10"/>
<path d="M26.8946 497.001C11.2021 494.3 -0.57649 486.494 0.57827 479.575C1.73303 472.657 15.3957 469.216 31.0761 471.904C46.7565 474.593 58.5472 482.412 57.3924 489.33C56.2377 496.248 42.575 499.689 26.8946 497.001Z" fill="#275F7A" stroke="#022C40" stroke-miterlimit="10"/>
<path d="M154.502 459.079C141.398 472.262 125.912 477.984 119.92 471.843C113.927 465.701 119.689 450.051 132.792 436.868C145.896 423.685 161.382 417.963 167.374 424.104C173.367 430.246 167.605 445.895 154.502 459.079Z" fill="#275F7A" stroke="#022C40" stroke-miterlimit="10"/>
<path d="M64.1996 422.908C76.8776 441.567 80.6822 461.224 72.6354 466.823C64.5886 472.422 47.8628 461.853 35.1847 443.17C22.5067 424.486 18.6899 404.94 26.7489 399.279C34.8079 393.618 51.5094 404.261 64.1996 422.908Z" fill="#275F7A" stroke="#022C40" stroke-miterlimit="10"/>
<path d="M93.1778 468.488L94.3691 524.884" stroke="#022C40" stroke-miterlimit="10" stroke-linecap="round"/>
<path d="M91.7436 414.263L93.1779 468.488" stroke="#022C40" stroke-miterlimit="10" stroke-linecap="round"/>
<path d="M91.8407 405.421L91.7436 409.577" stroke="#022C40" stroke-miterlimit="10" stroke-linecap="round"/>
<path d="M72.5746 464.135C81.4181 482.666 86.5927 502.778 87.8052 523.33" stroke="#022C40" stroke-miterlimit="10" stroke-linecap="round"/>
<path d="M46.1002 423.068C56.6764 435.509 65.5789 449.318 72.5746 464.135" stroke="#022C40" stroke-miterlimit="10" stroke-linecap="round"/>
<path d="M37.7737 414.127C37.7737 414.127 39.366 415.619 41.9916 418.444" stroke="#022C40" stroke-miterlimit="10" stroke-linecap="round"/>
<path d="M120.88 469.956C110.069 485.332 101.641 502.296 95.8885 520.259" stroke="#022C40" stroke-miterlimit="10" stroke-linecap="round"/>
<path d="M138.603 449.336C132.077 455.654 126.144 462.574 120.88 470.005" stroke="#022C40" stroke-miterlimit="10" stroke-linecap="round"/>
<path d="M157.541 434.636C152.721 437.414 148.196 440.687 144.036 444.403" stroke="#022C40" stroke-miterlimit="10" stroke-linecap="round"/>
<path d="M120.224 424.412C111.715 451.679 100.228 491.957 94.8797 526.931" stroke="#022C40" stroke-miterlimit="10" stroke-linecap="round"/>
<path d="M125.426 408.245C123.907 412.845 122.144 418.296 120.224 424.412" stroke="#022C40" stroke-miterlimit="10" stroke-linecap="round"/>
<path d="M130.762 392.607C130.762 392.607 129.267 396.788 126.86 403.941" stroke="#022C40" stroke-miterlimit="10" stroke-linecap="round"/>
<path d="M56.6024 485.556C67.2748 489.663 77.6798 497.58 82.7486 512.576" stroke="#022C40" stroke-miterlimit="10" stroke-linecap="round"/>
<path d="M36.9228 481.487C43.6543 481.837 50.296 483.209 56.6267 485.556" stroke="#022C40" stroke-miterlimit="10" stroke-linecap="round"/>
<path d="M24.1233 481.808C24.1233 481.808 26.0195 481.536 29.1556 481.413" stroke="#022C40" stroke-miterlimit="10" stroke-linecap="round"/>
<path d="M161.151 497.001C176.843 494.3 188.622 486.494 187.467 479.575C186.312 472.657 172.65 469.216 156.957 471.904C141.265 474.593 129.498 482.412 130.653 489.33C131.808 496.248 145.458 499.689 161.151 497.001Z" fill="#275F7A" stroke="#022C40" stroke-miterlimit="10"/>
<path d="M131.735 485.433C120.941 489.49 110.365 497.42 105.248 512.564" stroke="#022C40" stroke-miterlimit="10" stroke-linecap="round"/>
<path d="M152.8 481.4C145.612 481.607 138.502 482.968 131.735 485.433" stroke="#022C40" stroke-miterlimit="10" stroke-linecap="round"/>
<path d="M163.91 481.808C163.91 481.808 162.694 481.635 160.519 481.499" stroke="#022C40" stroke-miterlimit="10" stroke-linecap="round"/>
<path d="M131.552 560.5C136.299 550.415 138.789 539.39 138.846 528.214C138.853 521.525 137.869 514.874 135.928 508.482H53.8309C51.8839 514.873 50.9003 521.525 50.9136 528.214C50.9756 539.389 53.4658 550.413 58.2068 560.5H131.552Z" fill="#022C40"/>
<path d="M51.716 517.707C51.485 519.224 51.3027 520.753 51.169 522.319H138.578C138.444 520.753 138.262 519.224 138.031 517.707H51.716Z" fill="#7A7A7A"/>
<path d="M137.654 541.286C137.922 539.757 138.165 538.215 138.347 536.674H51.4121C51.5944 538.215 51.8254 539.757 52.105 541.286H137.654Z" fill="#7A7A7A"/>
<path d="M61.5254 528.473C61.5254 529.183 61.3179 529.876 60.9293 530.467C60.5406 531.057 59.9881 531.517 59.3418 531.788C58.6955 532.06 57.9842 532.131 57.2981 531.993C56.6119 531.854 55.9817 531.512 55.487 531.01C54.9923 530.509 54.6554 529.869 54.5189 529.173C54.3824 528.477 54.4525 527.755 54.7202 527.1C54.9879 526.444 55.4413 525.883 56.023 525.489C56.6047 525.095 57.2886 524.884 57.9882 524.884C58.9253 524.887 59.8231 525.267 60.4858 525.939C61.1485 526.611 61.5222 527.522 61.5254 528.473Z" fill="#8C8C8C"/>
<path d="M79.2114 528.473C79.2114 529.183 79.0039 529.876 78.6152 530.467C78.2266 531.057 77.6741 531.517 77.0278 531.788C76.3814 532.06 75.6702 532.131 74.9841 531.993C74.2979 531.854 73.6676 531.512 73.173 531.01C72.6783 530.509 72.3414 529.869 72.2049 529.173C72.0684 528.477 72.1385 527.755 72.4062 527.1C72.6739 526.444 73.1273 525.883 73.709 525.489C74.2907 525.095 74.9745 524.884 75.6741 524.884C76.6123 524.884 77.512 525.262 78.1753 525.935C78.8387 526.608 79.2114 527.521 79.2114 528.473Z" fill="#8C8C8C"/>
<path d="M96.8973 528.473C96.8973 529.183 96.6899 529.876 96.3012 530.467C95.9125 531.057 95.3601 531.517 94.7138 531.788C94.0674 532.06 93.3562 532.131 92.6701 531.993C91.9839 531.854 91.3536 531.512 90.859 531.01C90.3643 530.509 90.0274 529.869 89.8909 529.173C89.7544 528.477 89.8245 527.755 90.0922 527.1C90.3599 526.444 90.8133 525.883 91.395 525.489C91.9767 525.095 92.6605 524.884 93.3601 524.884C94.2983 524.884 95.198 525.262 95.8613 525.935C96.5247 526.608 96.8973 527.521 96.8973 528.473Z" fill="#8C8C8C"/>
<path d="M111.046 532.062C113 532.062 114.583 530.455 114.583 528.473C114.583 526.491 113 524.884 111.046 524.884C109.093 524.884 107.509 526.491 107.509 528.473C107.509 530.455 109.093 532.062 111.046 532.062Z" fill="#8C8C8C"/>
<path d="M132.27 528.473C132.27 529.183 132.062 529.876 131.673 530.467C131.285 531.057 130.732 531.517 130.086 531.788C129.44 532.06 128.728 532.131 128.042 531.993C127.356 531.854 126.726 531.512 126.231 531.01C125.736 530.509 125.4 529.869 125.263 529.173C125.127 528.477 125.197 527.755 125.464 527.1C125.732 526.444 126.185 525.883 126.767 525.489C127.349 525.095 128.033 524.884 128.732 524.884C129.67 524.884 130.57 525.262 131.234 525.935C131.897 526.608 132.27 527.521 132.27 528.473Z" fill="#8C8C8C"/>
<path d="M517.85 279.248C516.623 279.105 515.39 279.459 514.418 280.232C513.446 281.006 512.815 282.136 512.659 283.379L489.102 468.044L504.442 469.795L522.007 284.452C522.123 283.206 521.753 281.962 520.976 280.989C520.198 280.016 519.076 279.391 517.85 279.248Z" fill="#022C40" stroke="#022C40" stroke-linecap="round" stroke-linejoin="round"/>
<path d="M280.966 279.248C282.193 279.105 283.426 279.459 284.398 280.232C285.369 281.006 286.001 282.136 286.156 283.379L309.738 468.044L294.398 469.795L276.809 284.452C276.693 283.206 277.063 281.962 277.84 280.989C278.617 280.016 279.74 279.391 280.966 279.248Z" fill="#022C40" stroke="#022C40" stroke-linecap="round" stroke-linejoin="round"/>
<path d="M544.944 464.32H305.155C302.074 464.32 299.576 466.854 299.576 469.98V554.827C299.576 557.953 302.074 560.488 305.155 560.488H544.944C548.025 560.488 550.523 557.953 550.523 554.827V469.98C550.523 466.854 548.025 464.32 544.944 464.32Z" fill="white" stroke="#022C40" stroke-linecap="round" stroke-linejoin="round"/>
<path d="M550.766 476.184H299.333C296.533 476.184 294.264 478.486 294.264 481.326V543.506C294.264 546.346 296.533 548.649 299.333 548.649H550.766C553.566 548.649 555.835 546.346 555.835 543.506V481.326C555.835 478.486 553.566 476.184 550.766 476.184Z" fill="white" stroke="#022C40" stroke-linecap="round" stroke-linejoin="round"/>
<path d="M413.338 464.32H173.549C170.468 464.32 167.97 466.854 167.97 469.98V554.827C167.97 557.953 170.468 560.488 173.549 560.488H413.338C416.419 560.488 418.917 557.953 418.917 554.827V469.98C418.917 466.854 416.419 464.32 413.338 464.32Z" fill="white" stroke="#022C40" stroke-linecap="round" stroke-linejoin="round"/>
<path d="M419.16 476.184H167.727C164.927 476.184 162.658 478.486 162.658 481.326V543.506C162.658 546.346 164.927 548.649 167.727 548.649H419.16C421.96 548.649 424.229 546.346 424.229 543.506V481.326C424.229 478.486 421.96 476.184 419.16 476.184Z" fill="white" stroke="#022C40" stroke-linecap="round" stroke-linejoin="round"/>
<path d="M398.387 492.068H190.749C187.386 492.068 184.659 494.834 184.659 498.246V524.835C184.659 528.247 187.386 531.013 190.749 531.013H398.387C401.75 531.013 404.477 528.247 404.477 524.835V498.246C404.477 494.834 401.75 492.068 398.387 492.068Z" fill="#022C40" stroke="#022C40" stroke-linecap="round" stroke-linejoin="round"/>
<path d="M196.875 501.502C194.682 502.392 192.862 504.027 191.725 506.127C190.588 508.227 190.205 510.663 190.641 513.018C191.077 515.373 192.305 517.501 194.115 519.04C195.926 520.579 198.206 521.432 200.568 521.455C202.93 521.477 205.226 520.667 207.065 519.164C208.903 517.66 210.171 515.555 210.65 513.209C211.129 510.862 210.791 508.42 209.694 506.299C208.596 504.177 206.806 502.508 204.63 501.576" stroke="#275F7A" stroke-width="3" stroke-miterlimit="10" stroke-linecap="round"/>
<path d="M200.765 497.494V505.152" stroke="#275F7A" stroke-width="3" stroke-miterlimit="10" stroke-linecap="round"/>
<path d="M319.742 522.381C319.742 522.381 309.811 525.55 307.708 525.957C305.605 526.364 299.199 524.724 298.944 527.19C298.689 529.657 302.663 532.037 308.899 534.59C315.135 537.142 321.978 539.227 326.622 539.017C331.265 538.807 330.378 529.521 330.633 527.918C330.888 526.315 319.742 522.381 319.742 522.381Z" fill="white" stroke="#022C40" stroke-linecap="round" stroke-linejoin="round"/>
<path d="M312.157 532.345C304.389 529.089 300.767 527.412 299.187 526.611C299.043 526.789 298.958 527.009 298.944 527.24C298.749 529.817 302.663 532.086 308.899 534.639C315.135 537.192 321.978 539.276 326.622 539.066C328.36 538.98 329.32 537.636 329.855 535.897C323.779 535.942 317.758 534.734 312.157 532.345Z" fill="white" stroke="#022C40" stroke-linecap="round" stroke-linejoin="round"/>
<path d="M380.093 427.816L377.492 429.259V433.094C377.492 433.094 323.242 442.27 322.537 447.067C321.832 451.864 319.681 523.232 319.681 523.232C319.681 523.232 328.433 532.789 330.317 530.631C332.201 528.473 332.687 521.554 332.687 521.554L341.682 458.339C341.682 458.339 402.787 464.036 412.013 461.15C421.239 458.265 425.724 445.809 425.955 440.05C426.186 434.291 426.198 431.651 426.198 431.651L384.566 425.905L380.093 427.816Z" fill="#275F7A" stroke="#022C40" stroke-linecap="round" stroke-linejoin="round"/>
<path d="M361.653 524.958L361.264 525.612C359.302 528.791 357.061 531.783 354.567 534.553C350.543 538.869 343.931 542.47 344.162 543.901C344.393 545.331 348.89 546.306 364.255 541.508C371.171 539.35 376.313 539.35 377.018 536.945C377.723 534.54 372.058 524.243 372.058 524.243L361.653 524.958Z" fill="white" stroke="#022C40" stroke-linecap="round" stroke-linejoin="round"/>
<path d="M377.018 536.896C377.106 535.735 376.897 534.571 376.41 533.517C371.215 536.023 365.803 538.038 360.243 539.535C355.217 540.947 350.093 541.974 344.915 542.606C344.405 543.111 344.113 543.543 344.162 543.839C344.393 545.282 348.89 546.244 364.255 541.446C371.195 539.362 376.313 539.362 377.018 536.896Z" fill="white" stroke="#022C40" stroke-linecap="round" stroke-linejoin="round"/>
<path d="M394.996 438.126C394.996 438.126 389.319 433.094 388.845 435.968C388.371 438.841 387.423 439.569 387.423 439.569C387.423 439.569 347.711 444.403 343.238 447.24C338.765 450.076 337.331 453.961 339.932 459.72C342.533 465.479 360.025 528.559 360.025 528.559C361.846 529.394 363.749 530.034 365.701 530.471C368.302 530.952 373.736 528.312 373.736 528.312C373.736 528.312 373.079 516.56 371.426 512.724C369.773 508.889 363.003 464.628 363.003 464.628C363.003 464.628 391.701 464.739 401.401 464.739C411.101 464.739 421.725 456.587 423.852 449.866C425.98 443.145 425.068 441.715 425.068 441.715" fill="#275F7A"/>
<path d="M394.996 438.126C394.996 438.126 389.319 433.094 388.845 435.968C388.371 438.841 387.423 439.569 387.423 439.569C387.423 439.569 347.711 444.403 343.238 447.24C338.765 450.076 337.331 453.961 339.932 459.72C342.533 465.479 360.025 528.559 360.025 528.559C361.846 529.394 363.749 530.034 365.701 530.471C368.302 530.952 373.736 528.312 373.736 528.312C373.736 528.312 373.079 516.56 371.426 512.724C369.773 508.889 363.003 464.628 363.003 464.628C363.003 464.628 391.701 464.739 401.401 464.739C411.101 464.739 421.725 456.587 423.852 449.866C425.98 443.145 425.068 441.715 425.068 441.715" stroke="#022C40" stroke-linecap="round" stroke-linejoin="round"/>
<path d="M362.978 464.641L361.605 457.093" stroke="#022C40" stroke-linecap="round" stroke-linejoin="round"/>
<path d="M408.111 448.732C408.872 449.808 409.489 450.981 409.947 452.222" stroke="#022C40" stroke-linecap="round" stroke-linejoin="round"/>
<path d="M397.305 440.407C400.803 441.872 403.965 444.056 406.592 446.82" stroke="#022C40" stroke-linecap="round" stroke-linejoin="round"/>
<path d="M406.288 441.764C409.944 443.463 412.974 446.296 414.942 449.854" stroke="#022C40" stroke-linecap="round" stroke-linejoin="round"/>
<path d="M380.676 368.954C380.676 368.954 380.676 369.299 380.616 369.891C380.409 373.282 376.702 378.326 378.914 384.69C383.934 399.045 382.913 409.589 382.463 406.518C383.168 411.315 378.914 421.625 378.914 425.017C378.914 428.408 370.162 428.877 390.024 434.883C409.886 440.888 416.766 440.617 421.701 438.693C426.636 436.769 430.209 435.092 430.684 431.022C431.158 426.953 426.903 419.751 426.672 413.511C426.441 407.27 425.59 387.748 419.683 375.28C413.775 362.812 398.168 354.167 398.168 354.167L380.676 368.954Z" fill="white" stroke="#022C40" stroke-linecap="round" stroke-linejoin="round"/>
<path d="M411.794 416.039C412.827 415.237 413.788 414.423 414.675 413.572" stroke="#022C40" stroke-linecap="round" stroke-linejoin="round"/>
<path d="M386.876 430.147C394.198 426.882 401.265 423.056 408.014 418.703" stroke="#022C40" stroke-linecap="round" stroke-linejoin="round"/>
<path d="M394.497 428.766C391.688 430.191 388.749 431.336 385.721 432.182" stroke="#022C40" stroke-linecap="round" stroke-linejoin="round"/>
<path d="M398.338 426.657C398.338 426.657 397.67 427.076 396.551 427.693" stroke="#022C40" stroke-linecap="round" stroke-linejoin="round"/>
<path d="M401.608 394.95L407.99 387.045" stroke="#022C40" stroke-linecap="round" stroke-linejoin="round"/>
<path d="M378.489 315.764C376.889 317.459 375.463 319.314 374.234 321.302C373.201 323.373 373.019 324.878 371.256 326.234C369.494 327.591 365.847 326.715 365.944 328.849C366.041 330.982 368.229 333.017 368.229 333.017C368.229 333.017 366.455 346.04 367.123 348.112C367.792 350.184 376.981 350.579 376.981 350.579L381.661 366.043L398.18 354.685L398.618 350.184C399.031 348.359 401.997 342.71 404.452 338.468C406.908 334.226 405.814 323.053 399.882 318.243C393.95 313.433 386.098 313.927 383.679 313.754C381.26 313.581 378.489 315.764 378.489 315.764Z" fill="white" stroke="#022C40" stroke-linecap="round" stroke-linejoin="round"/>
<path d="M369.299 335.533C370.079 336.324 371.063 336.875 372.138 337.124C373.213 337.373 374.336 337.309 375.377 336.939" stroke="#022C40" stroke-linecap="round" stroke-linejoin="round"/>
<path d="M376.325 327.702C375.924 328.652 375.292 329.281 374.915 329.12C374.538 328.96 374.562 328.047 374.976 327.098C375.389 326.148 376.009 325.519 376.374 325.679C376.738 325.84 376.726 326.752 376.325 327.702Z" fill="#022C40"/>
<path d="M375.681 322.991C375.681 322.991 379.242 322.276 379.777 325.852" stroke="#022C40" stroke-linecap="round" stroke-linejoin="round"/>
<path d="M376.921 350.517L382.646 350.295L378.72 355.154L376.921 350.517Z" fill="#022C40" stroke="#022C40" stroke-linecap="round" stroke-linejoin="round"/>
<path d="M389.988 344.499L387.508 343.746L386.037 346.089" stroke="#022C40" stroke-linecap="round" stroke-linejoin="round"/>
<path d="M388.602 310.042C388.602 310.042 392.175 305.874 387.885 303.876C383.594 301.878 368.995 305.491 370.563 311.991C372.131 318.49 385.757 319.316 387.058 319.39C388.359 319.464 384.457 320.895 385.527 322.868C386.596 324.841 389.173 325.827 389.307 327.961C389.441 330.094 386.876 332.956 388.091 334.201C389.307 335.447 391.252 333.585 392.492 333.104C393.731 332.623 397.123 336.088 394.449 340.503C391.774 344.918 389.975 344.462 389.975 344.462C389.661 345.274 389.609 346.168 389.828 347.012C390.046 347.857 390.524 348.609 391.191 349.16C393.622 351.244 398.484 350.628 399.7 348.605C400.915 346.583 403.018 344.758 407.394 340.392C411.77 336.026 413.848 325.001 410.822 317.392C407.795 309.783 394.072 306.688 388.602 310.042Z" fill="#022C40" stroke="#022C40" stroke-linecap="round" stroke-linejoin="round"/>
<path d="M398.119 350.542L375.596 367.375L376.884 374.639L402.24 355.684L398.119 350.542Z" fill="white" stroke="#022C40" stroke-linecap="round" stroke-linejoin="round"/>
<path d="M341.889 448.695L381.564 439.877L372.289 434.291L334.644 442.812L341.889 448.695Z" fill="white" stroke="#022C40" stroke-linecap="round" stroke-linejoin="round"/>
<path d="M324.227 410.501L341.889 448.695L334.644 442.812L316.691 406.974L324.227 410.501Z" fill="#022C40" stroke="#022C40" stroke-linecap="round" stroke-linejoin="round"/>
<path d="M356.135 432.453L346.994 434.846L341.33 443.17C341.557 443.394 341.828 443.566 342.126 443.677C342.423 443.787 342.74 443.833 343.056 443.811C344.004 443.651 346.52 441.406 346.52 441.406L353.145 439.643C353.145 439.643 349.68 441.727 349.68 442.208C349.68 442.689 350.312 442.849 351.88 442.689C353.449 442.529 357.241 438.989 357.241 438.989L359.769 435.783L356.135 432.453Z" fill="white" stroke="#022C40" stroke-linecap="round" stroke-linejoin="round"/>
<path d="M380.834 390.807L376.155 412.462L356.135 432.453L360.863 436.93L377.492 429.259L378.646 426.213L382.658 408.072L380.834 390.807Z" fill="white" stroke="#022C40" stroke-linecap="round" stroke-linejoin="round"/>
<path d="M350.592 428.087C350.592 428.087 344.21 429.049 341.852 429.049C339.494 429.049 333.818 429.53 332.869 430.011C331.921 430.492 327.424 433.366 327.667 435.524C327.91 437.682 331.921 435.77 331.921 435.77C332.755 437.711 333.786 439.559 334.997 441.283C336.881 443.922 337.829 442.96 341.609 441.53C345.389 440.099 351.066 435.77 351.066 435.77L354.384 432.65L350.592 428.087Z" fill="white" stroke="#022C40" stroke-linecap="round" stroke-linejoin="round"/>
<path d="M406.106 360.654C406.106 360.654 396.381 359.211 392.868 364.009C388.833 369.795 386.163 376.444 385.065 383.444C384.347 389.672 379.862 402.152 379.862 402.152L349.802 427.545L355.004 435.45C355.004 435.45 391.47 418.185 392.394 417.025C393.318 415.866 405.388 384.16 405.388 384.16" fill="white"/>
<path d="M406.106 360.654C406.106 360.654 396.381 359.211 392.868 364.009C388.833 369.795 386.163 376.444 385.065 383.444C384.347 389.672 379.862 402.152 379.862 402.152L349.802 427.545L355.004 435.45C355.004 435.45 391.47 418.185 392.394 417.025C393.318 415.866 405.388 384.16 405.388 384.16" stroke="#022C40" stroke-linecap="round" stroke-linejoin="round"/>
<path d="M13.22 560.5H572.5" stroke="#022C40" stroke-linecap="round" stroke-linejoin="round"/>
</svg>
