<svg width="40" height="40" viewBox="0 0 40 40" fill="none" xmlns="http://www.w3.org/2000/svg">
<g clip-path="url(#clip0_2_1022)">
<path d="M29.1723 0H10.8276C4.85717 0 0 4.75203 0 10.5933V28.5412C0 34.3821 4.85717 39.1341 10.8276 39.1341H29.1726C35.1428 39.1341 39.9999 34.3821 39.9999 28.5412V10.5933C39.9999 4.75203 35.1428 0 29.1723 0V0ZM37.655 28.5412C37.655 33.117 33.8497 36.8399 29.1723 36.8399H10.8276C6.1502 36.8399 2.34497 33.117 2.34497 28.5412V10.5933C2.34497 6.01707 6.1502 2.29421 10.8276 2.29421H29.1726C33.8497 2.29421 37.655 6.01707 37.655 10.5933V28.5412Z" fill="white"/>
<path d="M20 8.86658C13.9691 8.86658 9.06279 13.6667 9.06279 19.567C9.06279 25.4673 13.9691 30.2675 20 30.2675C26.0308 30.2675 30.9371 25.4673 30.9371 19.567C30.9371 13.6667 26.0308 8.86658 20 8.86658ZM20 27.9732C15.2624 27.9732 11.4078 24.2023 11.4078 19.567C11.4078 14.932 15.2624 11.1608 20 11.1608C24.7378 11.1608 28.5922 14.932 28.5922 19.567C28.5922 24.2023 24.7378 27.9732 20 27.9732Z" fill="white"/>
<path d="M31.1987 5.06641C29.4164 5.06641 27.9669 6.48491 27.9669 8.22826C27.9669 9.97191 29.4164 11.3904 31.1987 11.3904C32.9809 11.3904 34.4308 9.97191 34.4308 8.22826C34.4308 6.48461 32.9809 5.06641 31.1987 5.06641ZM31.1987 9.0959C30.7098 9.0959 30.3118 8.70657 30.3118 8.22826C30.3118 7.74965 30.7098 7.36062 31.1987 7.36062C31.6879 7.36062 32.0858 7.74965 32.0858 8.22826C32.0858 8.70657 31.6879 9.0959 31.1987 9.0959Z" fill="white"/>
</g>
<defs>
<clipPath id="clip0_2_1022">
<rect width="40" height="39.1342" fill="white"/>
</clipPath>
</defs>
</svg>
