<svg width="70" height="70" viewBox="0 0 70 70" fill="none" xmlns="http://www.w3.org/2000/svg">
<path d="M59.7917 59.7917C59.2499 60.3341 58.6066 60.7643 57.8984 61.0579C57.1902 61.3514 56.4312 61.5025 55.6646 61.5025C54.898 61.5025 54.1389 61.3514 53.4308 61.0579C52.7226 60.7643 52.0793 60.3341 51.5375 59.7917L36.3417 44.5959C32.3274 46.6381 27.7235 47.2059 23.3333 46.2C19.4424 45.2935 15.9373 43.1809 13.3184 40.1639C10.6995 37.147 9.10061 33.3797 8.74999 29.4C8.42372 25.9155 9.0805 22.4093 10.6458 19.2792L23.3333 32.0834L30.625 30.625L32.0833 23.3334L19.2792 10.7334C22.4006 9.1379 25.9072 8.45073 29.4 8.75002C33.3797 9.10064 37.1469 10.6995 40.1639 13.3184C43.1809 15.9374 45.2935 19.4424 46.2 23.3334C47.1777 27.6865 46.6106 32.2442 44.5958 36.225L59.7917 51.4209C60.3517 51.9646 60.797 52.6152 61.101 53.3341C61.4051 54.053 61.5617 54.8257 61.5617 55.6063C61.5617 56.3869 61.4051 57.1595 61.101 57.8784C60.797 58.5974 60.3517 59.248 59.7917 59.7917V59.7917Z" stroke="white" stroke-width="4" stroke-linecap="round" stroke-linejoin="round"/>
</svg>
