<svg width="248" height="229" viewBox="0 0 248 229" fill="none" xmlns="http://www.w3.org/2000/svg">
<path d="M10.8773 25.6601C12.8399 26.457 17.639 26.3592 17.6443 26.3592C17.6495 26.3592 16.5976 23.426 16.5243 23.2451C15.4671 21.1869 12.1333 17.804 9.43806 18.1266C8.98819 18.1933 8.55842 18.3478 8.17682 18.5801C7.79521 18.8124 7.47033 19.1173 7.22339 19.4748C6.97646 19.8323 6.81301 20.2345 6.74372 20.655C6.67444 21.0756 6.70086 21.505 6.82128 21.9154C7.2766 23.6704 9.20255 24.9757 10.8773 25.6601Z" fill="#275F7A"/>
<path d="M59.4447 26.6426C59.4866 26.6426 60.3187 23.6654 60.3501 23.4698C60.6851 21.2063 59.9157 16.6549 57.4507 15.5452C57.0363 15.3712 56.5874 15.2807 56.1331 15.2793C55.6788 15.278 55.2292 15.3659 54.8136 15.5374C54.3981 15.7089 54.0258 15.9601 53.7209 16.2748C53.416 16.5895 53.1854 16.9605 53.0441 17.3638C52.3846 19.0602 53.222 21.1428 54.2164 22.5703C55.3782 24.252 59.4447 26.6426 59.4447 26.6426Z" fill="#275F7A"/>
<path d="M73.7795 10.388C71.058 10.1142 67.8289 13.5999 66.8345 15.6825C66.7456 15.8634 65.7512 18.8259 65.7878 18.8259H65.8454C65.322 19.3686 64.7987 19.9601 64.2021 20.6201C63.1553 21.8374 61.9464 23.2258 60.7636 24.8195C59.4627 26.5218 58.2708 28.2947 57.1943 30.1286C55.9746 32.175 54.9552 34.3201 54.1484 36.5377C54.1484 36.5622 54.1484 36.5915 54.1484 36.616C54.1484 35.868 54.1484 33.7756 54.1065 33.6143C53.7925 31.3508 51.7619 27.1514 49.0718 26.687C48.6214 26.6198 48.1608 26.6422 47.7202 26.7527C47.2797 26.8633 46.8691 27.0596 46.5153 27.3286C46.1616 27.5977 45.8726 27.9335 45.6675 28.3141C45.4623 28.6947 45.3454 29.1114 45.3246 29.5371C45.1676 31.3362 46.565 33.1352 47.9414 34.2694C49.4748 35.5502 53.7349 36.792 54.0751 36.8848C53.3107 39.1606 52.7093 41.4813 52.2748 43.8317C52.0131 45.1957 51.7933 46.5792 51.5944 47.9724C51.5944 47.3222 51.5944 46.7454 51.5578 46.6672C51.2438 44.4037 49.2131 40.1994 46.5231 39.735C46.0742 39.67 45.6157 39.694 45.1774 39.8053C44.7391 39.9167 44.3308 40.1129 43.9789 40.3812C43.627 40.6495 43.3394 40.9839 43.1349 41.3627C42.9303 41.7416 42.8134 42.1564 42.7916 42.5802C42.6346 44.3792 44.0267 46.1783 45.4084 47.3125C46.79 48.4467 50.3645 49.5808 51.3066 49.8742C51.2385 50.407 51.16 50.9399 51.092 51.4728C50.7623 54.0393 50.4483 56.601 50.0453 59.104C49.9092 59.984 49.7365 60.8493 49.569 61.7146C49.569 61.1378 49.569 60.6538 49.5376 60.5804C49.2236 58.317 47.193 54.1176 44.5029 53.6531C44.0538 53.5866 43.5947 53.6095 43.1557 53.7202C42.7167 53.8309 42.3077 54.027 41.9554 54.2956C41.6031 54.5642 41.3156 54.8992 41.1115 55.2788C40.9075 55.6584 40.7916 56.074 40.7714 56.4984C40.6092 58.2925 42.0065 60.0965 43.3882 61.2306C44.7699 62.3648 48.0304 63.3963 49.1451 63.7386C48.9462 64.6234 48.7474 65.5034 48.5119 66.3491C48.3391 66.9211 48.2083 67.4882 47.9885 68.0553C47.7687 68.6224 47.6012 69.1797 47.4076 69.7321C46.9994 70.7881 46.5807 71.8783 46.1515 72.9C45.8584 73.6138 45.5654 74.2835 45.2775 74.963C45.4241 74.088 45.6753 72.3671 45.6805 72.2205C45.6501 70.2117 45.068 68.2439 43.9901 66.5056C43.9996 66.2816 43.9856 66.0572 43.9482 65.8358C43.8907 65.4179 43.7405 65.0159 43.5071 64.6554C43.2737 64.2949 42.9623 63.9839 42.5928 63.7423C42.2233 63.5007 41.8039 63.3338 41.3614 63.2523C40.9189 63.1709 40.463 63.1766 40.023 63.2692C37.4062 63.9243 35.7053 68.2606 35.5797 70.5388C35.5797 70.6756 35.6687 72.1423 35.742 73.0662C35.6111 72.5285 35.4855 72.0054 35.3442 71.4529C35.0668 70.3628 34.7528 69.2775 34.4231 68.114L33.8998 66.4225C33.7271 65.8554 33.4706 65.2785 33.2613 64.6967C32.7379 63.3621 32.1361 62.0324 31.5028 60.7027C32.5233 60.4729 36.145 59.6125 37.5999 58.5712C39.0548 57.5299 40.583 55.8335 40.5673 54.0296C40.5798 53.6053 40.4965 53.1832 40.3228 52.791C40.149 52.3988 39.8887 52.0452 39.5589 51.7532C39.2291 51.4613 38.837 51.2375 38.4084 51.0965C37.9798 50.9555 37.5242 50.9005 37.0713 50.935C34.3498 51.2088 31.9895 55.2566 31.4976 57.4957C31.4662 57.6325 31.3039 59.2752 31.2359 60.1747C30.8486 59.3827 30.4666 58.5858 30.0426 57.7939C28.8284 55.506 27.5201 53.2278 26.2274 50.9497C25.8296 50.2506 25.4476 49.5515 25.0551 48.8524C25.4214 48.7742 29.7653 47.8356 31.3772 46.6672C32.8269 45.6308 34.3603 43.9344 34.3498 42.1304C34.3616 41.7057 34.2775 41.2834 34.1032 40.891C33.9289 40.4985 33.6683 40.1447 33.3381 39.8524C33.008 39.5602 32.6157 39.336 32.1868 39.1945C31.758 39.053 31.302 38.9973 30.8486 39.031C28.1324 39.3096 25.772 43.3575 25.2749 45.5916C25.2382 45.7579 25.0132 48.1191 24.987 48.7253C24.0921 47.1903 23.2704 45.6699 22.522 44.0957C21.4844 42.004 20.5928 39.8517 19.8529 37.6524C20.0256 37.6181 24.5631 36.6746 26.2169 35.4622C27.6614 34.4209 29.2 32.7245 29.1843 30.9206C29.1964 30.4943 29.1119 30.0704 28.9363 29.6767C28.7607 29.283 28.498 28.9284 28.1654 28.6363C27.8328 28.3441 27.4379 28.1208 27.0065 27.9812C26.5751 27.8416 26.117 27.7887 25.6621 27.8261C22.9407 28.0998 20.5804 32.1477 20.0884 34.3818C20.057 34.5285 19.8791 36.3373 19.8163 37.1879H19.6593C18.9791 34.9496 18.5132 32.6592 18.2671 30.3437C18.1154 29.0727 18.0473 27.8554 18.0055 26.6625C18.8585 26.6039 22.8151 26.115 24.4427 25.191C26.0704 24.2671 27.7556 22.776 27.9283 20.9819C27.9878 20.5622 27.9524 20.1356 27.8244 19.7296C27.6964 19.3236 27.4786 18.9471 27.1851 18.6246C26.8916 18.3021 26.529 18.0407 26.1206 17.8573C25.7123 17.6739 25.2672 17.5725 24.8143 17.5598C22.0772 17.5598 19.2563 21.3387 18.5026 23.5093C18.466 23.6266 18.1886 24.8684 17.9793 25.7777C17.9793 25.2399 17.9479 24.6875 17.9479 24.1693C17.9479 22.2383 18.084 20.4685 18.2148 18.9042C18.2933 18.0144 18.3875 17.2078 18.4817 16.4598C19.2772 15.9709 22.4383 13.8639 23.4117 12.3728C24.3852 10.8818 25.1388 8.81873 24.4584 7.1419C24.3066 6.74128 24.0661 6.37508 23.7525 6.06722C23.4389 5.75936 23.0592 5.51676 22.6384 5.35527C22.2176 5.19379 21.765 5.11706 21.3103 5.13008C20.8556 5.1431 20.4089 5.24559 19.9994 5.43085C17.5711 6.60415 16.9273 11.1702 17.3303 13.4239C17.367 13.6195 18.2828 16.6016 18.3247 16.5771C18.3419 16.5677 18.3578 16.5562 18.3718 16.5429C18.2671 17.2664 18.1625 18.0388 18.063 18.8895C17.8955 20.4539 17.7228 22.2236 17.6757 24.1644C17.5999 26.2547 17.654 28.3473 17.838 30.4317C18.0304 32.7658 18.4455 35.0792 19.0783 37.3444C19.0806 37.372 19.0806 37.3998 19.0783 37.4275C18.6753 36.7822 17.4088 35.0516 17.2885 34.9147C15.7184 33.189 11.5315 30.7348 8.9985 31.7321C8.58542 31.9091 8.21683 32.1653 7.91666 32.484C7.6165 32.8028 7.39149 33.1769 7.25624 33.5822C7.121 33.9875 7.07856 34.4148 7.13166 34.8364C7.18477 35.258 7.33225 35.6644 7.56451 36.0293C8.49608 37.6084 10.7046 38.3906 12.5259 38.635C14.567 38.9137 18.8481 37.755 19.1882 37.6573C19.9018 39.9491 20.776 42.1946 21.805 44.3792C22.3964 45.6503 23.0297 46.9214 23.6839 48.1827C23.2966 47.6449 22.9407 47.1707 22.8831 47.112C21.2869 45.3814 17.1262 42.9273 14.5932 43.9246C14.1801 44.1016 13.8115 44.3577 13.5113 44.6765C13.2112 44.9952 12.9862 45.3694 12.8509 45.7746C12.7157 46.1799 12.6732 46.6072 12.7263 47.0288C12.7794 47.4504 12.9269 47.8569 13.1592 48.2218C14.0908 49.8057 16.2993 50.583 18.1206 50.8323C19.9419 51.0817 23.6263 50.1577 24.5997 49.9035C24.8562 50.3924 25.1231 50.8812 25.3638 51.3701C26.6042 53.6776 27.855 55.9753 29.0273 58.2632C29.4303 59.0698 29.8019 59.8814 30.1735 60.7075C29.8228 60.2187 29.5245 59.8374 29.4774 59.7787C27.8759 58.053 23.7205 55.5988 21.1822 56.5961C20.7691 56.7731 20.4005 57.0293 20.1004 57.348C19.8002 57.6668 19.5752 58.0409 19.44 58.4462C19.3047 58.8515 19.2623 59.2788 19.3154 59.7004C19.3685 60.122 19.516 60.5284 19.7482 60.8933C20.6798 62.4724 22.8884 63.2546 24.7149 63.499C26.5414 63.7434 29.8595 62.9172 30.9951 62.619C31.3458 63.455 31.7017 64.2959 32.0052 65.1221C32.1989 65.6891 32.4239 66.222 32.5861 66.8038C32.7484 67.3855 32.9263 67.9429 33.1095 68.5051C33.3921 69.6001 33.6852 70.7245 33.9312 71.7952C34.1091 72.5382 34.2609 73.2618 34.4179 73.9658C34.0254 73.1591 33.2142 71.5947 33.1304 71.4725C31.8325 69.5415 28.1062 66.5202 25.4528 67.1509C25.0179 67.2695 24.6144 67.4721 24.2685 67.7455C23.9226 68.0189 23.642 68.357 23.4447 68.738C23.2474 69.119 23.1379 69.5344 23.1232 69.9575C23.1085 70.3805 23.189 70.8017 23.3594 71.1938C24.024 72.8902 26.0965 73.9755 27.8445 74.4742C29.7653 75.0266 34.0149 74.5231 34.5487 74.4742C34.8052 75.6572 35.0407 76.8159 35.2448 77.8963C35.9513 81.6557 36.3909 84.8138 36.6683 87.0431H38.521C38.521 86.9893 38.521 86.9453 38.521 86.8915C38.1913 84.6427 37.6679 81.4357 36.8567 77.603C36.6055 76.3954 36.3072 75.1146 35.988 73.7946C37.2694 73.3176 38.519 72.7691 39.7299 72.152C41.1273 73.5698 44.7175 75.227 45.1833 75.4372C44.6914 76.5617 44.2046 77.6469 43.7284 78.6638C42.1007 82.1641 40.5882 85.0191 39.5415 87.0284H41.5774C42.5822 85.0436 43.8697 82.3988 45.2409 79.2553C45.7642 78.1163 46.251 76.8941 46.7638 75.6328C47.2872 75.7306 51.474 76.5323 53.4523 76.1217C55.2317 75.7452 57.388 74.8066 58.1625 73.1591C58.3645 72.7791 58.4785 72.3636 58.4969 71.9397C58.5152 71.5158 58.4377 71.093 58.2693 70.699C58.1008 70.305 57.8453 69.9486 57.5194 69.6531C57.1935 69.3576 56.8045 69.1297 56.3779 68.9841C53.7611 68.1677 49.8255 70.9396 48.3758 72.7533C48.2868 72.8658 47.5018 74.1368 47.0151 74.9484C47.2244 74.4302 47.4285 73.9315 47.6326 73.3938C48.0513 72.3427 48.4281 71.277 48.8416 70.1379L49.3649 68.4464C49.5586 67.8842 49.6842 67.2682 49.8516 66.6767C50.2023 65.2932 50.4901 63.8754 50.7413 62.4382C51.7305 62.7755 55.2579 63.9048 57.0897 63.8021C58.9214 63.6994 61.1928 63.059 62.2447 61.5484C62.5081 61.2002 62.6897 60.8039 62.7777 60.3856C62.8657 59.9672 62.8581 59.5362 62.7553 59.1208C62.6525 58.7053 62.4569 58.3149 62.1813 57.975C61.9057 57.6351 61.5564 57.3535 61.1561 57.1486C58.7278 55.9753 54.3525 58.1263 52.6359 59.7445C52.526 59.8471 51.4217 61.1329 50.8303 61.8466C50.9769 60.9862 51.1286 60.1258 51.2438 59.2458C51.5787 56.7135 51.8352 54.1371 52.1021 51.5705C52.1858 50.7835 52.28 50.0013 52.3637 49.2191C52.7144 49.3413 56.8803 50.7883 58.9266 50.6563C60.7479 50.5341 63.0297 49.9133 64.0869 48.3978C64.3511 48.0498 64.5335 47.6535 64.6219 47.235C64.7104 46.8165 64.7029 46.3852 64.6001 45.9696C64.4972 45.5539 64.3013 45.1633 64.0253 44.8235C63.7492 44.4837 63.3992 44.2023 62.9983 43.9979C60.5647 42.8246 56.1947 44.9757 54.4781 46.5938C54.3473 46.716 52.7615 48.5493 52.3847 49.0382C52.5836 47.3076 52.7929 45.6161 53.0755 43.905C53.4424 41.6253 53.9669 39.3702 54.6456 37.1537C54.8078 37.2124 59.1464 38.7426 61.2399 38.6203C63.0611 38.503 65.343 37.8773 66.4001 36.3666C66.6635 36.0184 66.8452 35.6222 66.9332 35.2038C67.0212 34.7854 67.0135 34.3544 66.9108 33.939C66.808 33.5236 66.6124 33.1331 66.3368 32.7933C66.0612 32.4534 65.7118 32.1717 65.3116 31.9668C62.878 30.7935 58.5079 32.9445 56.7913 34.5627C56.6762 34.6703 55.4672 36.0782 54.9073 36.7626L54.7712 36.6942C55.5051 34.4969 56.4474 32.3651 57.5868 30.3242C58.2096 29.19 58.8743 28.134 59.5442 27.1221C60.3188 27.4838 63.888 29.0776 65.7878 29.1753C67.6876 29.2731 69.9747 28.8527 71.1836 27.4594C71.4833 27.1406 71.7079 26.7664 71.8428 26.3613C71.9776 25.9561 72.0198 25.529 71.9665 25.1077C71.9132 24.6863 71.7656 24.2801 71.5334 23.9155C71.3011 23.5509 70.9894 23.2359 70.6184 22.9911C68.3366 21.5783 63.752 23.2747 61.8417 24.6973C61.737 24.7755 60.795 25.675 60.0832 26.335C60.392 25.8803 60.7008 25.4061 61.0096 24.9808C62.1505 23.3675 63.3071 21.9596 64.3381 20.7228C64.9347 20.0237 65.4843 19.3979 66.0076 18.821C66.9654 18.821 70.8382 18.6939 72.5339 17.9557C74.2295 17.2175 76.0718 15.878 76.4695 14.1132C76.5787 13.7021 76.5944 13.2742 76.5154 12.8572C76.4364 12.4401 76.2646 12.0431 76.011 11.692C75.7575 11.3409 75.4278 11.0434 75.0434 10.8188C74.659 10.5941 74.2284 10.4474 73.7795 10.388Z" fill="#275F7A"/>
<path d="M243.378 204.299C241.384 203.57 236.574 203.844 236.574 203.844C236.574 203.844 237.726 206.738 237.825 206.914C238.961 208.933 242.431 212.214 245.126 211.774C245.571 211.689 245.992 211.517 246.362 211.27C246.732 211.023 247.042 210.707 247.273 210.341C247.503 209.975 247.649 209.568 247.7 209.146C247.751 208.724 247.707 208.297 247.57 207.892C247.042 206.156 245.068 204.925 243.378 204.299Z" fill="#275F7A"/>
<path d="M194.795 205.042C194.748 205.017 194.041 208.048 194.02 208.249C193.774 210.517 194.732 215.039 197.239 216.071C197.659 216.231 198.11 216.306 198.563 216.293C199.016 216.28 199.461 216.177 199.869 215.993C200.277 215.809 200.639 215.546 200.932 215.223C201.224 214.899 201.441 214.522 201.567 214.115C202.158 212.394 201.237 210.346 200.185 208.953C198.956 207.29 194.795 205.042 194.795 205.042Z" fill="#275F7A"/>
<path d="M181.135 221.8C183.862 221.976 186.95 218.378 187.86 216.261C187.939 216.08 188.813 213.084 188.761 213.084H188.703C189.195 212.521 189.718 211.91 190.273 211.231C191.283 209.974 192.419 208.547 193.539 206.909C194.768 205.161 195.886 203.348 196.888 201.478C198.019 199.388 198.949 197.209 199.667 194.966C199.67 194.938 199.67 194.91 199.667 194.883C199.667 195.636 199.809 197.723 199.835 197.885C200.243 200.133 202.452 204.24 205.152 204.626C205.603 204.676 206.061 204.637 206.494 204.511C206.928 204.385 207.328 204.175 207.669 203.894C208.01 203.614 208.284 203.269 208.472 202.883C208.661 202.497 208.76 202.078 208.763 201.654C208.852 199.85 207.382 198.1 205.974 197.014C204.404 195.792 200.081 194.702 199.741 194.619C200.409 192.319 200.915 189.98 201.253 187.618C201.457 186.24 201.62 184.851 201.777 183.453C201.813 184.098 201.855 184.675 201.865 184.758C202.274 187.007 204.482 191.114 207.183 191.5C207.634 191.55 208.091 191.511 208.525 191.385C208.959 191.259 209.359 191.048 209.7 190.768C210.041 190.487 210.314 190.143 210.503 189.757C210.691 189.371 210.79 188.952 210.794 188.528C210.883 186.724 209.412 184.973 208.004 183.888C206.597 182.803 202.928 181.791 201.954 181.542C202.007 181.004 202.059 180.466 202.106 179.933C202.331 177.357 202.541 174.785 202.828 172.273C202.933 171.388 203.064 170.518 203.2 169.647C203.231 170.219 203.263 170.703 203.279 170.777C203.682 173.025 205.895 177.132 208.591 177.523C209.042 177.572 209.5 177.533 209.934 177.406C210.368 177.279 210.768 177.069 211.11 176.788C211.451 176.507 211.725 176.162 211.914 175.776C212.103 175.39 212.203 174.971 212.207 174.546C212.291 172.742 210.82 170.997 209.417 169.906C208.015 168.816 204.707 167.907 203.54 167.604C203.702 166.719 203.865 165.829 204.064 164.974C204.215 164.397 204.315 163.83 204.503 163.253C204.692 162.676 204.843 162.114 205.027 161.556C205.393 160.486 205.764 159.381 206.152 158.345C206.413 157.626 206.675 156.942 206.942 156.252C206.832 157.132 206.649 158.863 206.654 159.009C206.767 161.013 207.426 162.957 208.57 164.656C208.573 164.881 208.598 165.105 208.643 165.326C208.713 165.747 208.878 166.149 209.127 166.507C209.376 166.864 209.703 167.168 210.087 167.399C210.47 167.63 210.902 167.782 211.353 167.846C211.804 167.91 212.265 167.884 212.704 167.77C215.321 167.022 216.818 162.627 216.849 160.349C216.849 160.212 216.697 158.75 216.582 157.826C216.739 158.359 216.881 158.877 217.048 159.425C217.373 160.505 217.728 161.576 218.095 162.73C218.299 163.282 218.503 163.835 218.707 164.397C218.911 164.959 219.183 165.531 219.419 166.103C219.995 167.418 220.649 168.723 221.34 170.014C220.324 170.278 216.739 171.27 215.331 172.365C213.924 173.461 212.463 175.201 212.547 177.005C212.553 177.429 212.654 177.848 212.844 178.233C213.034 178.619 213.309 178.962 213.65 179.242C213.992 179.522 214.392 179.732 214.826 179.857C215.26 179.983 215.718 180.022 216.169 179.972C218.875 179.601 221.067 175.475 221.47 173.221C221.47 173.084 221.591 171.437 221.622 170.532C222.046 171.314 222.46 172.092 222.915 172.869C224.223 175.113 225.621 177.342 227.007 179.576C227.431 180.256 227.845 180.945 228.264 181.63C227.902 181.718 223.611 182.813 222.036 184.035C220.628 185.125 219.162 186.875 219.251 188.679C219.256 189.104 219.357 189.523 219.546 189.908C219.736 190.294 220.011 190.638 220.353 190.918C220.694 191.198 221.095 191.408 221.53 191.533C221.964 191.659 222.422 191.697 222.873 191.647C225.579 191.275 227.772 187.144 228.175 184.895C228.206 184.724 228.337 182.358 228.337 181.752C229.258 183.262 230.158 184.773 230.98 186.298C232.106 188.354 233.085 190.477 233.911 192.654C233.743 192.698 229.263 193.817 227.63 195.069C226.228 196.159 224.762 197.909 224.851 199.713C224.856 200.137 224.957 200.555 225.146 200.941C225.335 201.326 225.61 201.67 225.951 201.95C226.292 202.23 226.692 202.44 227.126 202.566C227.56 202.691 228.017 202.73 228.468 202.68C231.179 202.309 233.371 198.178 233.769 195.929C233.795 195.782 233.9 193.974 233.926 193.118H234.083C234.854 195.324 235.413 197.59 235.753 199.889C235.957 201.15 236.077 202.367 236.161 203.555C235.308 203.683 231.393 204.313 229.807 205.291C228.222 206.269 226.62 207.818 226.495 209.617C226.45 210.04 226.501 210.467 226.644 210.87C226.787 211.273 227.02 211.643 227.326 211.956C227.633 212.27 228.007 212.52 228.423 212.689C228.84 212.859 229.29 212.945 229.745 212.942C232.477 212.849 235.146 208.972 235.81 206.772C235.842 206.655 236.067 205.403 236.219 204.489C236.245 205.027 236.292 205.579 236.308 206.093C236.386 208.024 236.308 209.798 236.26 211.368C236.213 212.257 236.156 213.064 236.093 213.812C235.318 214.35 232.241 216.55 231.33 218.07C230.42 219.59 229.76 221.688 230.53 223.34C230.699 223.734 230.954 224.09 231.28 224.386C231.606 224.681 231.995 224.91 232.421 225.056C232.847 225.202 233.302 225.263 233.755 225.234C234.208 225.205 234.65 225.088 235.051 224.89C237.433 223.629 237.883 219.023 237.391 216.804C237.349 216.613 236.308 213.66 236.271 213.69C236.254 213.699 236.238 213.711 236.224 213.724C236.302 213 236.376 212.223 236.438 211.373C236.538 209.798 236.637 208.024 236.606 206.083C236.6 203.991 236.462 201.902 236.192 199.825C235.9 197.507 235.391 195.216 234.669 192.981L234.638 192.903C235.093 193.519 236.428 195.201 236.548 195.318C238.218 196.985 242.488 199.292 244.964 198.202C245.369 198.011 245.727 197.742 246.014 197.413C246.301 197.085 246.51 196.703 246.629 196.293C246.747 195.884 246.772 195.456 246.702 195.037C246.631 194.618 246.467 194.217 246.22 193.861C245.225 192.311 242.97 191.612 241.154 191.417C239.107 191.211 234.874 192.522 234.539 192.629C233.749 190.355 232.798 188.132 231.692 185.976C231.053 184.719 230.362 183.477 229.656 182.241C230.069 182.759 230.441 183.218 230.503 183.282C232.173 184.949 236.444 187.256 238.919 186.166C239.324 185.975 239.682 185.706 239.969 185.377C240.256 185.049 240.465 184.667 240.584 184.257C240.702 183.848 240.727 183.42 240.657 183.001C240.586 182.582 240.422 182.181 240.175 181.825C239.181 180.275 236.925 179.576 235.109 179.381C233.293 179.185 229.635 180.246 228.677 180.534C228.4 180.046 228.154 179.591 227.85 179.117C226.516 176.858 225.176 174.604 223.93 172.356C223.491 171.564 223.093 170.772 222.69 169.98C223.056 170.439 223.37 170.825 223.422 170.879C225.092 172.546 229.363 174.854 231.838 173.769C232.244 173.577 232.601 173.308 232.888 172.978C233.175 172.649 233.385 172.267 233.503 171.857C233.622 171.447 233.646 171.019 233.576 170.599C233.505 170.18 233.341 169.779 233.094 169.422C232.1 167.873 229.844 167.174 228.028 166.978C226.212 166.783 222.91 167.746 221.748 168.083C221.36 167.262 220.968 166.435 220.633 165.639C220.418 165.076 220.167 164.548 219.984 163.976L219.408 162.295C219.084 161.214 218.738 160.1 218.451 159.039C218.247 158.301 218.063 157.572 217.88 156.883C218.304 157.675 219.173 159.21 219.262 159.327C220.643 161.209 224.495 164.094 227.112 163.37C227.544 163.238 227.941 163.023 228.278 162.738C228.615 162.453 228.884 162.105 229.067 161.717C229.251 161.329 229.345 160.909 229.344 160.485C229.342 160.06 229.245 159.641 229.059 159.254C228.332 157.587 226.212 156.57 224.448 156.135C222.507 155.646 218.278 156.311 217.749 156.394C217.446 155.216 217.163 154.067 216.912 152.972C216.054 149.242 215.483 146.098 215.117 143.884L213.264 143.952C213.264 144.001 213.264 144.045 213.29 144.099C213.714 146.333 214.363 149.52 215.331 153.304C215.635 154.502 215.986 155.778 216.378 157.078C215.122 157.605 213.899 158.197 212.715 158.853C211.26 157.489 207.607 155.959 207.136 155.768C207.575 154.629 208.02 153.524 208.455 152.493C209.936 148.934 211.317 146.02 212.317 143.986L210.286 144.06C209.36 146.074 208.193 148.763 206.937 151.955C206.481 153.109 206.021 154.351 205.56 155.631C205.037 155.548 200.803 154.898 198.856 155.382C197.098 155.822 194.978 156.849 194.251 158.511C194.065 158.898 193.968 159.318 193.967 159.742C193.967 160.167 194.062 160.587 194.246 160.975C194.431 161.363 194.701 161.71 195.039 161.994C195.377 162.278 195.775 162.492 196.208 162.622C198.825 163.341 202.677 160.452 204.058 158.565C204.142 158.457 204.875 157.157 205.325 156.33C205.142 156.854 204.953 157.357 204.77 157.9C204.399 158.965 204.064 160.046 203.697 161.2C203.54 161.762 203.383 162.334 203.226 162.911C203.069 163.488 202.954 164.099 202.813 164.695C202.514 166.088 202.289 167.516 202.096 168.958C201.091 168.66 197.516 167.638 195.695 167.824C193.874 168.01 191.623 168.714 190.634 170.268C190.388 170.625 190.225 171.026 190.156 171.445C190.087 171.865 190.113 172.293 190.232 172.702C190.352 173.112 190.562 173.493 190.849 173.822C191.137 174.15 191.495 174.419 191.901 174.609C194.376 175.695 198.647 173.377 200.311 171.71C200.416 171.603 201.462 170.283 202.028 169.545C201.918 170.41 201.803 171.275 201.719 172.16C201.489 174.702 201.337 177.283 201.196 179.86C201.148 180.647 201.086 181.434 201.028 182.221C200.677 182.109 196.454 180.808 194.413 181.018C192.602 181.199 190.346 181.908 189.352 183.463C189.106 183.82 188.943 184.221 188.874 184.64C188.805 185.059 188.831 185.488 188.95 185.897C189.07 186.306 189.28 186.688 189.567 187.016C189.855 187.345 190.213 187.613 190.619 187.804C193.094 188.884 197.365 186.572 199.029 184.905C199.154 184.778 200.662 182.871 201.023 182.368C200.897 184.098 200.756 185.824 200.541 187.52C200.264 189.811 199.829 192.082 199.238 194.321C199.076 194.267 194.68 192.893 192.586 193.108C190.776 193.289 188.515 193.998 187.526 195.553C187.28 195.91 187.117 196.311 187.047 196.731C186.978 197.151 187.004 197.579 187.123 197.989C187.243 198.399 187.453 198.78 187.74 199.109C188.028 199.438 188.386 199.707 188.792 199.899C191.268 200.979 195.538 198.667 197.202 196.995C197.312 196.887 198.458 195.435 198.992 194.731L199.134 194.795C198.471 197.032 197.595 199.21 196.517 201.302C195.941 202.46 195.324 203.536 194.696 204.572C193.905 204.24 190.268 202.749 188.368 202.744C186.468 202.739 184.218 203.233 183.051 204.651C182.763 204.979 182.553 205.361 182.434 205.771C182.315 206.181 182.29 206.609 182.361 207.029C182.431 207.448 182.596 207.849 182.844 208.205C183.092 208.561 183.417 208.864 183.799 209.094C186.133 210.424 190.645 208.566 192.497 207.075C192.597 206.992 193.544 206.063 194.188 205.379C193.895 205.843 193.607 206.327 193.314 206.767C192.267 208.415 191.142 209.862 190.174 211.138C189.608 211.861 189.08 212.502 188.604 213.093C187.646 213.142 183.778 213.392 182.119 214.193C180.46 214.995 178.665 216.393 178.341 218.168C178.247 218.58 178.247 219.005 178.34 219.417C178.433 219.829 178.616 220.219 178.879 220.56C179.142 220.902 179.479 221.189 179.867 221.403C180.256 221.616 180.688 221.751 181.135 221.8Z" fill="#275F7A"/>
<g opacity="0.2">
<path opacity="0.2" d="M187.866 7.43506C187.866 7.43506 187.588 7.43506 187.086 7.43506" stroke="black" stroke-linecap="round" stroke-linejoin="round"/>
<path opacity="0.2" d="M185.516 7.47406C179.796 7.77227 164.969 9.83531 155.983 22.81C145.908 37.3588 152.157 62.5943 151.493 78.9128C150.629 100.076 145.652 124.285 125.508 136.981C103.03 151.158 73.23 148.191 48.5067 156.849C15.5928 168.376 10.4482 198.623 21.2503 213.993C40.515 241.419 82.5143 223.281 99.8688 204.528C107.442 196.34 113.513 186.049 122.457 179.107C130.15 173.138 140.136 170.42 149.813 168.841C174.541 164.783 200.929 160.686 223.302 149.481C246.482 137.876 251.783 112.606 241.965 91.0173C232.215 69.5901 209.517 55.3297 185.809 50.1917C133.505 38.8254 117.302 55.5252 90.6577 26.3396" stroke="black" stroke-linecap="round" stroke-linejoin="round" stroke-dasharray="3 3"/>
<path opacity="0.2" d="M90.1499 25.7723L89.6266 25.2102" stroke="black" stroke-linecap="round" stroke-linejoin="round"/>
</g>
<path opacity="0.2" d="M59.5285 204.763C59.5182 204.071 59.2609 203.401 58.7974 202.861C58.3338 202.321 57.6905 201.941 56.9694 201.781C56.2484 201.621 55.4908 201.69 54.8167 201.978C54.1426 202.266 53.5906 202.756 53.2483 203.37C52.9059 202.756 52.3539 202.266 51.6798 201.978C51.0058 201.69 50.2482 201.621 49.5271 201.781C48.806 201.941 48.1627 202.321 47.6991 202.861C47.2356 203.401 46.9783 204.071 46.968 204.763C46.968 206.352 48.2659 207.97 49.5534 208.909C50.7286 209.726 51.9517 210.482 53.2169 211.172C54.4836 210.484 55.7068 209.728 56.8803 208.909C58.1102 208.019 59.5285 206.278 59.5285 204.763Z" stroke="black" stroke-linecap="round" stroke-linejoin="round"/>
<path opacity="0.2" d="M45.2565 213.753C45.2552 212.835 44.9225 211.944 44.3121 211.224C43.7016 210.504 42.8492 209.998 41.8925 209.786C40.9358 209.575 39.9308 209.671 39.0398 210.059C38.1488 210.447 37.4239 211.105 36.9823 211.925C36.5407 211.105 35.8158 210.447 34.9248 210.059C34.0338 209.671 33.0287 209.575 32.072 209.786C31.1154 209.998 30.2629 210.504 29.6525 211.224C29.0421 211.944 28.7093 212.835 28.708 213.753C28.708 215.841 30.4089 217.958 32.0994 219.195C32.9472 219.815 36.8096 222.23 36.93 222.162C37.0399 222.23 40.9075 219.815 41.7553 219.195C43.3568 218.021 45.2565 215.743 45.2565 213.753Z" stroke="black" stroke-linecap="round" stroke-linejoin="round"/>
<path opacity="0.2" d="M168.161 217.596C168.158 216.678 167.823 215.787 167.21 215.069C166.598 214.351 165.744 213.847 164.786 213.639C163.829 213.431 162.824 213.531 161.935 213.922C161.046 214.314 160.324 214.974 159.887 215.797C159.449 214.973 158.725 214.311 157.834 213.92C156.942 213.528 155.934 213.43 154.976 213.642C154.017 213.853 153.162 214.361 152.552 215.084C151.941 215.806 151.61 216.7 151.613 217.62C151.613 219.708 153.319 221.825 155.01 223.061C155.857 223.682 159.72 226.097 159.835 226.029C159.95 226.097 163.812 223.682 164.66 223.061C166.267 221.864 168.161 219.586 168.161 217.596Z" stroke="black" stroke-linecap="round" stroke-linejoin="round"/>
<path opacity="0.2" d="M225.657 14.5091C225.659 13.8893 225.436 13.2872 225.025 12.8007C224.614 12.3141 224.039 11.9717 223.393 11.829C222.748 11.6862 222.069 11.7517 221.468 12.0146C220.867 12.2775 220.379 12.7224 220.084 13.2772C219.786 12.7251 219.298 12.2829 218.698 12.0219C218.099 11.7609 217.422 11.6964 216.778 11.8389C216.135 11.9813 215.561 12.3223 215.15 12.8068C214.74 13.2914 214.516 13.8911 214.515 14.5091C214.515 15.9122 215.661 17.3397 216.802 18.1708C217.845 18.8911 218.928 19.5585 220.047 20.1702C221.169 19.5599 222.254 18.8924 223.297 18.1708C224.375 17.3788 225.657 15.8486 225.657 14.5091Z" stroke="black" stroke-linecap="round" stroke-linejoin="round"/>
<path opacity="0.2" d="M21.4753 205.697C21.4795 205.076 21.2584 204.473 20.8481 203.985C20.4377 203.497 19.8623 203.153 19.2159 203.01C18.5696 202.867 17.8904 202.933 17.2893 203.197C16.6883 203.462 16.2009 203.908 15.9068 204.465C15.6108 203.91 15.1228 203.465 14.5219 203.202C13.9211 202.939 13.2427 202.874 12.597 203.017C11.9513 203.159 11.3763 203.502 10.9653 203.988C10.5543 204.475 10.3314 205.077 10.333 205.697C10.333 207.1 11.4844 208.522 12.6201 209.358C13.6619 210.08 14.747 210.746 15.8701 211.353C16.9932 210.746 18.0783 210.08 19.1202 209.358C20.2192 208.566 21.4753 207.031 21.4753 205.697Z" stroke="black" stroke-linecap="round" stroke-linejoin="round"/>
<path opacity="0.2" d="M149.085 211.295C149.087 210.675 148.864 210.073 148.453 209.586C148.042 209.1 147.467 208.757 146.821 208.614C146.176 208.472 145.497 208.537 144.896 208.8C144.295 209.063 143.807 209.508 143.511 210.063C143.214 209.511 142.726 209.068 142.126 208.807C141.527 208.546 140.85 208.482 140.206 208.624C139.563 208.767 138.989 209.108 138.578 209.592C138.168 210.077 137.944 210.676 137.943 211.295C137.943 212.698 139.089 214.125 140.23 214.956C141.272 215.676 142.356 216.344 143.475 216.956C144.597 216.345 145.682 215.678 146.725 214.956C147.808 214.169 149.085 212.634 149.085 211.295Z" stroke="black" stroke-linecap="round" stroke-linejoin="round"/>
<path opacity="0.2" d="M131.296 17.0461C131.301 16.4256 131.079 15.8221 130.669 15.3342C130.259 14.8462 129.683 14.5027 129.037 14.3597C128.391 14.2167 127.711 14.2827 127.11 14.5469C126.509 14.811 126.022 15.2578 125.728 15.8141C125.434 15.2578 124.946 14.811 124.345 14.5469C123.744 14.2827 123.065 14.2167 122.419 14.3597C121.772 14.5027 121.197 14.8462 120.787 15.3342C120.376 15.8221 120.155 16.4256 120.159 17.0461C120.159 18.4491 121.305 19.8718 122.441 20.7077C123.486 21.4225 124.571 22.0851 125.691 22.6925C126.813 22.0842 127.898 21.4183 128.941 20.698C130.019 19.9158 131.296 18.3807 131.296 17.0461Z" stroke="black" stroke-linecap="round" stroke-linejoin="round"/>
<path opacity="0.2" d="M94.5202 15.4672C94.5232 14.8471 94.3013 14.2444 93.8905 13.7573C93.4797 13.2702 92.9044 12.9276 92.2583 12.7852C91.6122 12.6428 90.9336 12.7092 90.3331 12.9734C89.7325 13.2376 89.2456 13.6841 88.9517 14.2401C88.6559 13.6857 88.1683 13.241 87.568 12.978C86.9677 12.7151 86.2899 12.6493 85.6445 12.7914C84.9991 12.9334 84.424 13.275 84.0126 13.7608C83.6012 14.2465 83.3775 14.8478 83.3779 15.4672C83.3779 16.8702 84.5293 18.2977 85.665 19.1288C86.707 19.8522 87.7921 20.5197 88.915 21.1283C90.038 20.5197 91.1231 19.8522 92.1651 19.1288C93.2432 18.3417 94.5202 16.8262 94.5202 15.4672Z" stroke="black" stroke-linecap="round" stroke-linejoin="round"/>
<path opacity="0.2" d="M208.35 5.40619C208.352 4.43899 208.004 3.49947 207.363 2.74026C206.721 1.98105 205.824 1.44676 204.816 1.2242C203.809 1.00163 202.75 1.10385 201.812 1.51427C200.875 1.92469 200.113 2.61919 199.652 3.48493C199.19 2.61919 198.429 1.92469 197.491 1.51427C196.553 1.10385 195.495 1.00163 194.487 1.2242C193.48 1.44676 192.582 1.98105 191.941 2.74026C191.299 3.49947 190.951 4.43899 190.954 5.40619C190.954 7.59634 192.743 9.80604 194.523 11.126C195.413 11.7762 199.474 14.3134 199.594 14.245C199.715 14.3134 203.781 11.8006 204.671 11.126C206.356 9.89403 208.35 7.49856 208.35 5.40619Z" stroke="black" stroke-linecap="round" stroke-linejoin="round"/>
<path d="M225.547 197.982L147.316 200.104C145.302 200.158 143.348 199.463 141.883 198.171C140.417 196.879 139.561 195.097 139.502 193.216L134.646 37.1047C134.616 36.1728 134.784 35.2447 135.139 34.3733C135.493 33.5019 136.028 32.7043 136.713 32.026C137.398 31.3478 138.219 30.8022 139.13 30.4204C140.04 30.0386 141.022 29.8281 142.02 29.8009L220.251 27.6792C221.249 27.6512 222.243 27.8072 223.176 28.1384C224.109 28.4695 224.963 28.9693 225.689 29.609C226.416 30.2488 227 31.016 227.408 31.8668C227.817 32.7177 228.041 33.6353 228.07 34.5674L232.911 190.679C232.969 192.559 232.226 194.383 230.846 195.753C229.465 197.122 227.56 197.924 225.547 197.982Z" fill="#022C40" stroke="#022C40" stroke-linecap="round" stroke-linejoin="round"/>
<path d="M221.921 197.983L143.7 200.104C142.702 200.132 141.709 199.975 140.776 199.644C139.843 199.312 138.989 198.813 138.263 198.173C137.537 197.533 136.953 196.766 136.544 195.916C136.135 195.065 135.91 194.148 135.881 193.216L131.024 37.1048C130.966 35.2224 131.711 33.3955 133.095 32.0259C134.479 30.6563 136.388 29.8561 138.403 29.8011L216.635 27.6794C217.632 27.652 218.625 27.8085 219.558 28.14C220.49 28.4714 221.344 28.9712 222.07 29.611C222.795 30.2507 223.379 31.0177 223.787 31.8682C224.195 32.7186 224.42 33.6359 224.448 34.5676L229.305 190.679C229.335 191.612 229.168 192.541 228.813 193.413C228.457 194.286 227.921 195.084 227.235 195.762C226.549 196.441 225.727 196.986 224.815 197.367C223.903 197.748 222.919 197.957 221.921 197.983Z" fill="white" stroke="#022C40" stroke-miterlimit="10"/>
<path d="M185.479 193.426C185.46 192.84 185.256 192.271 184.891 191.793C184.527 191.316 184.019 190.949 183.431 190.741C182.844 190.533 182.204 190.492 181.592 190.623C180.98 190.755 180.423 191.053 179.992 191.48C179.561 191.907 179.276 192.444 179.171 193.023C179.067 193.601 179.149 194.196 179.406 194.731C179.663 195.266 180.085 195.718 180.617 196.03C181.149 196.341 181.769 196.499 182.397 196.481C182.814 196.47 183.225 196.382 183.605 196.222C183.986 196.063 184.33 195.834 184.616 195.55C184.902 195.267 185.126 194.933 185.274 194.569C185.422 194.204 185.492 193.816 185.479 193.426V193.426Z" stroke="white" stroke-linecap="round" stroke-linejoin="round"/>
<path d="M220.429 39.1658L135.314 41.47L139.926 190.103L225.04 187.799L220.429 39.1658Z" fill="white" stroke="#022C40" stroke-linecap="round" stroke-linejoin="round"/>
<path d="M217.581 40.7853L210.524 40.9763L210.636 44.5915L217.693 44.4005L217.581 40.7853Z" stroke="#022C40" stroke-width="0.821067" stroke-linecap="round" stroke-linejoin="round"/>
<path d="M216.028 40.8273L210.524 40.9763L210.637 44.5915L216.14 44.4425L216.028 40.8273Z" fill="#022C40" stroke="#022C40" stroke-width="0.725073" stroke-linecap="round" stroke-linejoin="round"/>
<path d="M218.593 41.7705L217.599 41.7974L217.648 43.39L218.642 43.3631L218.593 41.7705Z" fill="#022C40" stroke="#022C40" stroke-width="0.725073" stroke-linecap="round" stroke-linejoin="round"/>
<path d="M138.608 44.0414L137.316 44.0764L137.38 46.1478L138.672 46.1128L138.608 44.0414Z" fill="#022C40" stroke="#022C40" stroke-width="0.883086" stroke-linecap="round" stroke-linejoin="round"/>
<path d="M140.623 43.2444L139.331 43.2795L139.418 46.0789L140.71 46.0437L140.623 43.2444Z" fill="#022C40" stroke="#022C40" stroke-width="0.883086" stroke-linecap="round" stroke-linejoin="round"/>
<path d="M142.629 42.3296L141.337 42.3647L141.451 46.0239L142.743 45.9887L142.629 42.3296Z" fill="#022C40" stroke="#022C40" stroke-width="0.883086" stroke-linecap="round" stroke-linejoin="round"/>
<path d="M107.196 201.033L29.0534 196.961C28.0568 196.909 27.0808 196.674 26.1814 196.27C25.2819 195.866 24.4765 195.3 23.8111 194.605C23.1458 193.91 22.6336 193.099 22.3037 192.219C21.9738 191.339 21.8328 190.407 21.8886 189.476L31.2044 33.5264C31.3205 31.6497 32.2287 29.8927 33.7299 28.6408C35.231 27.3889 37.2024 26.7443 39.2117 26.8484L117.359 30.9207C119.371 31.0267 121.256 31.8745 122.6 33.2779C123.943 34.6813 124.635 36.5255 124.524 38.4053L115.208 194.355C115.091 196.232 114.181 197.989 112.679 199.241C111.177 200.493 109.205 201.137 107.196 201.033Z" fill="#022C40" stroke="#022C40" stroke-linecap="round" stroke-linejoin="round"/>
<path d="M109.859 201.033L31.7173 196.961C30.7206 196.909 29.7447 196.674 28.8452 196.27C27.9458 195.866 27.1404 195.3 26.475 194.605C25.8097 193.91 25.2974 193.099 24.9676 192.219C24.6377 191.339 24.4967 190.407 24.5525 189.476L33.8683 33.5261C33.9857 31.6481 34.8958 29.8904 36.3989 28.6384C37.902 27.3865 39.8754 26.7426 41.8861 26.8481L120.023 30.9204C122.036 31.0251 123.923 31.8724 125.267 33.276C126.612 34.6795 127.304 36.5244 127.193 38.405L117.877 194.355C117.761 196.233 116.852 197.992 115.348 199.244C113.845 200.496 111.871 201.14 109.859 201.033Z" fill="white" stroke="#022C40" stroke-miterlimit="10"/>
<path d="M73.9521 193.612C73.9873 193.026 73.8357 192.443 73.5165 191.938C73.1973 191.432 72.7247 191.027 72.1586 190.772C71.5925 190.517 70.9583 190.425 70.3361 190.507C69.7139 190.589 69.1318 190.842 68.6633 191.233C68.1948 191.624 67.8611 192.136 67.7042 192.704C67.5473 193.273 67.5743 193.872 67.7819 194.426C67.9895 194.98 68.3682 195.464 68.8703 195.817C69.3724 196.17 69.9752 196.375 70.6026 196.408C71.4437 196.452 72.2691 196.182 72.8972 195.658C73.5254 195.134 73.9048 194.398 73.9521 193.612V193.612Z" stroke="white" stroke-linecap="round" stroke-linejoin="round"/>
<path d="M122.773 42.6469L37.7553 38.2207L28.8972 186.685L113.915 191.112L122.773 42.6469Z" fill="#FAFAFA" stroke="#022C40" stroke-linecap="round" stroke-linejoin="round"/>
<path d="M119.792 44.033L112.743 43.666L112.528 47.2771L119.577 47.6441L119.792 44.033Z" stroke="#022C40" stroke-width="0.821067" stroke-linecap="round" stroke-linejoin="round"/>
<path d="M118.237 43.9571L112.74 43.6709L112.525 47.282L118.022 47.5682L118.237 43.9571Z" fill="#022C40" stroke="#022C40" stroke-width="0.725073" stroke-linecap="round" stroke-linejoin="round"/>
<path d="M120.707 45.0986L119.714 45.0469L119.619 46.6377L120.612 46.6894L120.707 45.0986Z" fill="#022C40" stroke="#022C40" stroke-width="0.725073" stroke-linecap="round" stroke-linejoin="round"/>
<path d="M40.8006 41.0482L39.5099 40.981L39.3864 43.05L40.6771 43.1172L40.8006 41.0482Z" fill="#022C40" stroke="#022C40" stroke-width="0.883086" stroke-linecap="round" stroke-linejoin="round"/>
<path d="M42.8703 40.4275L41.5797 40.3604L41.4128 43.1565L42.7035 43.2237L42.8703 40.4275Z" fill="#022C40" stroke="#022C40" stroke-width="0.883086" stroke-linecap="round" stroke-linejoin="round"/>
<path d="M44.9487 39.6778L43.658 39.6104L43.4393 43.2653L44.7299 43.3327L44.9487 39.6778Z" fill="#022C40" stroke="#022C40" stroke-width="0.883086" stroke-linecap="round" stroke-linejoin="round"/>
<path d="M194.936 77.5634C194.936 77.5634 199.458 82.8237 200.301 87.7124C201.143 92.6011 197.433 95.0748 196.114 96.9325C194.878 98.6837 194.113 100.688 193.884 102.775C193.712 104.603 196.475 104.847 196.475 104.847C196.475 104.847 194.575 106.505 190.017 107.38C185.458 108.255 182.831 104.896 182.831 104.896C182.831 104.896 187.421 101.474 188.368 98.6387C189.315 95.8032 189.645 88.0008 189.357 86.1871C189.069 84.3734 188.206 82.3642 188.19 81.8264C188.175 81.2886 189.472 75.8915 194.936 77.5634Z" fill="#022C40" stroke="#022C40" stroke-linecap="round" stroke-linejoin="round"/>
<path d="M206.162 188.655C205.597 184.69 203.755 173.5 203.755 173.5C203.755 173.5 189.98 168.254 175.918 169.1C161.855 169.946 159.118 172.625 159.118 172.625L156.648 189.843H161.881L206.162 188.655Z" fill="#022C40" stroke="#022C40" stroke-linecap="round" stroke-linejoin="round"/>
<path d="M196.093 146.04L195.507 142.359L209.47 142.72C209.47 142.72 198.202 127.355 197.113 122.799C196.025 118.243 192.377 113.022 188.808 110.308C185.238 107.595 179.544 107.605 179.544 107.605L176.545 107.835L177.367 103.669L167.633 96.1017L167.366 97.7345C167.366 97.7345 166.246 102.496 165.696 105.17C165.147 107.844 164.069 108.763 164.069 108.763C164.069 108.763 158.212 103.601 154.549 102.961C150.885 102.32 146.06 104.818 145.39 108.68C144.72 112.542 148.007 145.307 148.373 147.663C148.74 150.019 153.466 159.767 154.35 162.701C155.234 165.634 159.118 173.363 159.118 173.363C159.118 173.363 166.738 179.073 179.576 179.757C192.414 180.442 204.566 174.052 204.566 174.052C204.566 174.052 200.379 161.449 199.291 157.044C198.202 152.64 196.093 146.04 196.093 146.04ZM162.598 158.335C162.598 158.335 160.431 149.672 160.023 146.871C159.615 144.07 158.898 136.116 158.898 136.116L165.126 148.069L162.598 158.335Z" fill="#275F7A" stroke="#022C40" stroke-linecap="round" stroke-linejoin="round"/>
<path d="M155.303 127.306L154.476 125.287" stroke="#022C40" stroke-linecap="round" stroke-linejoin="round"/>
<path d="M158.903 136.111L156.553 130.357" stroke="#022C40" stroke-linecap="round" stroke-linejoin="round"/>
<path d="M193.089 145.238C193.089 145.238 189.54 153.314 184.977 159.357" stroke="#022C40" stroke-linecap="round" stroke-linejoin="round"/>
<path d="M179.063 170.821C178.629 171.236 178.194 171.627 177.775 171.979" stroke="#022C40" stroke-linecap="round" stroke-linejoin="round"/>
<path d="M191.179 155.045C191.179 155.045 185.882 163.497 180.712 169.114" stroke="#022C40" stroke-linecap="round" stroke-linejoin="round"/>
<path d="M179.529 107.605L176.53 107.835L177.352 103.67L167.617 96.1018L167.35 97.7346C167.35 97.7346 166.23 102.496 165.681 105.17C165.131 107.845 164.053 108.764 164.053 108.764C162.205 107.162 160.212 105.713 158.097 104.432C158.898 106.877 161.965 115.285 167.041 118.292C173.008 121.826 179.403 118.844 180.711 115.114C181.472 112.741 181.946 110.296 182.125 107.825C181.266 107.695 180.398 107.622 179.529 107.605Z" fill="white" stroke="#022C40" stroke-linecap="round" stroke-linejoin="round"/>
<path d="M175.588 107.375L175.326 111.094L178.44 107.825L175.588 107.375Z" fill="#022C40" stroke="#022C40" stroke-linecap="round" stroke-linejoin="round"/>
<path d="M188.562 122.735C188.562 122.735 189.331 116.947 189.263 114.733C189.195 112.518 187.766 107.233 187.086 105.772C186.406 104.31 182.852 101.895 182.575 103.234C182.297 104.574 182.883 108.123 182.91 108.842C182.936 109.56 182.554 112.699 182.554 112.699C182.554 112.699 182.622 109.888 181.319 108.739C180.015 107.59 179.079 107.913 179.105 108.651V109.389C179.105 109.389 180.602 111.716 180.675 113.637C180.748 115.559 180.539 119.406 180.575 120.589C180.612 121.772 183.082 124.808 183.579 125.532C184.077 126.255 188.672 131.457 188.672 131.457L193 128.088L188.562 122.735Z" fill="white" stroke="#022C40" stroke-linecap="round" stroke-linejoin="round"/>
<path d="M188.714 112.234C188.714 112.234 186.003 106.544 184.909 107.013C183.815 107.482 186.479 112.293 186.479 112.293L187.002 113.466C187.002 113.466 184.909 117.377 184.626 118.555C184.344 119.734 184.38 120.78 184.71 121.215" fill="white"/>
<path d="M188.714 112.234C188.714 112.234 186.003 106.544 184.909 107.013C183.815 107.482 186.479 112.293 186.479 112.293L187.002 113.466C187.002 113.466 184.909 117.377 184.626 118.555C184.344 119.734 184.38 120.78 184.71 121.215" stroke="#022C40" stroke-linecap="round" stroke-linejoin="round"/>
<path d="M191.001 124.74L182.931 135.006C182.931 135.006 188.761 139.283 192.168 141.997C195.575 144.71 202.734 150.879 205.126 151.403C207.518 151.926 211.307 151.681 211.49 147.389C211.673 143.097 210.056 141.958 207.272 139.078C204.488 136.199 191.001 124.74 191.001 124.74Z" fill="#275F7A" stroke="#022C40" stroke-linecap="round" stroke-linejoin="round"/>
<path d="M191.781 83.4644C193.183 85.5112 193.954 87.8792 194.01 90.3086C193.984 92.6111 191.367 96.6639 190.776 98.6927C190.184 100.722 188.253 103.581 182.763 105.6C178.576 107.136 176.315 108.656 174.468 107.17C172.621 105.684 167.853 99.0985 167.853 99.0985C167.853 99.0985 177.21 90.1668 180.246 87.478C183.281 84.7892 187.798 82.1933 191.781 83.4644Z" fill="white" stroke="#022C40" stroke-linecap="round" stroke-linejoin="round"/>
<path d="M185.411 99.3525C184.999 99.6182 184.528 99.7925 184.032 99.8619C183.537 99.9314 183.031 99.8942 182.554 99.7533" stroke="#022C40" stroke-linecap="round" stroke-linejoin="round"/>
<path d="M178.189 99.5481C178.189 99.5481 178.592 101.361 181.486 102.246" stroke="#022C40" stroke-linecap="round" stroke-linejoin="round"/>
<path d="M180.429 91.7553C180.431 91.9216 180.483 92.0839 180.58 92.2237C180.677 92.3635 180.813 92.475 180.975 92.5455C181.136 92.616 181.315 92.6426 181.492 92.6222C181.669 92.6019 181.836 92.5354 181.974 92.4304C182.112 92.3255 182.216 92.1862 182.273 92.0288C182.33 91.8713 182.339 91.7019 182.298 91.5401C182.257 91.3783 182.168 91.2305 182.041 91.1138C181.914 90.9972 181.754 90.9162 181.58 90.8804C181.443 90.8669 181.304 90.8788 181.172 90.9155C181.04 90.9522 180.917 91.013 180.81 91.0943C180.703 91.1756 180.614 91.2758 180.549 91.3893C180.483 91.5027 180.443 91.6271 180.429 91.7553Z" fill="#022C40"/>
<path d="M184.15 91.9019C184.171 91.7056 184.142 91.5075 184.068 91.3229C183.993 91.1384 183.874 90.9723 183.72 90.8377C183.566 90.703 183.38 90.6033 183.178 90.5463C182.976 90.4893 182.762 90.4765 182.554 90.509" stroke="#022C40" stroke-linecap="round" stroke-linejoin="round"/>
<path d="M188.426 94.278C188.427 94.415 188.47 94.5488 188.549 94.6641C188.629 94.7794 188.741 94.8715 188.874 94.9298C189.007 94.9881 189.154 95.0102 189.3 94.9936C189.446 94.977 189.583 94.9224 189.697 94.836C189.811 94.7496 189.896 94.635 189.944 94.5053C189.991 94.3756 189.998 94.236 189.964 94.1027C189.93 93.9694 189.857 93.8477 189.752 93.7516C189.648 93.6555 189.516 93.5889 189.373 93.5595C189.146 93.5402 188.92 93.6046 188.743 93.7388C188.566 93.873 188.452 94.0665 188.426 94.278Z" fill="#022C40"/>
<path d="M191.215 94.6002C191.236 94.4034 191.208 94.2048 191.133 94.0198C191.058 93.8349 190.939 93.6685 190.784 93.5337C190.629 93.399 190.443 93.2994 190.24 93.2428C190.037 93.1862 189.823 93.174 189.614 93.2073" stroke="#022C40" stroke-linecap="round" stroke-linejoin="round"/>
<path d="M186.725 89.6677C185.973 89.0312 185.041 88.6103 184.04 88.4556C183.061 88.3769 182.08 88.5964 181.245 89.0812" stroke="#022C40" stroke-linecap="round" stroke-linejoin="round"/>
<path d="M190.205 91.907C190.205 91.907 191.519 92.0145 192.11 93.7251" stroke="#022C40" stroke-linecap="round" stroke-linejoin="round"/>
<path d="M196.192 79.2844C196.192 79.2844 190.252 84.5936 186.903 87.0526C183.553 89.5116 182.193 89.1254 179.052 92.968C175.912 96.8105 173.018 100.091 168.748 101.597C164.477 103.102 159.212 101.597 157.234 100.101C155.256 98.6046 154.769 97.3874 154.769 97.3874C154.769 97.3874 157.867 97.2896 157.658 94.5226C156.752 82.7603 156.7 81.2497 157.773 77.4658C158.846 73.682 165.194 68.715 174.583 68.8813C183.972 69.0475 192.34 74.6597 194.162 75.7255C195.983 76.7912 196.894 77.7347 196.192 79.2844Z" fill="#022C40" stroke="#022C40" stroke-linecap="round" stroke-linejoin="round"/>
<path d="M162.08 94.6149C161.488 94.4541 160.943 94.1674 160.489 93.7774C160.035 93.3874 159.684 92.9045 159.463 92.3667" stroke="#696969" stroke-linecap="round" stroke-linejoin="round"/>
<path d="M187.939 80.0225C184.365 82.7601 178.958 87.0475 175.378 90.6016C172.763 93.2577 169.14 94.8541 165.283 95.0504" stroke="#696969" stroke-linecap="round" stroke-linejoin="round"/>
<path d="M191.618 77.2654C191.618 77.2654 191.095 77.6417 190.237 78.2869" stroke="#696969" stroke-linecap="round" stroke-linejoin="round"/>
<path d="M167.251 88.8566C166.501 89.249 165.703 89.556 164.875 89.7708C160.384 90.7828 159.018 85.2634 159.018 85.2634" stroke="#696969" stroke-linecap="round" stroke-linejoin="round"/>
<path d="M181.685 79.3137C177.927 82.184 174.016 84.8746 169.967 87.3752" stroke="#696969" stroke-linecap="round" stroke-linejoin="round"/>
<path d="M160.353 82.1142C160.353 82.1142 161.583 83.4143 165.142 83.0917C168.701 82.7692 172.647 79.5532 172.647 79.5532" stroke="#696969" stroke-linecap="round" stroke-linejoin="round"/>
<path d="M162.603 158.335L159.228 171.882" stroke="#022C40" stroke-linecap="round" stroke-linejoin="round"/>
<path d="M95.0903 190.073L98.5915 165.062C98.5915 165.062 96.4196 161.64 87.6534 161.151C78.8872 160.662 57.9739 168.484 57.9739 168.484L52.8031 187.853L95.0903 190.073Z" fill="#022C40" stroke="#022C40" stroke-linecap="round" stroke-linejoin="round"/>
<path d="M65.1283 96.5122L47.4912 89.3747L62.4226 78.1649L60.5176 74.2881C60.5176 74.2881 43.3201 79.6119 39.4002 81.6212C35.4802 83.6305 27.4415 86.7348 27.3368 88.5241C27.2321 90.3133 47.172 106.651 52.4579 109.37C57.7438 112.088 64.6207 116.668 64.6207 116.668C64.6207 116.668 62.5272 144.089 62.4278 145.419C62.3284 146.749 54.6874 176.012 54.635 176.897C54.5827 177.782 58.0473 178.936 63.7624 178.794C69.4774 178.652 77.469 172.18 79.463 170.508C81.457 168.836 86.3347 166.871 88.4804 166.758C90.6262 166.646 98.5655 165.062 98.5655 165.062L110.393 130.156C110.393 130.156 115.156 110.201 111.294 107.551C107.431 104.901 91.406 102.076 91.406 102.076L73.9259 100.277L65.1283 96.5122Z" fill="#275F7A" stroke="#022C40" stroke-linecap="round" stroke-linejoin="round"/>
<path d="M74.7267 166.18C76.548 164.949 78.9136 163.678 81.2582 163.341C84.5123 162.905 87.7942 162.674 91.0816 162.652" fill="#275F7A"/>
<path d="M74.7267 166.18C76.548 164.949 78.9136 163.678 81.2582 163.341C84.5123 162.905 87.7942 162.674 91.0816 162.652" stroke="#022C40" stroke-linecap="round" stroke-linejoin="round"/>
<path d="M71.3824 168.865C71.3824 168.865 71.7697 168.489 72.4291 167.927L71.3824 168.865Z" fill="#275F7A"/>
<path d="M71.3824 168.865C71.3824 168.865 71.7697 168.489 72.4291 167.927" stroke="#022C40" stroke-linecap="round" stroke-linejoin="round"/>
<path d="M78.1755 161.757C77.387 161.962 76.6212 162.237 75.8884 162.578L78.1755 161.757Z" fill="#275F7A"/>
<path d="M78.1755 161.757C77.387 161.962 76.6212 162.237 75.8884 162.578" stroke="#022C40" stroke-linecap="round" stroke-linejoin="round"/>
<path d="M88.606 161.317C85.9549 160.981 83.2681 160.971 80.6143 161.288L88.606 161.317Z" fill="#275F7A"/>
<path d="M88.606 161.317C85.9549 160.981 83.2681 160.971 80.6143 161.288" stroke="#022C40" stroke-linecap="round" stroke-linejoin="round"/>
<path d="M61.2451 105.258L60.6798 103.361" stroke="#022C40" stroke-linecap="round" stroke-linejoin="round"/>
<path d="M64.6362 116.669L61.8572 107.316" stroke="#022C40" stroke-linecap="round" stroke-linejoin="round"/>
<path d="M47.4911 89.3502C45.043 89.6027 42.5671 89.4738 40.1642 88.969" stroke="#022C40" stroke-linecap="round" stroke-linejoin="round"/>
<path d="M100.057 125.038L108.3 145.81C108.3 145.81 98.1311 160.823 96.3517 162.725C94.8727 164.219 93.2867 165.617 91.6048 166.91L88.5275 166.748C87.104 166.675 83.5923 165.824 82.802 167.115C82.0117 168.406 82.153 169.97 79.5101 170.498C76.8671 171.026 79.1908 171.813 80.8499 171.901C82.5089 171.989 84.2883 170.082 84.9949 170.117L86.6539 170.205L94.0384 177.914L97.5554 170.772C97.5554 170.772 112.911 156.472 115.438 153.94C117.966 151.408 122.048 146.739 122.048 146.739C122.048 146.739 114.632 115.72 113.889 111.907C113.146 108.094 110.943 105.551 103.768 106.27" fill="#275F7A"/>
<path d="M100.057 125.038L108.3 145.81C108.3 145.81 98.1311 160.823 96.3517 162.725C94.8727 164.219 93.2867 165.617 91.6048 166.91L88.5275 166.748C87.104 166.675 83.5923 165.824 82.802 167.115C82.0117 168.406 82.153 169.97 79.5101 170.498C76.8671 171.026 79.1908 171.813 80.8499 171.901C82.5089 171.989 84.2883 170.082 84.9949 170.117L86.6539 170.205L94.0384 177.914L97.5554 170.772C97.5554 170.772 112.911 156.472 115.438 153.94C117.966 151.408 122.048 146.739 122.048 146.739C122.048 146.739 114.632 115.72 113.889 111.907C113.146 108.094 110.943 105.551 103.768 106.27" stroke="#022C40" stroke-linecap="round" stroke-linejoin="round"/>
<path d="M93.494 165.379C92.4473 166.269 91.5838 166.919 91.5838 166.919L88.5064 166.758C87.0829 166.685 83.5712 165.834 82.7809 167.125C81.9907 168.415 82.132 169.98 79.489 170.508C76.8461 171.036 79.1698 171.823 80.8288 171.911C82.4879 171.999 84.2673 170.092 84.9738 170.126L86.6328 170.214L94.0174 177.924L97.5343 170.781L98.4816 169.897L93.494 165.379Z" fill="white" stroke="#022C40" stroke-linecap="round" stroke-linejoin="round"/>
<path d="M80.8082 117.113L76.8202 113.227L71.3878 117.015L77.9297 106.446L81.656 107.693L80.8082 117.113Z" fill="white" stroke="#022C40" stroke-linecap="round" stroke-linejoin="round"/>
<path d="M76.5007 106.779C76.5007 106.779 79.0128 111.902 79.7246 114.043C80.4364 116.184 80.8079 117.123 80.8079 117.123L91.9083 100.878C91.9083 100.878 88.8938 94.811 88.585 92.9533C88.4528 91.9741 88.1281 91.0261 87.6273 90.157C87.6273 90.157 87.1667 95.5346 82.9851 99.5091C80.5994 101.75 78.4296 104.182 76.5007 106.779Z" fill="white" stroke="#022C40" stroke-linecap="round" stroke-linejoin="round"/>
<path d="M76.5007 106.778C76.5007 106.778 77.4375 108.69 78.3325 110.689L83.2573 102.315L81.4935 100.995C79.6801 102.806 78.0114 104.739 76.5007 106.778Z" fill="#022C40" stroke="#022C40" stroke-linecap="round" stroke-linejoin="round"/>
<path d="M82.0745 112.445L80.808 117.113L85.5234 113.545L82.0745 112.445Z" fill="white" stroke="#022C40" stroke-linecap="round" stroke-linejoin="round"/>
<path d="M91.3746 98.0815L82.0746 112.445L87.9781 119.587L95.4673 103.322L91.3746 98.0815Z" fill="white" stroke="#022C40" stroke-linecap="round" stroke-linejoin="round"/>
<path d="M59.5022 84.8821C59.5022 84.8821 61.9724 93.1929 63.061 96.2777C64.1496 99.3625 66.1069 101.973 68.9749 103.572C71.8429 105.17 72.9786 107.483 76.2129 107.644C79.4473 107.805 82.624 104.285 83.4091 103.005C84.1941 101.724 87.9361 98.1159 88.2397 95.3488C88.5432 92.5818 88.7107 89.8344 88.7107 89.8344C89.4808 89.0057 90.0509 88.0319 90.3823 86.9792C90.7137 85.9265 90.7987 84.8194 90.6314 83.7333C89.9981 80.1401 87.8 79.1036 87.8 79.1036C87.8 79.1036 85.3926 72.1226 77.8563 70.6755C70.32 69.2284 60.5855 75.97 60.1721 78.4534C59.8732 80.4122 59.6984 82.3858 59.6487 84.3639L59.5022 84.8821Z" fill="white" stroke="#022C40" stroke-linecap="round" stroke-linejoin="round"/>
<path d="M67.1954 92.3716C67.1954 92.3716 66.3214 95.2266 66.9599 96.3119C67.5984 97.3972 69.5034 96.3119 70.3774 95.823" stroke="#022C40" stroke-linecap="round" stroke-linejoin="round"/>
<path d="M67.9439 98.7368C67.9439 98.7368 69.8542 99.8905 72.785 98.067C74.5399 96.9706 75.8718 95.3769 76.5845 93.5205" stroke="#022C40" stroke-linecap="round" stroke-linejoin="round"/>
<path d="M76.3909 88.1229C76.3823 88.3137 76.3163 88.4985 76.2005 88.656C76.0846 88.8134 75.9236 88.9372 75.7358 89.0131C75.5481 89.089 75.3412 89.114 75.139 89.0852C74.9368 89.0563 74.7473 88.9749 74.5924 88.8501C74.4375 88.7253 74.3233 88.5623 74.263 88.3797C74.2028 88.1972 74.1988 88.0024 74.2516 87.8178C74.3044 87.6333 74.4118 87.4663 74.5616 87.3361C74.7113 87.206 74.8973 87.1178 75.0982 87.0818C75.4161 87.0654 75.7284 87.1647 75.9695 87.3588C76.2105 87.553 76.3616 87.8268 76.3909 88.1229Z" fill="#022C40"/>
<path d="M72.1256 88.2009C72.1071 87.9752 72.1449 87.7485 72.2359 87.5387C72.3269 87.3289 72.4687 87.1416 72.6502 86.9915C72.8317 86.8415 73.0479 86.7327 73.282 86.6737C73.516 86.6147 73.7615 86.6071 73.9992 86.6516" stroke="#022C40" stroke-linecap="round" stroke-linejoin="round"/>
<path d="M67.1588 90.7826C67.1534 90.9406 67.1001 91.0939 67.0051 91.2247C66.9101 91.3555 66.7773 91.4585 66.6222 91.5218C66.467 91.585 66.2958 91.6058 66.1285 91.5818C65.9612 91.5578 65.8046 91.49 65.6769 91.3862C65.5492 91.2825 65.4556 91.147 65.407 90.9956C65.3585 90.8442 65.3569 90.683 65.4024 90.5308C65.448 90.3785 65.5388 90.2415 65.6645 90.1355C65.7901 90.0296 65.9453 89.959 66.1121 89.9321C66.3702 89.9211 66.6229 90.0032 66.8178 90.1616C67.0127 90.3199 67.1348 90.5423 67.1588 90.7826Z" fill="#022C40"/>
<path d="M63.9402 91.0705C63.9216 90.8443 63.9594 90.6171 64.0507 90.4069C64.142 90.1966 64.2843 90.009 64.4664 89.8589C64.6485 89.7087 64.8655 89.6 65.1002 89.5414C65.3349 89.4828 65.581 89.4759 65.8191 89.5212" stroke="#022C40" stroke-linecap="round" stroke-linejoin="round"/>
<path d="M62.0876 89.6674C62.0876 89.6674 62.208 88.7681 63.7414 88.0056C65.2748 87.2432 65.7249 87.2041 65.7249 87.2041" stroke="#022C40" stroke-linecap="round" stroke-linejoin="round"/>
<path d="M69.2471 85.5563C70.0975 85.0516 71.0683 84.7511 72.0732 84.6814C73.2436 84.6099 74.4183 84.7324 75.543 85.0431" stroke="#022C40" stroke-linecap="round" stroke-linejoin="round"/>
<path d="M67.4624 63.4254C67.4624 63.4254 63.2441 61.9979 59.947 62.4966C56.6498 62.9952 49.9457 68.3973 50.9871 70.8563C52.0286 73.3153 56.4562 71.2767 56.0689 72.7287C55.6816 74.1806 50.2178 76.3023 49.4014 80.0031C48.5849 83.7038 51.0028 87.9814 54.996 88.1868C58.9892 88.3921 61.0199 81.8314 61.5013 83.7136C61.9828 85.5958 63.7518 85.8353 67.0175 83.3323C70.2833 80.8293 73.3815 76.1703 74.3445 77.4267C75.3075 78.6831 75.3912 82.6967 76.396 82.8825C77.4009 83.0683 79.1227 81.9537 80.2689 82.6821C81.415 83.4105 82.1477 85.9917 83.0688 85.5029C83.9899 85.014 83.6184 83.7918 84.1155 82.7505C84.6127 81.7092 84.6808 79.6071 86.9835 79.4213C87.868 79.3529 88.3233 79.3578 88.3233 79.3578C88.3233 79.3578 90.0609 72.626 87.5069 68.2164C84.9529 63.8067 75.9931 62.2619 73.8996 62.6872C72.6647 62.933 71.4534 63.2731 70.278 63.7041L67.4624 63.4254Z" fill="#022C40" stroke="#022C40" stroke-linecap="round" stroke-linejoin="round"/>
<path d="M85.5548 74.6743C86.1914 74.9279 86.7744 75.2854 87.2766 75.73" stroke="#696969" stroke-linecap="round" stroke-linejoin="round"/>
<path d="M76.0297 76.468C76.0297 76.468 80.002 73.8776 83.7963 74.2491" stroke="#696969" stroke-linecap="round" stroke-linejoin="round"/>
<path d="M68.2423 72.6846C65.5313 73.8188 62.2865 75.7694 61.3549 78.8297C59.675 84.3637 67.7294 79.8074 69.0116 78.3408C70.2939 76.8742 66.2536 76.6395 65.2225 77.9204" stroke="#696969" stroke-linecap="round" stroke-linejoin="round"/>
<path d="M72.2825 71.3892C71.4213 71.5834 70.5737 71.8266 69.7442 72.1174" stroke="#696969" stroke-linecap="round" stroke-linejoin="round"/>
<path d="M73.6642 66.9258C71.0921 67.3187 68.5898 68.0391 66.2273 69.067C61.0827 71.4723 53.8238 77.3241 52.8451 81.7239" stroke="#696969" stroke-linecap="round" stroke-linejoin="round"/>
<path d="M78.5209 66.3735C78.5209 66.3735 77.1288 66.4273 75.1296 66.701" stroke="#696969" stroke-linecap="round" stroke-linejoin="round"/>
<path d="M147.012 47.9576H168.993C169.965 47.9576 170.897 48.3181 171.584 48.9599C172.271 49.6016 172.657 50.4721 172.657 51.3797V62.4624C172.657 63.37 172.271 64.2404 171.584 64.8822C170.897 65.5239 169.965 65.8845 168.993 65.8845H153.293L154.151 71.7509L148.834 65.8845H146.997C146.025 65.8845 145.093 65.5239 144.406 64.8822C143.719 64.2404 143.333 63.37 143.333 62.4624V51.3797C143.333 50.929 143.429 50.4828 143.614 50.0667C143.799 49.6505 144.07 49.2726 144.412 48.9547C144.754 48.6367 145.159 48.3849 145.606 48.2138C146.052 48.0427 146.53 47.9556 147.012 47.9576Z" fill="white" stroke="#022C40" stroke-linecap="round" stroke-linejoin="round"/>
<path d="M155.188 59.9363C157.208 58.1743 157.315 55.2169 155.429 53.3307C153.543 51.4445 150.377 51.3438 148.358 53.1058C146.338 54.8678 146.231 57.8252 148.117 59.7114C150.003 61.5976 153.169 61.6983 155.188 59.9363Z" fill="#275F7A" stroke="#022C40" stroke-linecap="round" stroke-linejoin="round"/>
<path d="M149.771 54.8946C150.083 54.6571 150.461 54.5087 150.861 54.4671C151.262 54.4255 151.666 54.4925 152.026 54.66" stroke="#022C40" stroke-linecap="round" stroke-linejoin="round"/>
<path d="M154.528 54.8946C154.662 54.8016 154.817 54.7399 154.982 54.7145C155.147 54.6891 155.315 54.7008 155.474 54.7486C155.633 54.7964 155.777 54.879 155.895 54.9894C156.012 55.0998 156.1 55.2349 156.15 55.3833" stroke="#022C40" stroke-linecap="round" stroke-linejoin="round"/>
<path d="M150.776 57.1143C151.024 57.387 151.332 57.6084 151.677 57.7642C152.023 57.92 152.399 58.0069 152.783 58.0193C153.166 58.0317 153.548 57.9694 153.905 57.8363C154.261 57.7032 154.584 57.5022 154.852 57.2462" stroke="#022C40" stroke-linecap="round" stroke-linejoin="round"/>
<path opacity="0.2" d="M150.775 56.7079C150.775 56.4653 150.698 56.2281 150.554 56.0264C150.41 55.8247 150.205 55.6674 149.964 55.5746C149.724 55.4817 149.46 55.4574 149.206 55.5048C148.951 55.5521 148.717 55.6689 148.533 55.8405C148.349 56.0121 148.224 56.2307 148.173 56.4686C148.123 56.7066 148.149 56.9532 148.248 57.1774C148.348 57.4016 148.516 57.5932 148.732 57.728C148.948 57.8627 149.202 57.9347 149.462 57.9347C149.81 57.9347 150.144 57.8054 150.391 57.5754C150.637 57.3453 150.775 57.0333 150.775 56.7079Z" fill="black"/>
<path opacity="0.2" d="M156.527 56.9671C156.526 56.7537 156.457 56.5453 156.33 56.3683C156.202 56.1914 156.021 56.0537 155.81 55.9727C155.598 55.8917 155.366 55.871 155.142 55.9132C154.918 55.9554 154.712 56.0587 154.551 56.2099C154.39 56.3612 154.28 56.5537 154.236 56.763C154.192 56.9724 154.215 57.1893 154.303 57.3864C154.39 57.5835 154.538 57.7519 154.729 57.8704C154.919 57.9889 155.142 58.0521 155.371 58.0521C155.523 58.0521 155.674 58.024 155.814 57.9694C155.955 57.9148 156.083 57.8348 156.19 57.734C156.298 57.6332 156.383 57.5135 156.441 57.3819C156.498 57.2503 156.528 57.1093 156.527 56.9671Z" fill="black"/>
<path d="M166.904 60.0885C169 58.407 169.241 55.4563 167.44 53.498C165.64 51.5397 162.482 51.3152 160.385 52.9967C158.289 54.6782 158.048 57.6288 159.848 59.5871C161.649 61.5455 164.807 61.7699 166.904 60.0885Z" fill="#275F7A" stroke="#022C40" stroke-linecap="round" stroke-linejoin="round"/>
<path d="M161.635 54.8946C161.947 54.6581 162.324 54.5102 162.723 54.4686C163.122 54.427 163.526 54.4934 163.886 54.66" stroke="#022C40" stroke-linecap="round" stroke-linejoin="round"/>
<path d="M166.387 54.8946C166.521 54.8006 166.677 54.738 166.843 54.712C167.008 54.6861 167.177 54.6975 167.337 54.7454C167.496 54.7933 167.641 54.8762 167.759 54.9872C167.877 55.0982 167.965 55.2341 168.015 55.3834" stroke="#022C40" stroke-linecap="round" stroke-linejoin="round"/>
<path d="M162.635 57.1143C162.884 57.387 163.191 57.6084 163.536 57.7642C163.882 57.92 164.258 58.0069 164.642 58.0193C165.026 58.0317 165.408 57.9694 165.764 57.8363C166.12 57.7032 166.443 57.5022 166.712 57.2462" stroke="#022C40" stroke-linecap="round" stroke-linejoin="round"/>
<path opacity="0.2" d="M162.635 56.7079C162.635 56.4653 162.558 56.2281 162.413 56.0264C162.269 55.8247 162.064 55.6674 161.824 55.5746C161.584 55.4817 161.32 55.4574 161.065 55.5048C160.81 55.5521 160.576 55.6689 160.392 55.8405C160.208 56.0121 160.083 56.2307 160.033 56.4686C159.982 56.7066 160.008 56.9532 160.107 57.1774C160.207 57.4016 160.375 57.5932 160.591 57.728C160.807 57.8627 161.061 57.9347 161.321 57.9347C161.669 57.9347 162.004 57.8054 162.25 57.5754C162.496 57.3453 162.635 57.0333 162.635 56.7079Z" fill="black"/>
<path opacity="0.2" d="M168.392 56.9671C168.391 56.7537 168.322 56.5453 168.194 56.3683C168.066 56.1914 167.885 56.0537 167.674 55.9727C167.463 55.8917 167.23 55.871 167.006 55.9132C166.782 55.9554 166.576 56.0587 166.415 56.2099C166.254 56.3612 166.144 56.5537 166.1 56.763C166.056 56.9724 166.079 57.1893 166.167 57.3864C166.255 57.5835 166.403 57.7519 166.593 57.8704C166.783 57.9889 167.006 58.0521 167.235 58.0521C167.387 58.0521 167.538 58.024 167.679 57.9694C167.819 57.9148 167.947 57.8348 168.055 57.734C168.162 57.6332 168.247 57.5135 168.305 57.3819C168.363 57.2503 168.392 57.1093 168.392 56.9671Z" fill="black"/>
<path d="M108.352 47.9575H86.3713C85.3997 47.9575 84.4678 48.3181 83.7808 48.9598C83.0938 49.6016 82.7078 50.472 82.7078 51.3796V62.4623C82.7078 63.3699 83.0938 64.2404 83.7808 64.8821C84.4678 65.5239 85.3997 65.8844 86.3713 65.8844H102.072L101.214 71.7509L106.531 65.8844H108.352C109.324 65.8844 110.256 65.5239 110.943 64.8821C111.63 64.2404 112.016 63.3699 112.016 62.4623V51.3796C112.016 50.472 111.63 49.6016 110.943 48.9598C110.256 48.3181 109.324 47.9575 108.352 47.9575Z" fill="white" stroke="#022C40" stroke-linecap="round" stroke-linejoin="round"/>
<path d="M105.49 54.7578C105.488 53.8395 105.155 52.9484 104.545 52.2286C103.935 51.5087 103.082 51.0022 102.125 50.7908C101.169 50.5794 100.164 50.6755 99.2728 51.0636C98.3818 51.4516 97.6569 52.109 97.2153 52.9294C96.7736 52.109 96.0487 51.4516 95.1577 51.0636C94.2667 50.6755 93.2617 50.5794 92.305 50.7908C91.3483 51.0022 90.4959 51.5087 89.8855 52.2286C89.2751 52.9484 88.9423 53.8395 88.941 54.7578C88.941 56.8404 90.6471 58.9621 92.3376 60.1989C93.1854 60.8198 97.0478 63.2299 97.1629 63.1664C97.2781 63.2299 101.14 60.8198 101.988 60.1989C103.595 59.0257 105.49 56.7475 105.49 54.7578Z" fill="#275F7A" stroke="#022C40" stroke-linecap="round" stroke-linejoin="round"/>
</svg>
