<svg width="249" height="229" viewBox="0 0 249 229" fill="none" xmlns="http://www.w3.org/2000/svg">
<path d="M17.0909 129.406V28.2677H25.5896" stroke="#022C40" stroke-linecap="round" stroke-linejoin="round"/>
<path d="M17.0967 145.94V142.254" stroke="#022C40" stroke-linecap="round" stroke-linejoin="round"/>
<path d="M47.4377 28.2677H135.094V158.887H17.0909" stroke="#022C40" stroke-linecap="round" stroke-linejoin="round"/>
<path d="M36.6883 28.2676H44.3909" stroke="#022C40" stroke-linecap="round" stroke-linejoin="round"/>
<path d="M130.655 32.7546H21.5292V154.405H130.655V32.7546Z" stroke="#022C40" stroke-linecap="round" stroke-linejoin="round"/>
<path d="M125.581 41.2891V88.603H26.6031V84.2897" stroke="#022C40" stroke-linecap="round" stroke-linejoin="round"/>
<path d="M26.6031 74.1669V37.4509H125.581" stroke="#022C40" stroke-linecap="round" stroke-linejoin="round"/>
<path d="M26.6089 80.9675V76.77" stroke="#022C40" stroke-linecap="round" stroke-linejoin="round"/>
<path d="M108.87 93.5771H130.655" stroke="#022C40" stroke-linecap="round" stroke-linejoin="round"/>
<path d="M101.122 93.5771H104.203" stroke="#022C40" stroke-linecap="round" stroke-linejoin="round"/>
<path d="M21.5292 93.5771H97.4392" stroke="#022C40" stroke-linecap="round" stroke-linejoin="round"/>
<path d="M70.6085 88.6022V86.3301H79.7315V87.6226H76.0949V88.6022" stroke="#022C40" stroke-linecap="round" stroke-linejoin="round"/>
<path d="M21.7182 134.351C21.7182 134.351 23.2301 135.511 24.2953 142.526C24.2953 142.526 26.1279 131.319 28.35 131.145C30.572 130.971 30.1024 138.439 30.1024 138.439C30.1024 138.439 30.4689 134.757 32.2099 134.925C33.9509 135.093 32.2099 142.526 32.2099 142.526C32.2099 142.526 34.3002 136.728 36.276 136.833C38.2518 136.937 34.9645 147.332 34.9645 147.332C34.9645 147.332 40.0386 143.61 42.0945 145.431C44.1505 147.251 40.9491 151.843 40.9491 151.843C40.9491 151.843 48.228 150.243 49.3562 154.562" stroke="#022C40" stroke-linecap="round" stroke-linejoin="round"/>
<path d="M49.3732 150.376C49.3732 150.376 52.5459 148.271 55.0371 149.251C55.0371 149.251 53.4508 146.804 55.0371 145.309C56.6235 143.813 58.6622 149.251 58.6622 149.251C58.6622 149.251 58.8913 140.143 62.064 140.601C65.2367 141.059 62.064 149.251 62.064 149.251C62.064 149.251 67.7279 144.172 69.0852 145.941C70.4425 147.709 68.1803 150.376 68.1803 150.376C68.1803 150.376 71.5764 149.274 74.0676 151.843C74.0676 151.843 77.8645 147.918 82.0852 147.355C82.0852 147.355 79.2791 139.111 80.6421 137.447C82.0051 135.783 84.4676 144.642 84.4676 144.642C84.4676 144.642 85.55 138.879 89.095 138.439C89.095 138.439 86.1399 136.809 87.0161 134.351C87.8923 131.893 91.9699 134.931 91.9699 134.931C91.9699 134.931 90.2919 130.6 92.9434 129.412C95.595 128.223 96.7003 133.035 96.7003 133.035C96.7003 133.035 97.439 127.991 100.554 128.27C103.67 128.548 102.662 134.357 102.662 134.357C102.662 134.357 105.6 129.719 107.175 130.212C110.319 131.151 109.362 138.444 109.362 138.444C109.362 138.444 113.755 135.354 114.883 136.775C116.103 138.311 110.302 142.259 110.302 142.259C110.302 142.259 114.66 142.746 117.369 145.315" stroke="#022C40" stroke-linecap="round" stroke-linejoin="round"/>
<path d="M130.655 136.015C130.655 136.015 130.157 131.377 125.581 131.145C121.005 130.914 126.841 141.291 126.841 141.291C126.841 141.291 123.067 138.131 121.716 139.105C120.364 140.079 125.581 145.431 125.581 145.431C125.581 145.431 123.079 143.112 120.427 143.813C117.775 144.515 121.933 151.988 121.933 151.988C118.014 151.187 113.945 151.668 110.313 153.362" stroke="#022C40" stroke-linecap="round" stroke-linejoin="round"/>
<path d="M176.172 198.224V140.433H240.451" stroke="#022C40" stroke-linecap="round" stroke-linejoin="round"/>
<path d="M238.114 146.411H181.344V200.241" stroke="#022C40" stroke-linecap="round" stroke-linejoin="round"/>
<path d="M192.706 175.769V151.843H196.423V156.777H201.382V154.562H205.815V157.246H211.799V151.843H217.921V155.472H221.22V153.362H227.13V167.456" stroke="#022C40" stroke-linecap="round" stroke-linejoin="round"/>
<path d="M221.22 155.472V175.769" stroke="#022C40" stroke-linecap="round" stroke-linejoin="round"/>
<path d="M218.397 158.51V162.133" stroke="#022C40" stroke-linecap="round" stroke-linejoin="round"/>
<path d="M218.397 164.731V179.613" stroke="#022C40" stroke-linecap="round" stroke-linejoin="round"/>
<path d="M211.799 157.252V170.621" stroke="#022C40" stroke-linecap="round" stroke-linejoin="round"/>
<path d="M212.029 175.027V179.19" stroke="#022C40" stroke-linecap="round" stroke-linejoin="round"/>
<path d="M205.815 157.252V164.731" stroke="#022C40" stroke-linecap="round" stroke-linejoin="round"/>
<path d="M205.815 169.329V185.086" stroke="#022C40" stroke-linecap="round" stroke-linejoin="round"/>
<path d="M201.382 156.777V175.352" stroke="#022C40" stroke-linecap="round" stroke-linejoin="round"/>
<path d="M196.423 156.777V163.803" stroke="#022C40" stroke-linecap="round" stroke-linejoin="round"/>
<path d="M196.423 167.456V184.159" stroke="#022C40" stroke-linecap="round" stroke-linejoin="round"/>
<path d="M192.706 179.19V186.732" stroke="#022C40" stroke-linecap="round" stroke-linejoin="round"/>
<path d="M185.038 186.733H230.154" stroke="#022C40" stroke-linecap="round" stroke-linejoin="round"/>
<path d="M221.22 186.732V181.903" stroke="#022C40" stroke-linecap="round" stroke-linejoin="round"/>
<path d="M212.029 183.179V186.506" stroke="#022C40" stroke-linecap="round" stroke-linejoin="round"/>
<path d="M227.634 159.56H232.01" stroke="#022C40" stroke-linecap="round" stroke-linejoin="round"/>
<path d="M185.209 190.942H227.13" stroke="#022C40" stroke-linecap="round" stroke-linejoin="round"/>
<path d="M194.206 203.215V197.592H201.972V201.215H208.22V208.282H211.799V197.806H219.731V200.241H224.605" stroke="#022C40" stroke-linecap="round" stroke-linejoin="round"/>
<path d="M219.731 200.241V206.27" stroke="#022C40" stroke-linecap="round" stroke-linejoin="round"/>
<path d="M212.029 210.833V214.891" stroke="#022C40" stroke-linecap="round" stroke-linejoin="round"/>
<path d="M208.22 208.282V213.628" stroke="#022C40" stroke-linecap="round" stroke-linejoin="round"/>
<path d="M201.972 201.215V204.281" stroke="#022C40" stroke-linecap="round" stroke-linejoin="round"/>
<path d="M238.309 17.0786H101.07V113.069H238.309V17.0786Z" fill="#275F7A" stroke="#022C40" stroke-linecap="round" stroke-linejoin="round"/>
<path d="M238.309 17.0786H101.07V26.5692H238.309V17.0786Z" fill="#022C40"/>
<path d="M156.667 82.893L153.448 78.3593C153.448 77.4124 153.4 76.4662 153.305 75.5243C153.185 75.101 151.232 71.9877 151.186 71.2515C151.179 70.8999 151.135 70.55 151.054 70.2079C151.054 70.2079 150.052 70.463 150.064 71.0833C150.075 71.7037 150.184 73.7966 150.184 73.7966C150.184 73.7966 147.572 72.2544 147.28 71.8486C146.988 71.4428 143.804 69.0774 143.506 68.7237C143.208 68.3701 141.994 68.3469 141.851 68.7237L142.023 69.1585L141.021 69.6397L141.691 71.6515C141.499 72.1044 141.383 72.5863 141.347 73.0777C141.456 73.327 141.811 74.817 141.811 74.817C141.811 74.817 141.594 75.0431 141.622 75.8315C141.651 76.62 145.929 80.6493 146.776 81.0841C147.789 81.5147 148.825 81.8845 149.88 82.1915L152.566 85.7106L156.667 82.893Z" fill="white" stroke="#022C40" stroke-linecap="round" stroke-linejoin="round"/>
<path d="M150.178 73.7964C149.679 74.9481 149.55 76.2299 149.812 77.4596" stroke="#022C40" stroke-linecap="round" stroke-linejoin="round"/>
<path d="M142.017 69.1582C142.882 69.4944 143.964 71.1289 144.463 71.6332C144.913 72.0445 145.396 72.4186 145.906 72.7518" stroke="#022C40" stroke-linecap="round" stroke-linejoin="round"/>
<path d="M141.685 71.634C142.395 71.4833 142.876 71.7615 142.859 72.4628C142.842 73.1642 144.377 74.2307 144.377 74.2307" stroke="#022C40" stroke-linecap="round" stroke-linejoin="round"/>
<path d="M141.805 74.7991C141.805 74.7991 142.304 73.9007 142.699 74.3122C143.094 74.7238 143.22 75.7787 143.947 75.9989" stroke="#022C40" stroke-linecap="round" stroke-linejoin="round"/>
<path d="M198.519 77.965C198.519 77.965 187.22 78.6723 184.728 79.7043C182.684 80.5565 168.304 90.1399 168.304 90.1399C168.304 90.1399 159.845 83.6814 157.388 81.4435C156.914 81.2116 156.405 81.0626 155.882 81.0029L154.594 80.1739L151.427 84.6902L152.314 85.9366C152.314 85.9366 152.457 87.9484 152.853 88.4528C158.11 95.1374 168.178 104.495 169.69 105.416C171.202 106.338 184.614 98.3029 184.614 98.3029L187.105 113.087H227.107C227.107 113.087 227.004 87.1425 225.321 85.154C223.637 83.1654 204.337 75.3677 204.337 75.3677L198.519 77.965Z" fill="#757575" stroke="#022C40" stroke-linecap="round" stroke-linejoin="round"/>
<path d="M212.029 68.5786C212.029 68.5786 208.444 71.0136 210.345 78.7939C210.345 78.7939 204.944 82.7015 199.601 78.7591C199.601 78.7591 200.833 72.5558 199.601 71.3093" fill="white"/>
<path d="M212.029 68.5786C212.029 68.5786 208.444 71.0136 210.345 78.7939C210.345 78.7939 204.944 82.7015 199.601 78.7591C199.601 78.7591 200.833 72.5558 199.601 71.3093" stroke="#022C40" stroke-linecap="round" stroke-linejoin="round"/>
<path d="M224.605 86.3599C224.605 86.3599 219.731 92.0357 219.164 101.752" stroke="#022C40" stroke-linecap="round" stroke-linejoin="round"/>
<path d="M203.158 52.9891C203.158 52.9891 199.962 52.5022 198.845 56.4677C198.195 58.8963 198.458 61.4829 199.584 63.7263L205.46 58.1432L203.158 52.9891Z" fill="#022C40"/>
<path d="M210.935 70.944C215.052 65.9696 217.962 57.6791 211.777 54.3687C199.842 47.9798 195.896 60.462 197.9 72.0571C198.519 75.6342 203.318 74.0399 206.828 72.747" fill="white"/>
<path d="M210.935 70.944C215.052 65.9696 217.962 57.6791 211.777 54.3687C199.842 47.9798 195.896 60.462 197.9 72.0571C198.519 75.6342 203.318 74.0399 206.828 72.747" stroke="#022C40" stroke-linecap="round" stroke-linejoin="round"/>
<path d="M202.596 60.1316C202.596 60.1316 204.566 60.6706 205.065 61.7371" stroke="#022C40" stroke-linecap="round" stroke-linejoin="round"/>
<path d="M199.744 59.6042C199.512 59.4884 199.254 59.4351 198.995 59.4493C198.737 59.4635 198.486 59.5448 198.267 59.6853" stroke="#022C40" stroke-linecap="round" stroke-linejoin="round"/>
<path d="M202.562 62.8794C202.528 63.2329 202.682 63.5402 202.906 63.5633C203.129 63.5865 203.341 63.3141 203.375 62.9837C203.41 62.6533 203.255 62.3172 203.032 62.294C202.808 62.2708 202.596 62.52 202.562 62.8794Z" fill="#022C40"/>
<path d="M198.29 61.807C198.261 62.1664 198.416 62.4736 198.639 62.4968C198.862 62.52 199.074 62.2475 199.109 61.9172C199.143 61.5868 198.988 61.2564 198.759 61.2332C198.53 61.21 198.324 61.4535 198.29 61.807Z" fill="#022C40"/>
<path d="M209.096 65.2044C209.096 65.2044 207.247 67.9176 206.004 68.7873C205.201 69.3078 204.233 69.5024 203.295 69.3323C203.295 69.3323 201.709 67.3495 199.395 67.3205C198.796 66.9345 198.115 66.698 197.408 66.6306L197.539 63.6042C197.539 63.6042 195.781 70.0917 195.947 72.4166C196.113 74.7414 201.76 76.3531 204.584 75.7038C207.407 75.0544 208.844 70.6077 209.703 66.4277C209.766 66.0798 209.096 65.2044 209.096 65.2044Z" fill="#022C40"/>
<path d="M197.751 68.8162C197.751 68.8162 199.985 69.9 201.972 69.645" stroke="white" stroke-linecap="round" stroke-linejoin="round"/>
<path d="M210.946 56.937C211.679 56.3572 209.801 53.8643 208.747 53.9165C207.693 53.9686 202.522 54.1658 202.522 54.1658C202.522 54.1658 201.434 48.403 210.139 51.5163C211.565 52.0265 212.023 53.3773 213.3 54.0672C214.577 54.7571 216.307 58.3864 215.814 61.4823C215.322 64.5782 213.689 70.0105 210.729 71.6396C210.729 71.6396 209.709 71.5353 210.328 70.8222C213.243 67.5002 210.19 61.2504 209.703 66.416L208.678 65.7957C208.67 65.2285 208.728 64.6622 208.85 64.1086C209.068 62.6882 207.516 59.7836 210.946 56.937Z" fill="#022C40"/>
<path d="M210.5 64.8278C210.5 64.8278 212.372 62.5783 213.506 63.3436C214.64 64.1089 213.878 66.8221 213.271 67.5005C212.664 68.1788 212.172 68.3295 211.33 69.4137C210.488 70.4978 209.429 70.1326 209.612 69.2629" fill="white"/>
<path d="M210.5 64.8278C210.5 64.8278 212.372 62.5783 213.506 63.3436C214.64 64.1089 213.878 66.8221 213.271 67.5005C212.664 68.1788 212.172 68.3295 211.33 69.4137C210.488 70.4978 209.429 70.1326 209.612 69.2629" stroke="#022C40" stroke-linecap="round" stroke-linejoin="round"/>
<path d="M204.773 63.1694C204.836 64.4275 204.08 65.4885 203.055 65.5406C202.029 65.5928 201.193 64.6188 201.13 63.3608C201.067 62.1027 201.823 61.0417 202.848 60.9896C203.874 60.9374 204.698 61.9114 204.773 63.1694Z" stroke="#022C40" stroke-width="0.5" stroke-miterlimit="10"/>
<path d="M199.492 62.0271C199.561 63.2852 198.799 64.3461 197.803 64.4041C196.806 64.4621 195.942 63.4765 195.873 62.2184C195.804 60.9603 196.572 59.8994 197.591 59.8472C198.61 59.795 199.429 60.769 199.492 62.0271Z" stroke="#022C40" stroke-width="0.5" stroke-miterlimit="10"/>
<path d="M200.036 60.949C200.036 61.5287 197.07 64.9551 197.036 65.7088C197.001 66.4625 199.796 66.5088 199.796 66.5088" fill="white"/>
<path d="M200.036 60.949C200.036 61.5287 197.07 64.9551 197.036 65.7088C197.001 66.4625 199.796 66.5088 199.796 66.5088" stroke="#022C40" stroke-linecap="round" stroke-linejoin="round"/>
<path d="M199.492 62.0272C199.492 62.0272 200.38 61.8011 201.125 63.0125" stroke="#022C40" stroke-width="0.5" stroke-miterlimit="10"/>
<path d="M204.784 63.6101L205.746 63.755L211.147 64.1376" stroke="#022C40" stroke-width="0.5" stroke-miterlimit="10"/>
<path d="M221.22 89.4495L220.143 88.0986C220.143 88.0986 211.072 89.148 207.063 94.6209C207.063 94.6209 199.618 91.0612 192.918 92.7947L192.723 95.2239L207.378 104.1L213.105 101.688L221.22 89.4495Z" fill="white" stroke="#022C40" stroke-linecap="round" stroke-linejoin="round"/>
<path d="M222.692 88.6321L221.146 99.0677C221.146 99.0677 212.613 102.859 210.837 105.909L210.414 105.967L208.409 106.251L207.327 105.926C204.678 105.146 201.98 104.549 199.252 104.141C198.305 103.993 197.344 103.956 196.388 104.03L190.616 94.9224C190.616 94.9224 199.544 93.6702 205.717 95.8095L208.673 95.6008L208.781 95.508C209.669 94.7717 215.888 89.7684 222.692 88.6321Z" fill="#275F7A"/>
<path opacity="0.3" d="M210.299 103.532L208.781 95.5024C209.663 94.772 215.883 89.7686 222.686 88.6323L221.14 99.068C221.14 99.068 212.607 102.86 210.832 105.909L210.408 105.967L210.299 103.532Z" fill="black" fill-opacity="0.7"/>
<path opacity="0.3" d="M207.361 104.1L207.321 105.921C204.673 105.14 201.975 104.544 199.246 104.135C199.367 102.294 200.079 100.543 201.273 99.1477C202.466 97.7528 204.077 96.7906 205.861 96.4071L207.361 104.1Z" fill="black" fill-opacity="0.7"/>
<path d="M222.692 88.6321L221.146 99.0677C221.146 99.0677 212.613 102.859 210.837 105.909L210.414 105.967L208.409 106.251L207.327 105.926C204.678 105.146 201.98 104.549 199.252 104.141C198.305 103.993 197.344 103.956 196.388 104.03L190.616 94.9224C190.616 94.9224 199.544 93.6702 205.717 95.8095L208.673 95.6008L208.781 95.508C209.669 94.7717 215.888 89.7684 222.692 88.6321Z" stroke="#022C40" stroke-linecap="round" stroke-linejoin="round"/>
<path d="M210.265 108.454C207.207 108.257 201.388 103.515 201.388 103.515C201.038 102.63 200.546 101.809 199.933 101.086C199.103 100.245 200.208 99.5434 200.208 99.5434C200.208 99.5434 199.24 98.9114 198.691 98.5636C198.141 98.2157 199.103 97.2997 199.103 97.2997C199.103 97.2997 203.255 97.8795 203.684 97.7229C204.114 97.5664 208.1 100.175 208.718 100.245C209.559 100.26 210.387 100.042 211.112 99.6129C211.525 99.2651 212.802 97.091 213.632 96.6678C214.463 96.2445 215.923 96.2503 215.224 97.1606C214.526 98.0708 214.651 100.1 214.308 100.384C213.964 100.668 213.397 103.718 213.397 104.767L217.922 108.953L215.344 112.507L210.265 108.454Z" fill="white" stroke="#022C40" stroke-linecap="round" stroke-linejoin="round"/>
<path d="M200.191 99.5435C201.004 99.6355 201.797 99.8606 202.539 100.21" stroke="#022C40" stroke-linecap="round" stroke-linejoin="round"/>
<path d="M203.272 101.201C203.272 101.201 203.014 102.262 202.946 102.425C202.877 102.587 203.799 103.625 203.667 104.1C203.536 104.576 204.601 105.839 204.601 105.839" stroke="#022C40" stroke-linecap="round" stroke-linejoin="round"/>
<path d="M202.23 102.424C201.434 102.037 200.668 101.589 199.939 101.085" stroke="#022C40" stroke-linecap="round" stroke-linejoin="round"/>
<path d="M200.014 76.0227L201.995 80.0636L210.139 75.4951L211.931 79.5418L203.621 84.8814L202.024 80.7013L198.794 83.8494L197.7 78.7592L200.014 76.0227Z" fill="#757575" stroke="#022C40" stroke-linecap="round" stroke-linejoin="round"/>
<path d="M225.344 85.1362C227.319 87.2755 234.346 102.964 235.022 113.069H213.615V112.165L211.278 110.779C211.278 110.779 212.727 105.619 216.856 106.425L218.059 108.164L220.722 110.193C220.722 110.193 225.395 110.315 226.752 111.678" fill="#757575"/>
<path d="M225.344 85.1362C227.319 87.2755 234.346 102.964 235.022 113.069H213.615V112.165L211.278 110.779C211.278 110.779 212.727 105.619 216.856 106.425L218.059 108.164L220.722 110.193C220.722 110.193 225.395 110.315 226.752 111.678" stroke="#022C40" stroke-linecap="round" stroke-linejoin="round"/>
<path d="M220.722 110.216C220.722 110.216 223.316 106.431 227.13 108.031" stroke="#022C40" stroke-linecap="round" stroke-linejoin="round"/>
<path d="M219.731 104.1C220.564 105.665 221.306 107.277 221.953 108.929" stroke="#022C40" stroke-linecap="round" stroke-linejoin="round"/>
<path d="M184.614 98.2854C184.614 98.2854 183.028 88.9282 183.469 85.6931L184.614 98.2854Z" fill="#757575"/>
<path d="M184.614 98.2854C184.614 98.2854 183.028 88.9282 183.469 85.6931" stroke="#022C40" stroke-linecap="round" stroke-linejoin="round"/>
<path d="M181.441 89.3398C181.441 89.3398 182.323 93.9373 184.305 96.4013L181.441 89.3398Z" fill="#757575"/>
<path d="M181.441 89.3398C181.441 89.3398 182.323 93.9373 184.305 96.4013" stroke="#022C40" stroke-linecap="round" stroke-linejoin="round"/>
<path d="M168.304 90.1455C168.304 90.1455 170.795 92.2326 169.209 97.4389L168.304 90.1455Z" fill="#757575"/>
<path d="M168.304 90.1455C168.304 90.1455 170.795 92.2326 169.209 97.4389" stroke="#022C40" stroke-linecap="round" stroke-linejoin="round"/>
<path d="M201.617 84.0117C201.617 84.1197 201.585 84.2252 201.526 84.315C201.467 84.4047 201.382 84.4745 201.283 84.5156C201.185 84.5566 201.076 84.5671 200.972 84.5456C200.867 84.5241 200.771 84.4716 200.696 84.3948C200.621 84.3181 200.57 84.2204 200.55 84.1144C200.53 84.0083 200.541 83.8986 200.583 83.7991C200.625 83.6997 200.695 83.615 200.784 83.5558C200.873 83.4967 200.978 83.4657 201.085 83.4668C201.155 83.4668 201.225 83.481 201.29 83.5084C201.355 83.5359 201.414 83.5761 201.463 83.6268C201.513 83.6774 201.552 83.7375 201.578 83.8036C201.605 83.8697 201.618 83.9404 201.617 84.0117Z" fill="#022C40"/>
<path d="M200.208 91.9889C200.506 91.9889 200.747 91.7449 200.747 91.444C200.747 91.1431 200.506 90.8992 200.208 90.8992C199.911 90.8992 199.67 91.1431 199.67 91.444C199.67 91.7449 199.911 91.9889 200.208 91.9889Z" fill="#022C40"/>
<path d="M199.395 108.726C199.692 108.726 199.933 108.482 199.933 108.182C199.933 107.881 199.692 107.637 199.395 107.637C199.098 107.637 198.857 107.881 198.857 108.182C198.857 108.482 199.098 108.726 199.395 108.726Z" fill="#022C40"/>
<path d="M129.716 59.0008H136.462L139.841 53.0815L136.462 47.168H129.716L126.343 53.0815L129.716 59.0008Z" stroke="#022C40" stroke-linecap="round" stroke-linejoin="round"/>
<path d="M128.737 71.9758L125.363 66.0623H118.617" stroke="#022C40" stroke-linecap="round" stroke-linejoin="round"/>
<path d="M119.522 53.0816H126.268L129.641 47.1681L126.268 41.2488H119.522L116.149 47.1681L119.522 53.0816Z" stroke="#022C40" stroke-linecap="round" stroke-linejoin="round"/>
<path d="M129.716 47.168H136.462L139.841 41.2487L136.462 35.3352H129.716L126.343 41.2487L129.716 47.168Z" stroke="#022C40" stroke-linecap="round" stroke-linejoin="round"/>
<path d="M128.737 47.1678C128.736 46.9851 128.788 46.8061 128.888 46.6537C128.987 46.5012 129.13 46.3822 129.296 46.3117C129.463 46.2413 129.646 46.2225 129.823 46.2579C130.001 46.2933 130.163 46.3812 130.291 46.5104C130.419 46.6396 130.506 46.8044 130.541 46.9837C130.576 47.163 130.557 47.3488 130.487 47.5174C130.418 47.686 130.3 47.8299 130.15 47.9307C129.999 48.0316 129.822 48.0848 129.642 48.0836C129.402 48.0836 129.171 47.9872 129.002 47.8154C128.832 47.6437 128.737 47.4107 128.737 47.1678Z" fill="#022C40"/>
<path d="M115.553 35.6651C116.053 35.6651 116.458 35.2551 116.458 34.7493C116.458 34.2435 116.053 33.8335 115.553 33.8335C115.054 33.8335 114.648 34.2435 114.648 34.7493C114.648 35.2551 115.054 35.6651 115.553 35.6651Z" fill="#022C40"/>
<path d="M127.832 71.9756C127.832 71.7945 127.885 71.6174 127.984 71.4668C128.084 71.3162 128.225 71.1988 128.39 71.1295C128.556 71.0602 128.738 71.0421 128.913 71.0774C129.089 71.1127 129.25 71.2 129.376 71.328C129.503 71.4561 129.589 71.6193 129.624 71.7969C129.659 71.9746 129.641 72.1587 129.573 72.3261C129.504 72.4934 129.388 72.6364 129.239 72.7371C129.091 72.8377 128.916 72.8914 128.737 72.8914C128.497 72.8914 128.266 72.7949 128.097 72.6232C127.927 72.4514 127.832 72.2185 127.832 71.9756Z" fill="#022C40"/>
<path d="M118.617 66.9781C119.117 66.9781 119.522 66.5681 119.522 66.0623C119.522 65.5565 119.117 65.1465 118.617 65.1465C118.117 65.1465 117.712 65.5565 117.712 66.0623C117.712 66.5681 118.117 66.9781 118.617 66.9781Z" fill="#022C40"/>
<path d="M146.358 41.4052C146.358 41.2227 146.412 41.0443 146.512 40.8926C146.612 40.7409 146.755 40.6228 146.922 40.5532C147.088 40.4837 147.272 40.4657 147.449 40.5018C147.625 40.5378 147.788 40.6262 147.915 40.7556C148.042 40.8851 148.128 41.0499 148.163 41.229C148.197 41.4082 148.178 41.5936 148.108 41.7619C148.039 41.9302 147.921 42.0738 147.771 42.1743C147.62 42.2749 147.443 42.328 147.263 42.3268C147.144 42.3268 147.026 42.3029 146.916 42.2565C146.805 42.2102 146.705 42.1422 146.621 42.0565C146.537 41.9709 146.471 41.8692 146.425 41.7575C146.38 41.6457 146.358 41.526 146.358 41.4052Z" fill="#022C40"/>
<path d="M125.295 66.9781C125.794 66.9781 126.2 66.5681 126.2 66.0623C126.2 65.5565 125.794 65.1465 125.295 65.1465C124.795 65.1465 124.39 65.5565 124.39 66.0623C124.39 66.5681 124.795 66.9781 125.295 66.9781Z" fill="#022C40"/>
<path d="M138.913 41.4052C138.913 41.223 138.967 41.0448 139.067 40.8932C139.167 40.7417 139.309 40.6235 139.475 40.5538C139.642 40.484 139.825 40.4658 140.002 40.5014C140.178 40.5369 140.34 40.6247 140.468 40.7536C140.595 40.8825 140.682 41.0467 140.717 41.2254C140.752 41.4042 140.734 41.5895 140.665 41.7579C140.596 41.9263 140.48 42.0702 140.33 42.1715C140.18 42.2728 140.004 42.3268 139.824 42.3268C139.582 42.3268 139.351 42.2297 139.18 42.0569C139.009 41.8841 138.913 41.6497 138.913 41.4052Z" fill="#022C40"/>
<path d="M128.737 59.0006C128.736 58.8178 128.788 58.6389 128.888 58.4864C128.987 58.334 129.13 58.215 129.296 58.1445C129.463 58.074 129.646 58.0553 129.823 58.0907C130.001 58.126 130.163 58.2139 130.291 58.3432C130.419 58.4724 130.506 58.6371 130.541 58.8165C130.576 58.9958 130.557 59.1815 130.487 59.3502C130.418 59.5188 130.3 59.6627 130.15 59.7635C129.999 59.8643 129.822 59.9176 129.642 59.9164C129.402 59.9149 129.173 59.8179 129.003 59.6465C128.834 59.4751 128.738 59.243 128.737 59.0006Z" fill="#022C40"/>
<path d="M139.841 41.4055H147.269" stroke="#022C40" stroke-linecap="round" stroke-linejoin="round"/>
<path d="M129.642 59.0007L125.295 66.0622" stroke="#022C40" stroke-linecap="round" stroke-linejoin="round"/>
<path d="M119.522 41.2486L115.553 34.7495" stroke="#022C40" stroke-linecap="round" stroke-linejoin="round"/>
<path d="M111.745 87.5885C112.353 87.0342 113.036 86.5698 113.772 86.209C113.802 86.3951 113.901 86.5625 114.049 86.6768C114.197 86.7912 114.383 86.8436 114.568 86.8234C114.975 86.7596 115.433 86.3539 115.714 86.6495C115.828 86.7654 115.851 86.9509 115.971 87.061C116.338 87.403 116.962 86.6669 117.374 86.9451C117.483 87.0204 117.541 87.148 117.655 87.2233C117.746 87.2629 117.843 87.2833 117.941 87.2833C118.04 87.2833 118.137 87.2629 118.228 87.2233C119.251 86.9874 120.301 86.8957 121.349 86.9509L126.154 86.9857L125.787 86.7944" stroke="#022C40" stroke-linecap="round" stroke-linejoin="round"/>
<path d="M111.487 91.6467C111.527 91.4562 111.632 91.2859 111.783 91.1653C111.934 91.0446 112.122 90.9812 112.314 90.9861C112.507 90.9909 112.691 91.0636 112.836 91.1917C112.981 91.3197 113.077 91.495 113.108 91.6873C113.227 91.6311 113.333 91.5506 113.42 91.4509C113.507 91.3511 113.572 91.2342 113.612 91.1076C113.921 91.809 114.878 91.8669 115.639 91.8148L119.035 91.5713C120.055 91.496 121.246 91.3105 121.704 90.4121C122.208 91.3419 122.408 92.4089 122.277 93.4609C122.592 92.7037 123.002 91.9907 123.496 91.3395C123.6 91.7104 123.703 92.0814 123.8 92.4524C126.165 90.7773 129.401 91.8727 132.264 91.5076" stroke="#022C40" stroke-linecap="round" stroke-linejoin="round"/>
<path d="M111.791 97.0212C111.78 96.9146 111.808 96.8077 111.871 96.721C111.933 96.6343 112.025 96.5741 112.129 96.5517C112.161 96.6569 112.214 96.7542 112.284 96.8378C112.355 96.9214 112.442 96.9895 112.54 97.0378C112.637 97.0862 112.744 97.1137 112.852 97.1189C112.961 97.124 113.069 97.1065 113.171 97.0676C113.58 96.8939 113.93 96.604 114.179 96.233C114.264 96.3031 114.363 96.354 114.47 96.3822C114.576 96.4105 114.687 96.4154 114.796 96.3968C114.904 96.3781 115.007 96.3363 115.098 96.2741C115.19 96.2118 115.267 96.1306 115.324 96.0359C115.58 96.4546 115.791 96.8996 115.954 97.3632C116.263 96.5633 117.311 96.4358 118.165 96.4416H125.037" stroke="#022C40" stroke-linecap="round" stroke-linejoin="round"/>
<path d="M164.913 33.9207C163.273 33.8804 161.664 34.3832 160.332 35.3527C158.683 36.4195 157.113 38.2167 157.526 40.1531C157.938 42.0895 160.194 43.1157 162.182 43.5041C163.891 43.841 165.63 43.9965 167.37 43.9679C168.041 43.9781 168.71 43.9061 169.363 43.7534C170.024 43.564 170.664 43.3096 171.276 42.9939L175.709 40.8836C176.316 40.5937 176.997 40.2227 177.163 39.5617C177.369 38.7443 176.676 37.9848 176.018 37.492C173.53 35.6907 170.462 34.9079 167.428 35.3005" stroke="#022C40" stroke-linecap="round" stroke-linejoin="round"/>
<path d="M159.65 38.2571C159.911 37.9609 160.248 37.7441 160.624 37.6311C160.549 37.8528 160.549 38.0933 160.624 38.3151C160.727 38.5237 161.042 38.628 161.197 38.4542C161.351 38.2803 161.386 38.0021 161.558 38.089L161.764 38.5527C162.044 38.4542 162.262 38.2223 162.537 38.1006C162.85 37.9943 163.183 37.9626 163.51 38.0079C165.969 38.1356 168.434 38.06 170.881 37.7818" stroke="#022C40" stroke-linecap="round" stroke-linejoin="round"/>
<path d="M163.659 40.7501C163.695 40.6317 163.758 40.5234 163.842 40.4338C163.927 40.3442 164.031 40.2759 164.146 40.2343C164.014 40.3792 164.175 40.6284 164.369 40.6632C164.567 40.6668 164.763 40.6252 164.942 40.5415C165.159 40.4847 165.382 40.4536 165.606 40.4487L169.781 40.1589" stroke="#022C40" stroke-linecap="round" stroke-linejoin="round"/>
<path d="M165.44 46.6404C164.233 50.9982 161.728 54.8737 158.268 57.7398C154.808 60.6059 150.559 62.3235 146.101 62.6591" stroke="#022C40" stroke-linecap="round" stroke-linejoin="round"/>
<path d="M146.169 61.4011C145.359 61.9076 144.638 62.546 144.033 63.2907C144.391 63.2149 144.762 63.2409 145.105 63.3657C145.449 63.4905 145.752 63.7093 145.98 63.9978" stroke="#022C40" stroke-linecap="round" stroke-linejoin="round"/>
<path d="M164.066 62.781L164.587 63.9402L165.332 63.0476C165.471 63.1528 165.568 63.3049 165.606 63.4765C165.664 63.6388 165.75 63.8185 165.91 63.8649C166.07 63.9113 166.271 63.691 166.151 63.5693C166.256 63.6415 166.375 63.6897 166.501 63.7107C166.627 63.7318 166.755 63.725 166.878 63.691C166.987 63.691 167.084 63.6099 167.193 63.5809C167.322 63.5521 167.455 63.5404 167.588 63.5461H175.325" stroke="#022C40" stroke-linecap="round" stroke-linejoin="round"/>
<path d="M164.427 69.1582C164.463 69.0653 164.523 68.9836 164.599 68.9209C164.676 68.8582 164.768 68.8167 164.865 68.8003C164.963 68.784 165.063 68.7934 165.155 68.8277C165.248 68.862 165.33 68.9199 165.394 68.9959C165.42 69.0701 165.459 69.1389 165.509 69.1988C165.578 69.248 165.663 69.2694 165.746 69.2587C165.83 69.2479 165.907 69.2059 165.961 69.1408C166.087 69.0249 166.168 68.8684 166.299 68.764C166.66 68.48 167.176 68.7003 167.616 68.822C168.181 68.9416 168.761 68.9728 169.335 68.9147L173.727 68.6829" stroke="#022C40" stroke-linecap="round" stroke-linejoin="round"/>
<path d="M164.564 74.086C164.71 74.0899 164.853 74.044 164.971 73.9557C165.088 73.8675 165.173 73.7419 165.211 73.5991C165.284 73.6115 165.351 73.6458 165.404 73.6975C165.457 73.7492 165.494 73.8159 165.509 73.8889C165.719 73.7573 165.899 73.5814 166.036 73.373C168.865 73.4078 171.698 73.4078 174.535 73.373" stroke="#022C40" stroke-linecap="round" stroke-linejoin="round"/>
<path d="M164.558 77.7677C164.734 77.841 164.93 77.846 165.108 77.7818C165.287 77.7176 165.436 77.5887 165.526 77.4199C165.706 77.5671 165.831 77.7714 165.881 77.9995C165.994 77.9222 166.122 77.8693 166.256 77.8444C166.39 77.8194 166.527 77.8229 166.66 77.8546C166.769 77.8546 166.878 77.93 166.987 77.959C167.261 78.0302 167.546 78.0556 167.828 78.0343L177.702 77.8894" stroke="#022C40" stroke-linecap="round" stroke-linejoin="round"/>
<path d="M138.049 101.207L142.533 100.766C142.576 100.772 142.621 100.767 142.662 100.751C142.703 100.735 142.74 100.708 142.768 100.674C142.796 100.64 142.816 100.6 142.825 100.556C142.834 100.512 142.832 100.467 142.819 100.424V97.5256C142.83 97.4293 142.806 97.3323 142.75 97.2531C142.713 97.2191 142.67 97.1929 142.623 97.1759C142.575 97.159 142.525 97.1518 142.475 97.1546C141.502 97.0676 139.308 96.5748 138.467 97.2415C137.625 97.9083 138.054 100.216 138.049 101.207Z" stroke="#022C40" stroke-linecap="round" stroke-linejoin="round"/>
<path d="M139.331 98.6216C139.389 98.894 139.44 99.1664 139.498 99.4446C140.177 99.301 140.874 99.2639 141.565 99.3345" stroke="#022C40" stroke-linecap="round" stroke-linejoin="round"/>
<path d="M141.616 102.459C141.574 102.525 141.551 102.601 141.55 102.679C141.548 102.756 141.568 102.833 141.608 102.9C141.647 102.967 141.704 103.021 141.772 103.057C141.841 103.093 141.918 103.109 141.994 103.103C142.298 103.045 142.538 102.633 142.819 102.761" stroke="#022C40" stroke-linecap="round" stroke-linejoin="round"/>
<path d="M138.53 95.7751C138.586 95.6888 138.666 95.6211 138.761 95.5802C138.855 95.5393 138.958 95.527 139.059 95.5448C139.16 95.5627 139.254 95.6098 139.328 95.6806C139.403 95.7513 139.456 95.8426 139.48 95.9432L140.557 95.8157" stroke="#022C40" stroke-linecap="round" stroke-linejoin="round"/>
<path d="M147.464 105.388C148.991 105.388 150.518 105.388 152.045 105.388C153.232 105.403 154.419 105.332 155.596 105.173C155.728 105.166 155.853 105.113 155.951 105.022C156.032 104.904 156.067 104.759 156.048 104.617V97.5667C156.048 97.4855 149.033 97.2594 148.214 97.8334C146.564 99.0045 147.464 103.585 147.464 105.388Z" stroke="#022C40" stroke-linecap="round" stroke-linejoin="round"/>
<path d="M149.949 99.6536L151.043 99.6825C150.846 100.436 150.535 101.153 150.121 101.81C149.972 102.013 149.794 102.268 149.903 102.494C150.476 102.586 151.146 102.639 151.507 102.192C151.976 101.613 151.564 100.703 151.919 100.053L152.056 101.427L152.532 101.885C152.655 102.025 152.811 102.132 152.984 102.198C153.071 102.229 153.166 102.228 153.252 102.197C153.339 102.165 153.412 102.104 153.46 102.024" stroke="#022C40" stroke-linecap="round" stroke-linejoin="round"/>
<path d="M153.133 106.57C153.494 106.437 153.643 107.12 154.015 107.219C154.387 107.318 154.588 106.819 154.903 106.599C155.052 106.499 155.232 106.456 155.41 106.48C155.588 106.503 155.752 106.591 155.871 106.726" stroke="#022C40" stroke-linecap="round" stroke-linejoin="round"/>
<path d="M150.178 95.4153C150.522 95.5022 150.384 96.0818 150.642 96.3311C150.9 96.5803 151.329 96.3311 151.621 96.0934C151.913 95.8558 152.446 95.7515 152.555 96.0934" stroke="#022C40" stroke-linecap="round" stroke-linejoin="round"/>
<path d="M238.309 112.936H101.07V122.745H238.309V112.936Z" fill="#BFBFBF" stroke="#022C40" stroke-linecap="round" stroke-linejoin="round"/>
<path d="M212.916 116.797H123.245V118.883H212.916V116.797Z" fill="#022C40"/>
<path d="M174.099 117.857C174.099 118.159 174.011 118.454 173.846 118.704C173.68 118.955 173.445 119.15 173.17 119.266C172.894 119.381 172.592 119.411 172.299 119.353C172.007 119.294 171.739 119.149 171.528 118.935C171.318 118.722 171.174 118.451 171.116 118.155C171.058 117.859 171.088 117.553 171.202 117.274C171.316 116.995 171.509 116.757 171.756 116.59C172.004 116.422 172.295 116.333 172.593 116.333C172.993 116.333 173.376 116.494 173.658 116.779C173.941 117.065 174.099 117.453 174.099 117.857Z" fill="#275F7A" stroke="#022C40" stroke-linecap="round" stroke-linejoin="round"/>
<path d="M233.865 115.962H230.154V119.718H233.865V115.962Z" stroke="#022C40" stroke-linecap="round" stroke-linejoin="round"/>
<path d="M227.64 115.962H223.929V119.718H227.64V115.962Z" stroke="#022C40" stroke-linecap="round" stroke-linejoin="round"/>
<path d="M111.785 115.921H105.319V119.758H111.785V115.921Z" stroke="#022C40" stroke-linecap="round" stroke-linejoin="round"/>
<path d="M105.245 21.8213H129.642" stroke="white" stroke-linecap="round" stroke-linejoin="round"/>
<path d="M234.833 21.734C234.834 22.0222 234.751 22.3043 234.593 22.5444C234.436 22.7845 234.211 22.9719 233.948 23.0827C233.685 23.1936 233.396 23.2229 233.117 23.1669C232.837 23.111 232.581 22.9723 232.379 22.7685C232.178 22.5647 232.041 22.3049 231.986 22.0222C231.93 21.7394 231.959 21.4464 232.069 21.1803C232.178 20.9143 232.363 20.6871 232.601 20.5277C232.838 20.3683 233.117 20.2838 233.401 20.2849C233.781 20.2849 234.145 20.4376 234.414 20.7093C234.682 20.9811 234.833 21.3497 234.833 21.734V21.734Z" stroke="white" stroke-linecap="round" stroke-linejoin="round"/>
<path d="M229.169 21.8209C229.169 22.1075 229.085 22.3876 228.928 22.6259C228.771 22.8642 228.547 23.0499 228.285 23.1596C228.024 23.2693 227.736 23.298 227.458 23.2421C227.18 23.1862 226.925 23.0481 226.725 22.8455C226.525 22.6428 226.388 22.3846 226.333 22.1036C226.278 21.8225 226.306 21.5311 226.415 21.2663C226.523 21.0016 226.707 20.7753 226.942 20.616C227.177 20.4568 227.454 20.3718 227.737 20.3718C228.117 20.3718 228.481 20.5245 228.75 20.7962C229.018 21.068 229.169 21.4366 229.169 21.8209V21.8209Z" stroke="white" stroke-linecap="round" stroke-linejoin="round"/>
<path d="M223.505 21.9136C223.504 22.1999 223.419 22.4795 223.261 22.717C223.103 22.9546 222.879 23.1394 222.617 23.2482C222.356 23.357 222.068 23.3848 221.791 23.3283C221.513 23.2717 221.259 23.1332 221.059 22.9304C220.859 22.7275 220.724 22.4693 220.669 22.1884C220.614 21.9074 220.643 21.6164 220.751 21.3519C220.86 21.0875 221.043 20.8615 221.279 20.7025C221.514 20.5436 221.791 20.4587 222.074 20.4587C222.262 20.4587 222.449 20.4964 222.623 20.5696C222.797 20.6428 222.955 20.75 223.088 20.8852C223.221 21.0204 223.326 21.1808 223.398 21.3573C223.47 21.5337 223.506 21.7228 223.505 21.9136V21.9136Z" stroke="white" stroke-linecap="round" stroke-linejoin="round"/>
<path d="M114.729 213.634H101.167L93.8254 211.28L91.5347 210.544L90.8646 217.541L10.5621 217.692C10.5621 217.692 11.7877 214.562 13.7864 209.97C18.0987 200.062 26.0018 183.33 32.9142 176.495C38.5265 170.946 52.546 170.79 52.546 170.79C53.9772 169.829 55.6565 169.317 57.3737 169.317C59.9508 169.445 79.4337 171.584 80.6421 172.216C81.4833 172.71 82.2053 173.387 82.7553 174.199C82.7553 174.199 89.5818 171.143 96.288 173.897C102.994 176.651 114.729 213.634 114.729 213.634Z" fill="#F2F6FA"/>
<path opacity="0.2" d="M93.8254 211.28L91.5347 210.544L90.8646 217.541L10.5621 217.692C10.5621 217.692 11.7877 214.561 13.7864 209.97C16.8846 209.894 20.378 209.732 20.378 209.732L22.1763 203.778C22.1763 203.778 24.9996 200.757 28.5274 202.537C28.4097 202.087 28.4342 201.61 28.5975 201.175C28.7608 200.739 29.0547 200.366 29.438 200.108C30.801 199.192 36.3904 202.131 36.3904 202.131C36.3904 202.131 39.082 196.914 39.9983 193.499C40.9146 190.084 41.5217 198.328 41.5217 198.328C41.5217 198.328 43.8125 194.537 43.8125 193.499C43.8125 192.461 48.0389 203.778 48.0389 203.778C48.0389 203.778 53.6283 204.456 55.1402 205.036C56.6521 205.616 71.7024 206.196 76.5474 205.036C81.3923 203.876 73.1112 210.834 73.1112 210.834C73.1112 210.834 81.6214 213.732 86.432 211.831C91.2426 209.929 93.3959 207.894 93.3959 207.894C93.3959 207.894 93.5734 209.303 93.8254 211.28Z" fill="black" fill-opacity="0.7"/>
<path d="M114.729 213.634H101.167L93.8254 211.28L91.5346 210.544L90.8646 217.541L10.5621 217.692C10.5621 217.692 11.7877 214.562 13.7864 209.97C18.0987 200.062 26.0018 183.33 32.9142 176.495C38.5265 170.946 52.546 170.79 52.546 170.79C53.9772 169.829 55.6565 169.317 57.3737 169.317C59.9508 169.445 79.4337 171.584 80.6421 172.216C81.4833 172.71 82.2053 173.387 82.7553 174.199C82.7553 174.199 89.5818 171.143 96.288 173.897C102.994 176.651 114.729 213.634 114.729 213.634Z" stroke="#022C40" stroke-linecap="round" stroke-linejoin="round"/>
<path d="M89.4043 195.754C88.2117 197.457 86.8513 199.032 85.344 200.456" stroke="#022C40" stroke-linecap="round" stroke-linejoin="round"/>
<path d="M81.3753 203.836C75.5409 208.199 68.6836 210.946 61.4801 211.807" stroke="#022C40" stroke-linecap="round" stroke-linejoin="round"/>
<path d="M106.453 201.859C106.453 201.859 108.538 200.549 110.365 200.978C112.192 201.407 113.704 203.233 113.704 203.233C113.704 203.233 128.868 201.963 132.31 202.074C135.752 202.184 143.455 204.468 143.455 204.468C143.455 204.468 147.189 203.703 147.59 203.859C147.99 204.016 146.782 216.88 146.782 216.88H97.5308C95.114 216.88 93.3215 213.338 91.5061 210.555C94.6337 199.482 96.2333 188.024 96.2594 176.506" fill="#F2F6FA"/>
<path opacity="0.2" d="M119.969 216.869H97.5422C95.1255 216.869 93.333 213.327 91.5175 210.544C93.3131 204.297 94.5908 197.909 95.3374 191.447C95.3374 191.447 97.7198 195.024 96.2709 199.169L97.7198 195.024C97.7198 195.024 99.1114 199.465 97.7198 203.227C96.3281 206.99 95.3374 208.068 95.3374 208.068C95.3374 208.068 97.0554 210.341 98.8766 209.732C100.698 209.123 102.679 212.811 102.679 212.811C102.679 212.811 107.055 212.979 107.965 212.811C108.383 212.735 114.047 214.712 119.969 216.869Z" fill="black" fill-opacity="0.7"/>
<path d="M106.453 201.859C106.453 201.859 108.538 200.549 110.365 200.978C112.192 201.407 113.704 203.233 113.704 203.233C113.704 203.233 128.868 201.963 132.31 202.074C135.752 202.184 143.455 204.468 143.455 204.468C143.455 204.468 147.189 203.703 147.59 203.859C147.99 204.016 146.782 216.88 146.782 216.88H97.5308C95.114 216.88 93.3215 213.338 91.5061 210.555C94.6337 199.482 96.2333 188.024 96.2594 176.506" stroke="#022C40" stroke-linecap="round" stroke-linejoin="round"/>
<path d="M78.2999 161.798V174.181C76.7491 175.251 75.1433 176.236 73.4893 177.132C70.1505 178.924 65.8668 180.698 63.3184 179.689C58.6968 177.851 55.7016 170.79 55.7016 170.79C60.6897 166.94 61.291 161.798 62.047 159.351L78.2999 161.798Z" fill="#F2F6FA" stroke="#022C40" stroke-linecap="round" stroke-linejoin="round"/>
<path d="M53.2849 171.735C53.2849 171.735 57.5171 181.063 62.6541 182.75C67.7911 184.437 76.4903 177.851 76.4903 177.851" stroke="#022C40" stroke-linecap="round" stroke-linejoin="round"/>
<path d="M30.1768 183.023C30.1768 183.023 38.1944 189.342 39.5403 191.47C40.8861 193.597 39.5403 213.634 39.5403 213.634" stroke="#022C40" stroke-linecap="round" stroke-linejoin="round"/>
<path d="M19.2614 203.412C23.9861 200.328 27.3077 203.702 30.1769 204.311C33.0461 204.92 39.3915 201.638 44.1505 204.311C48.9095 206.984 48.9095 206.05 48.9095 206.05C48.9095 206.05 53.8919 209.9 51.3206 217.605L10.5451 217.68C10.5451 217.68 7.82482 211.796 16.7645 203.401" fill="#F2F6FA"/>
<path d="M19.2614 203.412C23.9861 200.328 27.3077 203.702 30.1769 204.311C33.0461 204.92 39.3914 201.638 44.1505 204.311C48.9095 206.984 48.9095 206.05 48.9095 206.05C48.9095 206.05 53.8919 209.9 51.3206 217.605L10.5451 217.68C10.5451 217.68 7.82482 211.796 16.7645 203.401" stroke="#022C40" stroke-linecap="round" stroke-linejoin="round"/>
<path d="M59.2178 191.487L69.9786 211.413L70.3165 213.651L68.5984 212.103L57.4997 192.322C57.6629 192.017 57.9168 191.773 58.2253 191.623C58.5338 191.473 58.881 191.425 59.2178 191.487Z" fill="#275F7A" stroke="#022C40" stroke-linecap="round" stroke-linejoin="round"/>
<path d="M49.001 207.094C49.8137 206.855 50.6485 206.702 51.4922 206.636C52.4028 206.636 58.0037 202.444 59.905 202.131C61.8064 201.818 65.2253 204.688 66.9663 205.146C68.7073 205.604 68.5985 207.9 69.6179 208.816C70.6372 209.732 69.1654 210.764 67.8998 209.732C67.9902 210.09 67.9958 210.465 67.9162 210.825C67.8365 211.186 67.674 211.522 67.4416 211.807C67.4416 211.807 67.7853 213.06 67.4416 213.634H47.283C47.283 213.634 46.9795 209.732 49.001 207.094Z" fill="#F2F6FA" stroke="#022C40" stroke-linecap="round" stroke-linejoin="round"/>
<path d="M67.94 209.731L66.1246 207.917L61.4801 206.41" stroke="#022C40" stroke-linecap="round" stroke-linejoin="round"/>
<path d="M67.4876 211.807L64.71 210.543L60.9131 209.819" stroke="#022C40" stroke-linecap="round" stroke-linejoin="round"/>
<path d="M60.9131 212.811L64.71 212.985L67.4876 213.634" stroke="#022C40" stroke-linecap="round" stroke-linejoin="round"/>
<path d="M59.9222 202.131C58.2042 203.656 59.9222 205.262 59.1033 206.41C58.2843 207.558 57.3852 207.9 58.0839 209.732" stroke="#022C40" stroke-linecap="round" stroke-linejoin="round"/>
<path d="M84.4391 214.602H176.172C176.172 215.421 175.851 216.207 175.278 216.786C174.706 217.366 173.93 217.691 173.12 217.691H91.7981C91.4792 217.691 91.1624 217.64 90.8589 217.54L84.3245 215.407C84.2312 215.379 84.1511 215.318 84.0987 215.235C84.0463 215.152 84.0251 215.052 84.039 214.955C84.0529 214.857 84.1009 214.768 84.1743 214.703C84.2477 214.638 84.3417 214.602 84.4391 214.602Z" fill="#275F7A"/>
<path opacity="0.2" d="M176.173 214.602C176.172 215.421 175.85 216.207 175.279 216.787L175.188 216.868C174.626 217.397 173.887 217.691 173.12 217.691H91.7982C91.4793 217.691 91.1624 217.64 90.859 217.541L84.3246 215.408C84.2303 215.379 84.1495 215.317 84.097 215.233C84.0446 215.148 84.0242 215.048 84.0396 214.949C84.055 214.851 84.1051 214.761 84.1807 214.697C84.2563 214.634 84.3522 214.6 84.4506 214.602H176.173Z" fill="black" fill-opacity="0.7"/>
<path opacity="0.2" d="M176.173 214.602C176.172 215.421 175.85 216.207 175.279 216.787L175.188 216.868H122.701C122.106 216.868 121.536 216.629 121.115 216.205C120.694 215.78 120.457 215.203 120.456 214.602H176.173Z" fill="black" fill-opacity="0.7"/>
<path d="M84.4391 214.602H176.172C176.172 215.421 175.851 216.207 175.278 216.786C174.706 217.366 173.93 217.691 173.12 217.691H91.7981C91.4792 217.691 91.1624 217.64 90.8589 217.54L84.3245 215.407C84.2312 215.379 84.1511 215.318 84.0987 215.235C84.0463 215.152 84.0251 215.052 84.039 214.955C84.0529 214.857 84.1009 214.768 84.1743 214.703C84.2477 214.638 84.3417 214.602 84.4391 214.602V214.602Z" stroke="#022C40" stroke-linecap="round" stroke-linejoin="round"/>
<path d="M120.456 214.602C120.457 215.203 120.694 215.78 121.115 216.205C121.536 216.629 122.106 216.868 122.701 216.868H131.411" stroke="#022C40" stroke-linecap="round" stroke-linejoin="round"/>
<path d="M192.591 176.483V176.558L181.916 214.156C181.757 214.638 181.457 215.061 181.055 215.366C180.653 215.672 180.168 215.846 179.666 215.866H124.058C123.847 215.883 123.636 215.846 123.443 215.759C123.25 215.671 123.082 215.536 122.954 215.366C122.827 215.195 122.743 214.995 122.712 214.784C122.681 214.572 122.702 214.356 122.775 214.156L133.438 176.558C133.597 176.075 133.897 175.652 134.299 175.347C134.702 175.041 135.186 174.867 135.689 174.848H191.297C191.501 174.83 191.707 174.863 191.895 174.944C192.083 175.025 192.249 175.153 192.377 175.314C192.505 175.476 192.592 175.668 192.629 175.871C192.667 176.075 192.654 176.285 192.591 176.483Z" fill="#275F7A"/>
<path opacity="0.4" d="M192.592 176.483V176.558L181.917 214.156C181.758 214.638 181.457 215.061 181.055 215.366C180.653 215.672 180.168 215.846 179.666 215.866H124.424V215.791L135.082 178.193C135.241 177.711 135.542 177.288 135.944 176.983C136.346 176.677 136.83 176.503 137.333 176.483H192.592Z" fill="#F2F6FA"/>
<path d="M192.591 176.483V176.558L181.916 214.156C181.757 214.638 181.457 215.061 181.055 215.366C180.653 215.672 180.168 215.846 179.666 215.866H124.058C123.847 215.883 123.636 215.846 123.443 215.759C123.25 215.671 123.082 215.536 122.954 215.366C122.827 215.195 122.743 214.995 122.712 214.784C122.681 214.572 122.702 214.356 122.775 214.156L133.438 176.558C133.597 176.075 133.897 175.652 134.299 175.347C134.702 175.041 135.186 174.867 135.689 174.848H191.297C191.501 174.83 191.707 174.863 191.895 174.944C192.083 175.025 192.249 175.153 192.377 175.314C192.505 175.476 192.592 175.668 192.629 175.871C192.667 176.075 192.654 176.285 192.591 176.483Z" stroke="#022C40" stroke-linecap="round" stroke-linejoin="round"/>
<path d="M161.683 196.05C161.21 197.037 160.48 197.875 159.572 198.474C158.664 199.074 157.612 199.412 156.529 199.453C154.193 199.453 152.812 197.621 153.454 195.36C153.837 194.203 154.559 193.191 155.524 192.459C156.488 191.727 157.65 191.309 158.854 191.261H158.957C158.849 191.484 158.761 191.717 158.694 191.957C158.035 194.2 159.381 196.015 161.683 196.05Z" fill="#F2F6FA" stroke="#022C40" stroke-linecap="round" stroke-linejoin="round"/>
<path d="M124.711 214.022L135.116 177.324C135.209 177.042 135.384 176.796 135.619 176.618C135.853 176.44 136.135 176.338 136.428 176.327H190.329" stroke="#022C40" stroke-linecap="round" stroke-linejoin="round"/>
<path d="M98.8766 217.692H22.1362L23.064 215.732C23.064 215.732 30.3143 216.416 36.0583 214.602C38.5953 213.802 42.5011 213.442 46.4183 213.489C48.8866 213.523 54.8941 213.547 58.6223 213.529C59.9509 213.529 60.9932 213.529 61.4857 213.494C61.6747 213.494 61.8637 213.494 62.0584 213.494C63.1216 213.481 64.1832 213.583 65.2254 213.796C66.2311 213.681 67.2429 213.63 68.2549 213.645C70.0245 213.645 77.6356 213.616 79.7087 213.645C82.4404 213.68 85.596 214.225 88.5911 214.642L88.6713 214.613V214.654C92.2907 215.164 95.681 215.512 97.8343 214.613L98.8766 217.692Z" fill="#F2F6FA"/>
<path opacity="0.4" d="M98.8766 217.692H39.3914L40.5997 215.587C40.5997 215.587 43.8469 217.506 47.0196 216.167C50.1923 214.828 53.3879 214.097 58.6223 213.517C59.7637 213.394 60.9141 213.378 62.0584 213.471C64.3369 213.648 66.5773 214.164 68.7073 215.002C68.7073 215.002 71.8285 213.622 79.7087 213.622C82.4404 213.657 85.5959 214.202 88.5911 214.619L88.6713 214.59V214.631C92.2907 215.141 95.681 215.489 97.8343 214.59L98.8766 217.692Z" fill="#275F7A"/>
<path d="M40.5998 215.587L23.087 215.732L22.1593 217.691H39.3915L40.5998 215.587Z" fill="#275F7A"/>
<path d="M39.8839 216.827L40.5998 215.586C42.1481 216.269 43.819 216.62 45.5077 216.618C48.0734 216.543 52.128 213.326 59.9223 213.482" stroke="#022C40" stroke-linecap="round" stroke-linejoin="round"/>
<path d="M65.2082 213.784C66.6457 214.317 68.6902 215.013 68.6902 215.013C68.6902 215.013 71.336 213.471 77.1488 213.633" stroke="#022C40" stroke-linecap="round" stroke-linejoin="round"/>
<path d="M40.5997 215.587C40.5997 215.587 31.5398 215.75 27.9147 215.831" stroke="#022C40" stroke-linecap="round" stroke-linejoin="round"/>
<path d="M67.4818 217.691C67.5312 217.314 67.6965 216.961 67.9544 216.683C68.2123 216.406 68.5498 216.217 68.9193 216.144C70.2021 215.929 71.0325 217.535 71.0325 217.535" stroke="#022C40" stroke-linecap="round" stroke-linejoin="round"/>
<path d="M68.6901 215.013L68.92 216.143" stroke="#022C40" stroke-linecap="round" stroke-linejoin="round"/>
<path d="M69.9788 216.143C69.9788 216.143 74.0563 214.259 77.9964 214.601" stroke="#022C40" stroke-linecap="round" stroke-linejoin="round"/>
<path d="M68.3007 216.37C67.9399 216.086 61.8178 214.173 55.5526 215.587" stroke="#022C40" stroke-linecap="round" stroke-linejoin="round"/>
<path d="M67.4818 217.152C67.4818 217.152 62.3276 216.161 57.8434 216.851" stroke="#022C40" stroke-linecap="round" stroke-linejoin="round"/>
<path d="M70.5514 216.862C73.9726 215.897 77.5532 215.652 81.0717 216.144C84.5366 216.665 88.0377 216.902 91.5404 216.851" stroke="#022C40" stroke-linecap="round" stroke-linejoin="round"/>
<path d="M98.8766 217.692H22.1362L23.064 215.732C23.064 215.732 30.3143 216.416 36.0583 214.602C38.5953 213.802 42.5011 213.442 46.4183 213.489C48.8866 213.523 54.8941 213.547 58.6223 213.529C59.9509 213.529 60.9932 213.529 61.4857 213.494C61.6747 213.494 61.8637 213.494 62.0584 213.494C63.1216 213.481 64.1832 213.583 65.2254 213.796C66.2311 213.681 67.2429 213.63 68.2549 213.645C70.0245 213.645 77.6356 213.616 79.7087 213.645C82.4404 213.68 85.596 214.225 88.5911 214.642L88.6713 214.613V214.654C92.2907 215.164 95.681 215.512 97.8343 214.613L98.8766 217.692Z" stroke="#022C40" stroke-linecap="round" stroke-linejoin="round"/>
<path d="M78.2998 172.123V174.181C76.7491 175.251 75.1433 176.236 73.4892 177.132C69.8183 173.718 69.2972 167.23 69.2972 167.23L78.2998 172.123Z" fill="#022C40"/>
<path d="M62.654 160.267C58.336 153.803 59.2179 141.715 64.7673 135.117C72.9224 125.482 94.2035 132.52 94.1863 146.133C94.1696 148.025 94.0088 149.913 93.7053 151.78C93.4246 153.577 91.8841 155.392 91.4145 157.183C90.9449 158.974 91.1339 161.821 90.9449 163.56C90.5211 167.52 85.1092 175.376 83.6431 176.228C81.5929 177.388 70.5113 174.239 68.0946 167.045" fill="#F2F6FA"/>
<path d="M62.654 160.267C58.336 153.803 59.2179 141.715 64.7673 135.117C72.9224 125.482 94.2035 132.52 94.1863 146.133C94.1696 148.025 94.0088 149.913 93.7053 151.78C93.4246 153.577 91.8841 155.392 91.4145 157.183C90.9449 158.974 91.1339 161.821 90.9449 163.56C90.5211 167.52 85.1092 175.376 83.6431 176.228C81.5929 177.388 70.5113 174.239 68.0946 167.045" stroke="#022C40" stroke-linecap="round" stroke-linejoin="round"/>
<path d="M77.7558 152.278C77.7558 152.278 80.7739 151.165 83.4827 152.278" stroke="#022C40" stroke-linecap="round" stroke-linejoin="round"/>
<path d="M89.6621 152.278C89.6621 152.278 91.8613 151.165 93.3331 152.278" stroke="#022C40" stroke-linecap="round" stroke-linejoin="round"/>
<path d="M80.5791 157.472C80.4187 158.255 79.8918 158.811 79.4337 158.713C78.9755 158.614 78.672 157.89 78.8324 157.101C78.9927 156.313 79.5196 155.762 80.0064 155.867C80.4932 155.971 80.7394 156.701 80.5791 157.472Z" fill="#022C40"/>
<path d="M90.2921 157.472C90.1317 158.255 89.6048 158.811 89.1467 158.713C88.6885 158.614 88.385 157.89 88.5454 157.101C88.7057 156.313 89.2269 155.762 89.7194 155.867C90.2119 155.971 90.4524 156.701 90.2921 157.472Z" fill="#022C40"/>
<path d="M88.7057 153.467C88.7057 153.467 87.2682 155.989 87.1193 158.105C86.9704 160.221 89.4101 164.604 88.7057 165.978C88.0013 167.352 85.0061 167.282 84.0211 166.442" fill="#F2F6FA"/>
<path d="M88.7057 153.467C88.7057 153.467 87.2682 155.989 87.1193 158.105C86.9704 160.221 89.4101 164.604 88.7057 165.978C88.0013 167.352 85.0061 167.282 84.0211 166.442" stroke="#022C40" stroke-linecap="round" stroke-linejoin="round"/>
<path d="M84.5535 169.213C82.5745 169.496 80.5567 169.205 78.735 168.372" stroke="#022C40" stroke-linecap="round" stroke-linejoin="round"/>
<path d="M66.9836 154.307C66.9836 154.307 68.3924 152.927 70.0532 153.466C71.714 154.006 72.0175 158.586 72.0175 158.586L73.2259 157.281C73.2259 157.281 72.7735 154.69 74.5832 151.055C76.3928 147.42 75.488 143.141 75.488 143.141C75.488 143.141 78.6092 144.208 79.6915 146.654C79.6915 146.654 80.8713 144.057 79.6915 142.068C79.6915 142.068 84.5537 143.292 85.762 146.962C85.762 146.962 86.7184 144.208 86.392 142.834C86.392 142.834 89.685 143.9 90.8933 147.112C90.8933 147.112 91.9929 144.666 91.5176 142.677C91.5176 142.677 92.8462 143.837 93.3559 147.269C94.3479 145.176 94.6395 142.813 94.1863 140.538C94.1863 140.538 95.9044 142.526 96.1793 144.208C96.1793 144.208 97.5766 139.315 89.4044 132.74C81.2321 126.166 67.2413 127.656 65.0651 132.74C65.0651 132.74 65.7866 128.995 67.2413 127.656C67.2413 127.656 63.2325 129.464 63.3184 133.198C63.3184 133.198 59.7791 132.74 57.9694 135.036C59.0786 134.951 60.1938 135.002 61.291 135.187C61.291 135.187 56.4575 138.085 56.7611 144.973C57.0646 151.86 61.291 161.786 61.291 161.786L64.6012 160.806C64.6012 160.806 65.128 156.122 66.9836 154.307Z" fill="#022C40"/>
<path d="M70.6544 155.989C70.6544 155.989 68.0888 151.403 66.7315 151.095C65.3743 150.788 62.8029 152.626 63.4042 155.073C64.0055 157.519 64.4637 161.647 65.2196 162.105C65.9756 162.563 67.1839 165.317 68.3923 164.552C68.5513 164.469 68.6889 164.349 68.794 164.203C68.8992 164.057 68.9691 163.887 68.998 163.709C69.027 163.53 69.0142 163.347 68.9607 163.174C68.9073 163.001 68.8146 162.844 68.6901 162.714" fill="#F2F6FA"/>
<path d="M70.6544 155.989C70.6544 155.989 68.0888 151.403 66.7315 151.095C65.3743 150.788 62.8029 152.626 63.4042 155.073C64.0055 157.519 64.4637 161.647 65.2196 162.105C65.9756 162.563 67.1839 165.317 68.3923 164.552C68.5513 164.469 68.6889 164.349 68.794 164.203C68.8992 164.057 68.9691 163.887 68.998 163.709C69.027 163.53 69.0142 163.347 68.9607 163.174C68.9073 163.001 68.8146 162.844 68.6901 162.714" stroke="#022C40" stroke-linecap="round" stroke-linejoin="round"/>
<path d="M99.352 191.447C99.0925 192.577 98.7596 193.688 98.3555 194.774" stroke="#022C40" stroke-linecap="round" stroke-linejoin="round"/>
<path d="M97.4335 196.989C96.5207 199.096 95.1825 200.986 93.5048 202.537" stroke="#022C40" stroke-linecap="round" stroke-linejoin="round"/>
<path d="M113.715 203.233C112.93 203.129 111.333 204.131 109.867 205.424" stroke="#022C40" stroke-linecap="round" stroke-linejoin="round"/>
<path d="M108.79 206.451C107.644 207.65 106.757 208.92 106.757 209.731" stroke="#022C40" stroke-linecap="round" stroke-linejoin="round"/>
<path d="M25.5208 200.108C25.5208 200.108 28.7794 201.024 28.8081 203.852" stroke="#022C40" stroke-linecap="round" stroke-linejoin="round"/>
<path d="M37.7305 184.663C38.2715 185.276 38.7636 185.931 39.2023 186.622" stroke="#022C40" stroke-linecap="round" stroke-linejoin="round"/>
<path d="M40.4909 189.011C41.1319 190.42 41.4771 191.948 41.5046 193.499C41.5046 198.27 40.1473 201.036 40.1473 201.036" stroke="#022C40" stroke-linecap="round" stroke-linejoin="round"/>
<path d="M57.517 179.985C58.381 180.798 59.3058 181.542 60.2831 182.21" stroke="#022C40" stroke-linecap="round" stroke-linejoin="round"/>
<path d="M63.158 183.95C66.0844 185.446 69.8699 186.57 73.7986 185.579" stroke="#022C40" stroke-linecap="round" stroke-linejoin="round"/>
<g opacity="0.2">
<path opacity="0.2" d="M69.2972 132.983C70.3203 132.825 71.355 132.757 72.3897 132.78" stroke="#F2F6FA" stroke-linecap="round" stroke-linejoin="round"/>
<path opacity="0.2" d="M73.8959 132.862C76.6963 133.129 80.1439 134.12 82.2858 137.112" stroke="#F2F6FA" stroke-linecap="round" stroke-linejoin="round"/>
<path opacity="0.2" d="M76.0951 130.659C76.0951 130.659 81.3466 130.717 85.1092 133.377" stroke="#F2F6FA" stroke-linecap="round" stroke-linejoin="round"/>
<path opacity="0.2" d="M86.5868 134.671C87.2603 135.384 87.7998 136.214 88.1789 137.123" stroke="#F2F6FA" stroke-linecap="round" stroke-linejoin="round"/>
<path opacity="0.2" d="M67.94 135.251C67.94 135.251 73.0942 137.088 74.8868 140.376" stroke="#F2F6FA" stroke-linecap="round" stroke-linejoin="round"/>
<path opacity="0.2" d="M65.4431 137.112C66.5599 138.678 67.3634 140.451 67.8083 142.329" stroke="#F2F6FA" stroke-linecap="round" stroke-linejoin="round"/>
<path opacity="0.2" d="M68.1297 144.909C68.1366 145.602 68.073 146.293 67.94 146.973" stroke="#F2F6FA" stroke-linecap="round" stroke-linejoin="round"/>
<path opacity="0.2" d="M61.9725 139.251C61.7072 139.933 61.4872 140.632 61.3139 141.343" stroke="#F2F6FA" stroke-linecap="round" stroke-linejoin="round"/>
<path opacity="0.2" d="M60.9081 143.367C60.6063 145.175 60.5831 147.019 60.8392 148.834" stroke="#F2F6FA" stroke-linecap="round" stroke-linejoin="round"/>
</g>
<path d="M129.561 228H201.835V217.692H0.5V228H41.2068" fill="#F2F6FA"/>
<path d="M129.561 228H201.835V217.692H0.5V228H41.2068" stroke="#022C40" stroke-linecap="round" stroke-linejoin="round"/>
<path d="M124.373 228H114.11" stroke="#022C40" stroke-linecap="round" stroke-linejoin="round"/>
</svg>
