<svg width="248" height="228" viewBox="0 0 248 228" fill="none" xmlns="http://www.w3.org/2000/svg">
<path d="M123.575 228C164.333 228 197.374 226.005 197.374 223.544C197.374 221.084 164.333 219.089 123.575 219.089C82.8161 219.089 49.7749 221.084 49.7749 223.544C49.7749 226.005 82.8161 228 123.575 228Z" fill="#022C40"/>
<path d="M50.3116 192.599C51.3421 193.009 53.8594 192.96 53.8594 192.96C53.8594 192.96 53.3227 191.44 53.2744 191.346C52.7376 190.282 50.9772 188.524 49.5549 188.702C49.3173 188.737 49.0905 188.818 48.8895 188.94C48.6885 189.062 48.5178 189.222 48.3889 189.409C48.26 189.596 48.1757 189.807 48.1417 190.026C48.1077 190.246 48.1247 190.47 48.1916 190.683C48.4224 191.569 49.4314 192.242 50.3116 192.599Z" fill="#022C40"/>
<path d="M51.1757 199.316C52.2492 199.46 54.4873 198.861 54.6698 198.821C55.0384 200.003 55.492 201.161 56.0277 202.287C56.339 202.945 56.6718 203.604 57.0153 204.267C56.8113 203.995 56.6235 203.772 56.5913 203.713C55.754 202.821 53.5695 201.549 52.2492 202.069C52.0326 202.16 51.8394 202.293 51.6821 202.458C51.5247 202.623 51.4068 202.816 51.3359 203.026C51.265 203.235 51.2428 203.457 51.2707 203.675C51.2985 203.893 51.3759 204.103 51.4978 204.292C51.9862 205.109 53.1509 205.515 54.1009 205.638C55.0509 205.762 56.9831 205.292 57.493 205.143C57.6271 205.396 57.756 205.638 57.8901 205.891C58.5449 207.089 59.1944 208.277 59.8009 209.46C60.0102 209.876 60.2034 210.297 60.402 210.713C60.2195 210.465 60.0639 210.262 60.037 210.218C59.1997 209.327 57.0099 208.054 55.6896 208.569C55.4736 208.661 55.281 208.794 55.1241 208.959C54.9672 209.124 54.8496 209.317 54.7788 209.527C54.708 209.736 54.6856 209.957 54.713 210.175C54.7405 210.393 54.8172 210.603 54.9382 210.792C55.4266 211.614 56.5966 212.015 57.5413 212.143C58.4859 212.272 60.2249 211.841 60.8421 211.688C61.0246 212.119 61.2125 212.554 61.3788 212.98C61.4755 213.277 61.5989 213.549 61.6794 213.851C61.7599 214.153 61.8565 214.441 61.9478 214.733C62.0927 215.297 62.2483 215.881 62.3771 216.431C62.4684 216.817 62.5489 217.188 62.6348 217.559C62.4255 217.139 62.0014 216.332 61.9585 216.267C61.2769 215.277 59.3232 213.703 57.9384 214.03C57.7093 214.09 57.4965 214.194 57.3138 214.335C57.1311 214.476 56.9826 214.651 56.8779 214.849C56.7731 215.046 56.7145 215.262 56.7058 215.481C56.6971 215.701 56.7386 215.92 56.8274 216.124C57.1763 217 58.2605 217.564 59.1783 217.822C60.182 218.104 62.3986 217.822 62.6885 217.822C62.8226 218.436 62.9461 219.035 63.0534 219.599C63.295 220.847 63.4721 221.97 63.5902 222.916H64.5294C64.363 221.926 64.1483 220.767 63.8692 219.451C63.7351 218.827 63.5794 218.163 63.413 217.47C64.084 217.223 64.7382 216.939 65.3721 216.619C66.1074 217.351 67.9859 218.213 68.2274 218.322C67.9698 218.901 67.7176 219.46 67.4653 219.99C66.9286 221.094 66.4563 222.069 66.0161 222.901H67.0359C67.4063 222.134 67.8195 221.262 68.2489 220.292C68.5119 219.708 68.7856 219.074 69.0486 218.421C69.317 218.47 71.5229 218.886 72.5534 218.673C73.482 218.475 74.6145 217.99 75.0277 217.139C75.1335 216.942 75.1932 216.727 75.2029 216.508C75.2125 216.289 75.172 216.071 75.0838 215.867C74.9957 215.663 74.862 215.479 74.6914 215.326C74.5208 215.173 74.3172 215.055 74.0938 214.98C72.7359 214.559 70.6642 215.97 69.902 216.931C69.8591 216.985 69.4458 217.644 69.1935 218.064C69.3009 217.797 69.4082 217.54 69.5156 217.262C69.7303 216.718 69.9289 216.168 70.1489 215.574C70.2402 215.287 70.3368 214.995 70.4334 214.703C70.53 214.411 70.5998 214.094 70.6856 213.787C70.8735 213.069 71.0184 212.337 71.1526 211.594C71.6893 211.767 73.5195 212.361 74.4803 212.302C75.441 212.242 76.6272 211.916 77.1639 211.134C77.3005 210.954 77.3946 210.75 77.44 210.534C77.4854 210.319 77.4811 210.097 77.4274 209.883C77.3738 209.669 77.2719 209.468 77.1285 209.293C76.9851 209.118 76.8033 208.972 76.595 208.866C75.3176 208.257 73.0365 209.361 72.1294 210.208C72.0704 210.262 71.4961 210.926 71.1848 211.297C71.2599 210.851 71.3404 210.406 71.3995 209.95C71.5766 208.638 71.7108 207.307 71.8503 205.99C71.8933 205.584 71.9416 205.178 71.9899 204.772C72.1724 204.836 74.3515 205.584 75.4249 205.515C76.3803 205.455 77.5718 205.133 78.1085 204.351C78.2449 204.171 78.3387 203.967 78.3837 203.751C78.4287 203.535 78.424 203.313 78.3698 203.099C78.3156 202.885 78.2132 202.685 78.0692 202.51C77.9253 202.335 77.743 202.19 77.5342 202.084C76.2622 201.475 73.9811 202.579 73.0741 203.425C73.0043 203.49 72.1724 204.445 72.0006 204.698C72.1026 203.807 72.2153 202.916 72.3656 202.044C72.5582 200.874 72.8343 199.716 73.1921 198.579C73.2727 198.609 75.5484 199.401 76.6487 199.331C77.5987 199.267 78.7955 198.945 79.3323 198.163C79.4689 197.983 79.5629 197.779 79.6083 197.564C79.6537 197.348 79.6495 197.126 79.5958 196.912C79.5421 196.698 79.4403 196.497 79.2969 196.322C79.1534 196.147 78.9717 196.002 78.7633 195.896C77.4859 195.287 75.2049 196.391 74.2978 197.237C74.228 197.302 73.3317 198.336 73.1868 198.534C73.1868 198.465 73.2243 198.396 73.2458 198.326C73.6374 197.187 74.1386 196.082 74.7433 195.024C75.0707 194.435 75.4142 193.891 75.7684 193.366C76.1763 193.554 78.0441 194.391 79.0424 194.43C80.0407 194.47 81.2215 194.267 81.8656 193.544C82.0229 193.379 82.1408 193.186 82.2117 192.976C82.2826 192.767 82.3048 192.545 82.277 192.327C82.2491 192.109 82.1718 191.899 82.0501 191.71C81.9284 191.522 81.7649 191.359 81.5704 191.232C80.3735 190.499 77.969 191.381 76.9707 192.113C76.917 192.153 76.434 192.608 76.0475 192.96C76.2139 192.727 76.3749 192.465 76.5359 192.262C77.1371 191.43 77.7382 190.697 78.2803 190.059C78.5916 189.697 78.8814 189.376 79.1552 189.069C79.6543 189.069 81.6831 189.004 82.5687 188.623C83.4543 188.242 84.4258 187.549 84.6351 186.643C84.6914 186.43 84.6987 186.208 84.6564 185.993C84.6142 185.777 84.5234 185.572 84.3899 185.39C84.2564 185.209 84.0831 185.055 83.8813 184.939C83.6795 184.823 83.4536 184.748 83.2182 184.717C81.7905 184.579 80.0998 186.381 79.5792 187.455C79.5309 187.549 79.0102 189.084 79.0424 189.084H79.0746C78.8009 189.366 78.5379 189.668 78.2159 190.009C77.6792 190.643 77.0297 191.361 76.4125 192.183C75.7317 193.064 75.108 193.981 74.5447 194.93C73.9003 195.987 73.3614 197.096 72.9345 198.242C72.9345 198.242 72.9345 198.272 72.9345 198.287C72.9345 197.901 72.9345 196.802 72.9077 196.732C72.7467 195.559 71.684 193.391 70.2724 193.148C70.036 193.114 69.7944 193.126 69.5635 193.184C69.3326 193.242 69.1177 193.345 68.933 193.485C68.7484 193.625 68.5981 193.8 68.4922 193.998C68.3863 194.196 68.3272 194.413 68.3187 194.633C68.2328 195.564 68.9628 196.495 69.6766 197.109C70.4817 197.772 72.7145 198.411 72.8969 198.46C72.4978 199.638 72.1823 200.838 71.9523 202.054C71.8181 202.762 71.7054 203.475 71.5981 204.198C71.5981 203.861 71.5981 203.559 71.5981 203.52C71.4317 202.346 70.369 200.178 68.9574 199.935C68.721 199.901 68.4794 199.913 68.2485 199.971C68.0176 200.029 67.8027 200.132 67.6181 200.272C67.4334 200.413 67.2831 200.588 67.1772 200.786C67.0713 200.983 67.0122 201.2 67.0037 201.42C66.9178 202.351 67.6532 203.282 68.3616 203.871C69.0701 204.46 70.9755 205.049 71.48 205.198L71.3673 206.025C71.1955 207.351 71.0291 208.673 70.8306 209.985C70.7608 210.44 70.6695 210.886 70.5837 211.337C70.5837 211.039 70.5837 210.787 70.5837 210.747C70.4226 209.579 69.3599 207.406 67.9483 207.163C67.7122 207.13 67.4712 207.144 67.2411 207.202C67.0109 207.261 66.7967 207.364 66.6124 207.504C66.4282 207.644 66.2779 207.818 66.1715 208.015C66.0651 208.213 66.0048 208.428 65.9947 208.648C65.9088 209.574 66.6387 210.51 67.3526 211.094C68.0664 211.678 69.7839 212.218 70.3797 212.396C70.2777 212.851 70.1704 213.307 70.0469 213.743C69.9557 214.04 69.8913 214.332 69.7786 214.624C69.6659 214.916 69.5746 215.208 69.478 215.495C69.2633 216.04 69.0433 216.604 68.8178 217.134C68.6676 217.5 68.5119 217.847 68.3563 218.198C68.4368 217.748 68.5656 216.856 68.571 216.777C68.5562 215.734 68.2512 214.711 67.6854 213.807C67.6962 213.692 67.6962 213.576 67.6854 213.46C67.6557 213.242 67.5764 213.032 67.4529 212.844C67.3293 212.656 67.1641 212.494 66.9681 212.369C66.7721 212.244 66.5497 212.158 66.3154 212.118C66.0811 212.077 65.8401 212.082 65.6082 212.134C64.2235 212.47 63.3486 214.713 63.2842 215.891C63.2842 215.96 63.3272 216.723 63.3647 217.198C63.295 216.921 63.2305 216.653 63.1554 216.366C63.0105 215.802 62.8495 215.243 62.6777 214.639L62.3879 213.762C62.302 213.47 62.1678 213.168 62.0551 212.871C61.7814 212.178 61.4647 211.49 61.132 210.807C61.6687 210.688 63.5687 210.242 64.3523 209.703C65.1359 209.163 65.8766 208.198 65.8766 207.277C65.8834 207.057 65.8399 206.839 65.7491 206.636C65.6583 206.433 65.5221 206.25 65.3495 206.098C65.1768 205.947 64.9715 205.831 64.747 205.758C64.5225 205.684 64.2838 205.656 64.0464 205.673C62.624 205.817 61.3627 207.911 61.1266 209.064C61.1266 209.138 61.0246 209.985 60.9924 210.455C60.7884 210.044 60.5845 209.634 60.3644 209.223C59.7257 208.039 59.0441 206.861 58.3678 205.683C58.1585 205.322 57.9545 204.955 57.7506 204.594C57.9438 204.554 60.2088 204.069 61.0622 203.465C61.8243 202.93 62.6294 202.054 62.6187 201.118C62.6247 200.899 62.5807 200.681 62.4895 200.479C62.3984 200.276 62.2621 200.094 62.0895 199.943C61.9169 199.792 61.7119 199.677 61.4878 199.604C61.2637 199.531 61.0254 199.502 60.7885 199.519C59.3661 199.658 58.1048 201.752 57.8687 202.911C57.8687 202.995 57.7291 204.218 57.713 204.529C57.2675 203.732 56.8274 202.935 56.4302 202.133C55.8868 201.051 55.4189 199.939 55.0294 198.802C55.1206 198.802 57.4876 198.307 58.3625 197.668C59.1192 197.128 59.9243 196.252 59.919 195.321C59.925 195.102 59.8808 194.883 59.7894 194.68C59.698 194.477 59.5613 194.294 59.3882 194.142C59.2152 193.991 59.0096 193.875 58.7848 193.802C58.56 193.729 58.321 193.7 58.0834 193.717C56.661 193.861 55.3997 195.955 55.1689 197.109C55.1689 197.203 55.0187 198.514 55.0133 198.752C55.0133 198.688 54.9596 198.623 54.9382 198.554C54.5838 197.405 54.3413 196.228 54.2136 195.039C54.1331 194.381 54.0955 193.752 54.0794 193.133C54.5302 193.084 56.5913 192.831 57.4447 192.356C58.298 191.881 59.1622 191.108 59.2695 190.178C59.3019 189.962 59.2849 189.742 59.2197 189.532C59.1545 189.322 59.0425 189.128 58.8909 188.96C58.7393 188.793 58.5514 188.657 58.3393 188.56C58.1272 188.464 57.8956 188.409 57.6593 188.4C56.2263 188.4 54.7503 190.356 54.3531 191.475C54.3531 191.539 54.1867 192.183 54.0901 192.653C54.0901 192.371 54.0901 192.089 54.0901 191.821C54.0901 190.831 54.1599 189.905 54.2243 189.094C54.2672 188.633 54.3156 188.217 54.3692 187.831C54.7825 187.569 56.441 186.489 56.9509 185.717C57.4608 184.945 57.8526 183.881 57.4876 183.009C57.4074 182.803 57.281 182.614 57.1165 182.455C56.9521 182.297 56.7533 182.172 56.5331 182.089C56.3129 182.006 56.0763 181.966 55.8385 181.973C55.6007 181.98 55.3671 182.033 55.1528 182.128C53.8808 182.732 53.5427 185.098 53.7574 186.262C53.7574 186.361 54.2565 187.905 54.2941 187.891C54.2404 188.262 54.1867 188.663 54.1331 189.103C54.0472 189.91 53.9559 190.826 53.9291 191.831C53.8898 192.913 53.9185 193.995 54.015 195.074C54.117 196.281 54.3344 197.477 54.6644 198.648V198.693C54.439 198.366 53.7735 197.47 53.7144 197.406C52.8771 196.514 50.6927 195.242 49.3723 195.762C49.1558 195.853 48.9626 195.986 48.8052 196.151C48.6479 196.316 48.5299 196.509 48.459 196.719C48.3881 196.928 48.3659 197.15 48.3938 197.368C48.4217 197.586 48.4991 197.796 48.6209 197.985C49.0664 198.792 50.2311 199.188 51.1757 199.316Z" fill="#022C40"/>
<path d="M75.7523 193.108C75.7523 193.108 76.2085 191.564 76.2246 191.465C76.4017 190.296 75.9992 187.94 74.7057 187.366C74.4886 187.276 74.2535 187.229 74.0155 187.228C73.7775 187.227 73.542 187.273 73.3244 187.361C73.1067 187.45 72.9117 187.58 72.752 187.743C72.5924 187.906 72.4717 188.098 72.3977 188.306C72.0542 189.183 72.489 190.262 73.0096 190.999C73.6215 191.861 75.7523 193.103 75.7523 193.108Z" fill="#022C40"/>
<path d="M175.213 196.627C176.109 196.989 178.288 196.939 178.288 196.939C178.288 196.939 177.821 195.623 177.778 195.543C177.301 194.623 175.787 193.099 174.558 193.252C174.354 193.282 174.159 193.351 173.986 193.456C173.813 193.56 173.667 193.697 173.555 193.857C173.444 194.017 173.37 194.197 173.339 194.386C173.309 194.574 173.322 194.766 173.377 194.95C173.581 195.737 174.456 196.316 175.213 196.627Z" fill="#022C40"/>
<path d="M175.969 202.455C176.893 202.579 178.841 202.059 178.991 202.014C179.314 203.042 179.708 204.049 180.172 205.029C180.44 205.604 180.709 206.168 181.031 206.737C180.848 206.495 180.693 206.282 180.666 206.242C179.936 205.465 178.041 204.366 176.909 204.811C176.721 204.891 176.554 205.006 176.418 205.149C176.282 205.292 176.18 205.459 176.119 205.641C176.058 205.823 176.039 206.014 176.063 206.203C176.087 206.392 176.154 206.574 176.259 206.737C176.678 207.45 177.692 207.802 178.514 207.911C179.335 208.019 181.015 207.609 181.455 207.495L181.804 208.143C182.34 209.178 182.931 210.208 183.457 211.237C183.639 211.599 183.806 211.96 183.993 212.322L183.677 211.906C182.947 211.133 181.052 210.029 179.92 210.475C179.732 210.554 179.564 210.669 179.427 210.813C179.291 210.956 179.188 211.124 179.127 211.306C179.066 211.489 179.047 211.681 179.072 211.87C179.096 212.06 179.164 212.242 179.27 212.406C179.689 213.114 180.703 213.465 181.525 213.574C182.346 213.683 183.859 213.312 184.385 213.178C184.546 213.554 184.707 213.93 184.841 214.302C184.933 214.554 185.035 214.797 185.11 215.054C185.185 215.312 185.26 215.549 185.341 215.817C185.464 216.312 185.598 216.807 185.711 217.302C185.791 217.638 185.861 217.955 185.931 218.292C185.754 217.931 185.394 217.228 185.351 217.173C184.761 216.307 183.065 214.955 181.863 215.237C181.664 215.289 181.479 215.379 181.321 215.5C181.162 215.622 181.033 215.774 180.942 215.945C180.852 216.116 180.801 216.303 180.794 216.493C180.787 216.684 180.824 216.873 180.902 217.049C181.202 217.812 182.142 218.297 182.936 218.535C183.811 218.782 185.743 218.559 185.985 218.535C186.097 219.064 186.205 219.584 186.296 220.074C186.505 221.158 186.661 222.129 186.779 222.95H187.595C187.45 222.104 187.267 221.089 187.021 219.95C186.908 219.411 186.774 218.832 186.629 218.242C187.209 218.027 187.775 217.78 188.325 217.505C189.074 218.102 189.908 218.602 190.805 218.99C190.579 219.485 190.359 219.98 190.144 220.436C189.693 221.391 189.264 222.243 188.888 222.96H189.769C190.091 222.297 190.45 221.54 190.842 220.698C191.073 220.203 191.304 219.639 191.534 219.074C191.771 219.119 193.681 219.48 194.572 219.292C195.383 219.124 196.36 218.703 196.719 217.965C196.81 217.794 196.861 217.607 196.869 217.417C196.876 217.226 196.84 217.037 196.763 216.86C196.687 216.683 196.57 216.523 196.422 216.39C196.274 216.257 196.097 216.155 195.903 216.089C194.728 215.728 192.93 216.96 192.27 217.782C192.232 217.832 191.873 218.401 191.653 218.772C191.749 218.539 191.84 218.317 191.937 218.074C192.125 217.604 192.297 217.129 192.474 216.614C192.554 216.361 192.635 216.119 192.721 215.856C192.806 215.594 192.866 215.327 192.941 215.059C193.102 214.44 193.23 213.807 193.343 213.163C193.794 213.312 195.399 213.827 196.225 213.772C197.052 213.718 198.093 213.44 198.571 212.782C198.692 212.626 198.776 212.447 198.816 212.259C198.857 212.071 198.854 211.876 198.808 211.689C198.761 211.502 198.672 211.326 198.546 211.173C198.42 211.02 198.26 210.894 198.077 210.802C196.971 210.277 194.991 211.242 194.207 211.965C194.154 212.01 193.671 212.589 193.386 212.911C193.451 212.52 193.52 212.133 193.574 211.742C193.724 210.604 193.842 209.45 193.966 208.277C194.003 207.925 194.041 207.574 194.084 207.222C194.245 207.277 196.134 207.93 197.063 207.866C197.889 207.816 198.925 207.534 199.408 206.876C199.529 206.719 199.612 206.541 199.653 206.352C199.693 206.164 199.69 205.969 199.643 205.782C199.595 205.595 199.506 205.419 199.379 205.266C199.253 205.113 199.092 204.987 198.909 204.896C197.836 204.371 195.828 205.336 195.039 206.059C194.98 206.113 194.261 206.945 194.089 207.163C194.18 206.391 194.277 205.618 194.406 204.866C194.571 203.843 194.81 202.83 195.12 201.836C195.195 201.861 197.165 202.549 198.115 202.485C198.941 202.435 199.982 202.153 200.46 201.495C200.581 201.338 200.665 201.16 200.706 200.972C200.747 200.783 200.744 200.589 200.697 200.402C200.65 200.215 200.561 200.039 200.435 199.886C200.309 199.733 200.149 199.606 199.966 199.514C198.861 198.99 196.88 199.955 196.097 200.678C196.032 200.737 195.259 201.628 195.13 201.802C195.13 201.742 195.163 201.683 195.179 201.623C195.521 200.636 195.958 199.678 196.483 198.762C196.762 198.267 197.063 197.772 197.369 197.321C197.723 197.485 199.344 198.212 200.208 198.242C201.072 198.272 202.097 198.103 202.655 197.475C202.791 197.331 202.892 197.163 202.953 196.982C203.014 196.8 203.033 196.608 203.009 196.419C202.985 196.231 202.918 196.048 202.812 195.885C202.707 195.721 202.566 195.58 202.398 195.47C201.362 194.836 199.279 195.598 198.41 196.237C198.367 196.272 197.927 196.673 197.616 196.97C197.755 196.767 197.895 196.554 198.034 196.366C198.571 195.643 199.108 195.009 199.548 194.455C199.816 194.138 200.084 193.861 200.305 193.603C200.739 193.603 202.5 193.544 203.267 193.212C204.035 192.881 204.877 192.282 205.06 191.489C205.108 191.304 205.114 191.112 205.077 190.925C205.04 190.738 204.961 190.56 204.844 190.402C204.728 190.245 204.577 190.112 204.402 190.012C204.226 189.912 204.03 189.847 203.825 189.821C202.591 189.697 201.142 191.257 200.675 192.192C200.632 192.277 200.181 193.603 200.203 193.603H200.229C199.999 193.846 199.746 194.098 199.483 194.405C199 194.955 198.464 195.579 197.921 196.292C197.335 197.055 196.797 197.851 196.311 198.673C195.759 199.592 195.296 200.555 194.927 201.549C194.928 201.561 194.928 201.572 194.927 201.584C194.927 201.247 194.927 200.306 194.927 200.237C194.782 199.247 193.853 197.336 192.635 197.128C192.431 197.1 192.223 197.111 192.024 197.161C191.826 197.211 191.641 197.299 191.481 197.42C191.322 197.54 191.192 197.69 191.099 197.86C191.007 198.03 190.954 198.216 190.944 198.405C190.869 199.212 191.481 200.019 192.119 200.529C192.817 201.104 194.755 201.658 194.91 201.703C194.561 202.722 194.287 203.763 194.089 204.816C193.971 205.43 193.875 206.049 193.783 206.673C193.783 206.381 193.783 206.123 193.783 206.089C193.638 205.074 192.71 203.188 191.497 202.98C191.293 202.95 191.084 202.961 190.885 203.011C190.686 203.061 190.5 203.149 190.34 203.269C190.18 203.39 190.049 203.54 189.956 203.71C189.863 203.88 189.81 204.067 189.801 204.257C189.726 205.064 190.364 205.871 190.982 206.376C191.599 206.881 193.247 207.401 193.665 207.529L193.569 208.247C193.418 209.396 193.273 210.544 193.096 211.668C193.037 212.064 192.957 212.45 192.882 212.836C192.882 212.579 192.882 212.341 192.882 212.341C192.742 211.351 191.808 209.44 190.595 209.232C190.391 209.203 190.183 209.214 189.983 209.263C189.784 209.313 189.598 209.401 189.438 209.522C189.278 209.642 189.147 209.793 189.055 209.963C188.962 210.133 188.909 210.319 188.899 210.51C188.829 211.317 189.463 212.124 190.08 212.628C190.886 213.128 191.771 213.509 192.704 213.757C192.613 214.153 192.522 214.549 192.415 214.926C192.34 215.183 192.28 215.421 192.184 215.693C192.087 215.965 192.007 216.188 191.921 216.445C191.733 216.916 191.545 217.406 191.352 217.866C191.218 218.183 191.084 218.485 190.949 218.792C191.019 218.396 191.132 217.624 191.137 217.559C191.123 216.66 190.859 215.778 190.37 215C190.378 214.899 190.378 214.798 190.37 214.698C190.344 214.509 190.275 214.328 190.168 214.165C190.061 214.002 189.918 213.862 189.748 213.754C189.579 213.646 189.386 213.572 189.184 213.536C188.981 213.501 188.772 213.505 188.572 213.549C187.369 213.841 186.607 215.787 186.554 216.807C186.554 216.866 186.591 217.525 186.629 217.94C186.564 217.698 186.511 217.445 186.446 217.218C186.317 216.723 186.178 216.228 186.028 215.733C185.947 215.485 185.861 215.237 185.781 214.975C185.7 214.713 185.588 214.48 185.491 214.203C185.249 213.604 184.981 213.005 184.691 212.411C185.158 212.312 186.801 211.916 187.461 211.455C188.121 210.995 188.813 210.227 188.808 209.42C188.814 209.228 188.776 209.037 188.696 208.859C188.616 208.681 188.496 208.521 188.343 208.39C188.191 208.258 188.01 208.158 187.813 208.096C187.615 208.034 187.405 208.011 187.198 208.029C185.963 208.153 184.89 209.97 184.67 210.97C184.67 211.034 184.578 211.772 184.552 212.173C184.375 211.822 184.197 211.46 184.015 211.109C183.478 210.084 182.866 209.059 182.281 208.039C182.099 207.722 181.927 207.411 181.745 207.099C181.906 207.059 183.891 206.643 184.616 206.109C185.271 205.643 185.969 204.881 185.963 204.074C185.97 203.881 185.931 203.69 185.851 203.512C185.771 203.335 185.651 203.175 185.499 203.043C185.346 202.911 185.165 202.811 184.968 202.749C184.77 202.687 184.561 202.664 184.353 202.683C183.119 202.806 182.045 204.623 181.82 205.623C181.82 205.698 181.702 206.757 181.691 207.029C181.299 206.336 180.918 205.648 180.575 204.95C180.103 204.013 179.698 203.049 179.362 202.064C179.437 202.064 181.508 201.613 182.249 201.074C182.909 200.608 183.602 199.846 183.596 199.039C183.603 198.847 183.564 198.655 183.484 198.478C183.404 198.3 183.284 198.14 183.132 198.008C182.979 197.877 182.798 197.777 182.601 197.714C182.403 197.652 182.194 197.63 181.986 197.648C180.752 197.772 179.678 199.589 179.458 200.589C179.458 200.668 179.329 201.811 179.324 202.014C179.324 201.96 179.276 201.901 179.26 201.846C178.953 200.849 178.743 199.828 178.632 198.797C178.562 198.227 178.53 197.678 178.514 197.143C178.905 197.098 180.693 196.881 181.428 196.47C182.163 196.059 182.925 195.386 183.011 194.579C183.04 194.39 183.025 194.198 182.968 194.015C182.911 193.832 182.812 193.663 182.679 193.517C182.546 193.372 182.381 193.254 182.195 193.172C182.009 193.089 181.806 193.044 181.6 193.039C180.354 193.039 179.077 194.732 178.734 195.707C178.734 195.762 178.589 196.316 178.508 196.722C178.508 196.485 178.508 196.227 178.508 196.004C178.508 195.138 178.573 194.346 178.632 193.643C178.664 193.242 178.707 192.881 178.75 192.544C179.109 192.316 180.548 191.381 180.988 190.712C181.428 190.044 181.777 189.118 181.455 188.366C181.385 188.186 181.275 188.022 181.132 187.884C180.989 187.747 180.817 187.638 180.625 187.566C180.434 187.493 180.229 187.459 180.022 187.464C179.815 187.47 179.612 187.516 179.426 187.598C178.326 188.123 178.036 190.173 178.218 191.183C178.218 191.272 178.648 192.608 178.669 192.598C178.621 192.92 178.573 193.267 178.53 193.648C178.454 194.351 178.374 195.133 178.352 196.014C178.316 196.952 178.339 197.891 178.422 198.826C178.51 199.875 178.7 200.914 178.991 201.93C178.989 201.942 178.989 201.953 178.991 201.965C178.793 201.683 178.218 200.905 178.17 200.851C177.44 200.079 175.545 198.975 174.413 199.42C174.225 199.5 174.058 199.616 173.922 199.759C173.786 199.902 173.684 200.071 173.623 200.253C173.562 200.434 173.543 200.626 173.567 200.816C173.591 201.005 173.658 201.187 173.764 201.351C174.134 201.995 175.148 202.346 175.969 202.455Z" fill="#022C40"/>
<path d="M197.277 197.069C197.277 197.069 197.669 195.732 197.685 195.648C197.836 194.658 197.487 192.588 196.37 192.093C196.182 192.015 195.978 191.975 195.771 191.974C195.565 191.973 195.361 192.013 195.172 192.09C194.983 192.167 194.814 192.28 194.675 192.421C194.537 192.562 194.432 192.729 194.368 192.91C194.068 193.668 194.449 194.603 194.905 195.242C195.426 195.999 197.272 197.069 197.277 197.069Z" fill="#022C40"/>
<path d="M150.781 201.667C151.514 201.845 152.272 201.922 153.03 201.895C153.03 201.895 152.686 200.93 152.66 200.875C152.311 200.197 151.2 199.084 150.298 199.193C150.148 199.215 150.005 199.266 149.878 199.342C149.752 199.419 149.644 199.52 149.562 199.637C149.48 199.755 149.427 199.888 149.405 200.026C149.383 200.164 149.393 200.305 149.434 200.44C149.55 200.722 149.73 200.977 149.962 201.189C150.195 201.401 150.474 201.564 150.781 201.667Z" fill="#022C40"/>
<path d="M151.334 205.931C152.084 205.925 152.829 205.817 153.545 205.609C153.78 206.362 154.068 207.099 154.409 207.817C154.61 208.233 154.819 208.648 155.037 209.064C154.908 208.886 154.79 208.733 154.769 208.713C154.232 208.143 152.853 207.336 152.015 207.668C151.878 207.726 151.756 207.81 151.656 207.914C151.557 208.018 151.482 208.14 151.437 208.273C151.392 208.406 151.377 208.545 151.395 208.683C151.412 208.821 151.461 208.955 151.538 209.074C151.728 209.319 151.974 209.523 152.258 209.671C152.543 209.819 152.86 209.908 153.186 209.931C153.914 209.933 154.638 209.831 155.332 209.629L155.59 210.124C156.003 210.881 156.417 211.609 156.798 212.386C156.932 212.648 157.055 212.916 157.179 213.183C157.066 213.025 156.964 212.896 156.948 212.876C156.411 212.312 155.026 211.505 154.195 211.832C154.057 211.889 153.934 211.973 153.833 212.078C153.733 212.182 153.658 212.305 153.613 212.438C153.568 212.572 153.554 212.712 153.572 212.851C153.59 212.989 153.639 213.123 153.717 213.243C153.908 213.487 154.154 213.69 154.438 213.838C154.723 213.986 155.039 214.075 155.365 214.099C156.075 214.103 156.781 214.005 157.458 213.807C157.576 214.084 157.694 214.356 157.796 214.629C157.86 214.817 157.936 214.99 157.989 215.183C158.043 215.376 158.102 215.554 158.156 215.743C158.252 216.099 158.349 216.47 158.429 216.822C158.488 217.064 158.542 217.317 158.59 217.535C158.462 217.267 158.193 216.753 158.166 216.713C157.732 216.079 156.492 215.089 155.612 215.297C155.466 215.335 155.331 215.401 155.215 215.49C155.099 215.579 155.004 215.69 154.938 215.815C154.872 215.941 154.835 216.077 154.83 216.217C154.825 216.356 154.851 216.495 154.908 216.624C155.058 216.892 155.269 217.127 155.526 217.312C155.784 217.498 156.082 217.629 156.401 217.698C157.139 217.803 157.89 217.803 158.628 217.698C158.714 218.089 158.794 218.47 158.859 218.827C159.009 219.619 159.127 220.312 159.213 220.936H159.803C159.701 220.312 159.562 219.569 159.385 218.738C159.299 218.342 159.202 217.921 159.095 217.485C159.521 217.328 159.937 217.148 160.34 216.946C160.887 217.38 161.495 217.743 162.149 218.025C161.988 218.391 161.827 218.753 161.671 219.084C161.338 219.782 161.027 220.406 160.748 220.936H161.414C161.655 220.441 161.913 219.891 162.186 219.277C162.353 218.906 162.525 218.505 162.691 218.089C163.42 218.247 164.171 218.301 164.918 218.248C165.243 218.198 165.552 218.084 165.823 217.913C166.095 217.742 166.323 217.518 166.491 217.257C166.558 217.133 166.596 216.996 166.602 216.857C166.608 216.717 166.582 216.578 166.526 216.449C166.47 216.319 166.384 216.202 166.276 216.105C166.167 216.008 166.037 215.934 165.895 215.886C165.031 215.619 163.716 216.52 163.212 217.124C163.185 217.158 162.922 217.574 162.761 217.842C162.83 217.673 162.9 217.51 162.97 217.347C163.104 217.005 163.233 216.654 163.367 216.277C163.426 216.094 163.491 215.911 163.55 215.723C163.609 215.535 163.657 215.337 163.711 215.144C163.829 214.688 163.925 214.223 164.006 213.752C164.68 213.999 165.392 214.149 166.115 214.198C166.443 214.198 166.766 214.132 167.063 214.005C167.359 213.877 167.622 213.691 167.833 213.46C167.92 213.346 167.98 213.216 168.009 213.079C168.038 212.942 168.035 212.801 168.001 212.665C167.966 212.528 167.901 212.401 167.809 212.29C167.717 212.178 167.601 212.086 167.468 212.02C166.663 211.639 165.214 212.346 164.639 212.871C164.602 212.906 164.237 213.327 164.038 213.564C164.086 213.282 164.135 213 164.172 212.708C164.285 211.876 164.371 211.035 164.462 210.193C164.489 209.931 164.516 209.673 164.548 209.421C165.245 209.677 165.979 209.835 166.727 209.891C167.054 209.889 167.377 209.821 167.674 209.693C167.97 209.565 168.233 209.379 168.445 209.148C168.531 209.034 168.59 208.905 168.619 208.768C168.647 208.631 168.644 208.491 168.61 208.355C168.575 208.22 168.51 208.093 168.419 207.982C168.328 207.871 168.212 207.779 168.08 207.713C167.275 207.327 165.825 208.035 165.251 208.564C165.203 208.604 164.677 209.213 164.553 209.371C164.618 208.807 164.688 208.242 164.784 207.688C164.911 206.939 165.09 206.198 165.321 205.47C166.022 205.736 166.762 205.903 167.516 205.965C167.843 205.964 168.165 205.896 168.461 205.768C168.757 205.64 169.018 205.454 169.228 205.223C169.316 205.109 169.376 204.979 169.406 204.842C169.435 204.705 169.432 204.564 169.398 204.428C169.365 204.292 169.3 204.164 169.208 204.053C169.117 203.941 169.001 203.849 168.869 203.782C168.058 203.401 166.609 204.109 166.035 204.638C165.992 204.678 165.423 205.331 165.332 205.455C165.332 205.416 165.332 205.371 165.369 205.327C165.616 204.603 165.934 203.902 166.319 203.232C166.523 202.861 166.743 202.515 166.969 202.183C167.62 202.503 168.32 202.73 169.046 202.856C169.371 202.887 169.7 202.852 170.009 202.755C170.318 202.657 170.601 202.499 170.838 202.292C170.942 202.187 171.02 202.063 171.067 201.928C171.114 201.793 171.129 201.651 171.112 201.51C171.094 201.369 171.043 201.233 170.964 201.112C170.884 200.991 170.777 200.887 170.651 200.807C169.888 200.341 168.364 200.901 167.731 201.366C167.699 201.391 167.377 201.683 167.146 201.901C167.248 201.752 167.355 201.599 167.457 201.46C167.838 200.93 168.219 200.47 168.563 200.059L169.099 199.435C169.826 199.442 170.55 199.347 171.246 199.153C171.552 199.044 171.827 198.875 172.053 198.656C172.28 198.438 172.451 198.177 172.556 197.891C172.593 197.756 172.598 197.615 172.572 197.478C172.546 197.34 172.489 197.21 172.404 197.094C172.32 196.979 172.21 196.881 172.081 196.808C171.953 196.734 171.809 196.687 171.66 196.668C170.753 196.579 169.679 197.722 169.346 198.406C169.346 198.465 168.987 199.44 169.008 199.44C168.836 199.623 168.654 199.817 168.471 200.029C168.123 200.43 167.725 200.886 167.328 201.411C166.899 201.971 166.503 202.553 166.142 203.153C165.754 203.818 165.429 204.512 165.171 205.228V205.252C165.171 205.01 165.171 204.322 165.171 204.262C165.063 203.52 164.387 202.143 163.496 201.99C163.347 201.967 163.194 201.974 163.048 202.01C162.901 202.046 162.765 202.11 162.647 202.198C162.53 202.286 162.434 202.395 162.365 202.52C162.297 202.645 162.258 202.781 162.251 202.921C162.264 203.222 162.349 203.517 162.498 203.785C162.647 204.054 162.858 204.289 163.115 204.475C163.745 204.854 164.432 205.144 165.154 205.336C164.901 206.082 164.702 206.843 164.559 207.614C164.473 208.064 164.398 208.515 164.333 208.975C164.333 208.762 164.333 208.569 164.333 208.544C164.226 207.802 163.55 206.421 162.659 206.272C162.509 206.25 162.356 206.257 162.209 206.293C162.062 206.329 161.926 206.393 161.808 206.482C161.69 206.57 161.594 206.681 161.526 206.806C161.458 206.931 161.42 207.068 161.414 207.208C161.425 207.509 161.509 207.805 161.658 208.074C161.807 208.342 162.019 208.577 162.278 208.762C162.886 209.134 163.552 209.417 164.253 209.604C164.253 209.777 164.204 209.955 164.183 210.129C164.07 210.97 163.968 211.812 163.834 212.634C163.791 212.921 163.732 213.208 163.678 213.49C163.678 213.302 163.678 213.144 163.678 213.119C163.577 212.376 162.9 210.995 162.004 210.842C161.855 210.82 161.702 210.827 161.556 210.864C161.41 210.9 161.274 210.965 161.157 211.053C161.04 211.142 160.944 211.252 160.877 211.376C160.809 211.501 160.771 211.638 160.764 211.777C160.777 212.079 160.861 212.374 161.011 212.642C161.16 212.911 161.371 213.146 161.628 213.332C162.219 213.696 162.867 213.973 163.55 214.153C163.48 214.446 163.415 214.733 163.335 215.01C163.281 215.198 163.238 215.386 163.169 215.569L162.975 216.124C162.836 216.47 162.702 216.827 162.557 217.163C162.46 217.396 162.364 217.614 162.267 217.837C162.315 217.55 162.396 216.985 162.401 216.936C162.397 216.28 162.212 215.636 161.864 215.064C161.875 214.99 161.875 214.916 161.864 214.842C161.846 214.703 161.796 214.57 161.718 214.451C161.64 214.332 161.535 214.229 161.411 214.149C161.287 214.07 161.146 214.016 160.997 213.99C160.849 213.964 160.696 213.968 160.549 214C159.675 214.218 159.116 215.639 159.073 216.386C159.073 216.431 159.1 216.911 159.127 217.218C159.084 217.04 159.041 216.866 158.993 216.688C158.902 216.332 158.8 215.975 158.687 215.589C158.628 215.411 158.569 215.223 158.504 215.035C158.44 214.847 158.365 214.658 158.295 214.47C158.123 214.03 157.919 213.594 157.71 213.158C158.421 213.023 159.106 212.788 159.739 212.46C160.009 212.292 160.237 212.073 160.408 211.817C160.578 211.561 160.687 211.274 160.727 210.975C160.731 210.836 160.703 210.697 160.645 210.568C160.587 210.439 160.501 210.323 160.391 210.227C160.281 210.131 160.15 210.058 160.007 210.012C159.864 209.966 159.713 209.948 159.562 209.96C158.66 210.049 157.871 211.376 157.71 212.109C157.71 212.158 157.646 212.693 157.624 212.99C157.495 212.733 157.367 212.47 157.227 212.208C156.825 211.46 156.39 210.723 155.96 209.965L155.569 209.277C156.303 209.134 157.01 208.893 157.667 208.559C157.939 208.393 158.168 208.173 158.338 207.917C158.509 207.661 158.617 207.373 158.655 207.074C158.659 206.935 158.631 206.797 158.574 206.668C158.516 206.54 158.43 206.424 158.321 206.328C158.211 206.232 158.081 206.159 157.939 206.113C157.797 206.066 157.646 206.048 157.495 206.059C156.588 206.148 155.805 207.475 155.644 208.208C155.644 208.267 155.552 209.039 155.547 209.238C155.263 208.742 154.984 208.247 154.731 207.718C154.383 207.032 154.086 206.326 153.84 205.604C154.58 205.462 155.293 205.218 155.955 204.881C156.227 204.715 156.457 204.496 156.627 204.239C156.798 203.983 156.906 203.695 156.943 203.396C156.948 203.256 156.921 203.117 156.863 202.987C156.806 202.858 156.719 202.741 156.609 202.644C156.499 202.548 156.368 202.474 156.225 202.428C156.081 202.382 155.929 202.364 155.778 202.376C154.876 202.47 154.093 203.797 153.926 204.53C153.926 204.589 153.835 205.421 153.83 205.574C153.816 205.53 153.8 205.487 153.781 205.445C153.558 204.715 153.405 203.968 153.325 203.213C153.271 202.797 153.25 202.396 153.234 202.01C153.973 201.946 154.696 201.779 155.381 201.515C155.671 201.376 155.925 201.181 156.126 200.942C156.326 200.703 156.467 200.428 156.54 200.133C156.561 199.995 156.551 199.854 156.509 199.72C156.467 199.586 156.394 199.461 156.297 199.355C156.199 199.248 156.078 199.162 155.941 199.101C155.804 199.041 155.656 199.008 155.504 199.005C154.597 199.005 153.658 200.242 153.411 200.955C153.411 200.995 153.304 201.401 153.245 201.703C153.245 201.524 153.245 201.341 153.245 201.173C153.245 200.539 153.288 199.96 153.33 199.445C153.357 199.153 153.389 198.886 153.422 198.643C154.008 198.271 154.53 197.82 154.973 197.307C155.161 197.06 155.289 196.779 155.347 196.482C155.406 196.185 155.393 195.881 155.311 195.589C155.261 195.457 155.181 195.336 155.077 195.235C154.973 195.134 154.847 195.054 154.707 195C154.568 194.947 154.417 194.922 154.266 194.926C154.114 194.93 153.966 194.964 153.83 195.024C153.025 195.411 152.81 196.911 152.944 197.648C152.944 197.713 153.261 198.693 153.277 198.683C153.245 198.92 153.207 199.178 153.175 199.455C153.121 199.95 153.062 200.549 153.046 201.188C153.022 201.873 153.04 202.559 153.1 203.242C153.165 204.009 153.304 204.77 153.513 205.515C153.513 205.515 153.513 205.515 153.513 205.539C153.368 205.332 152.949 204.762 152.912 204.723C152.375 204.158 150.99 203.351 150.153 203.678C150.015 203.736 149.892 203.819 149.792 203.924C149.692 204.029 149.617 204.151 149.571 204.285C149.526 204.418 149.512 204.558 149.53 204.697C149.548 204.836 149.598 204.969 149.675 205.089C149.869 205.332 150.117 205.533 150.404 205.679C150.69 205.824 151.008 205.91 151.334 205.931Z" fill="#022C40"/>
<path d="M166.926 201.989C166.926 201.989 167.216 200.999 167.226 200.945C167.339 200.207 167.081 198.712 166.26 198.346C166.123 198.289 165.974 198.26 165.823 198.26C165.672 198.26 165.523 198.289 165.385 198.345C165.248 198.402 165.124 198.484 165.024 198.588C164.923 198.691 164.847 198.813 164.8 198.945C164.727 199.238 164.723 199.543 164.79 199.838C164.857 200.133 164.992 200.411 165.187 200.653C165.692 201.174 166.278 201.624 166.926 201.989Z" fill="#022C40"/>
<path d="M196.521 28.8575C196.074 30.4864 196.188 32.2033 196.846 33.7699C197.505 35.3365 198.676 36.6752 200.197 37.6002C201.718 38.5252 203.513 38.9907 205.334 38.9322C207.154 38.8737 208.91 38.2939 210.357 37.2735L213.755 40.2735C213.667 40.6004 213.674 40.9426 213.774 41.2665C213.873 41.5903 214.063 41.8845 214.324 42.1201L221.704 48.7886C221.902 48.9657 222.136 49.1051 222.392 49.1989C222.649 49.2927 222.923 49.3389 223.199 49.335C223.474 49.3311 223.747 49.2771 224 49.1761C224.253 49.0752 224.482 48.9292 224.675 48.7465C224.867 48.5638 225.018 48.348 225.119 48.1114C225.221 47.8749 225.271 47.6221 225.267 47.3677C225.263 47.1132 225.204 46.862 225.095 46.6285C224.985 46.3949 224.827 46.1835 224.629 46.0063L217.233 39.3329C216.966 39.0964 216.637 38.9289 216.278 38.8472C215.919 38.7655 215.543 38.7725 215.188 38.8676L211.866 35.917C212.667 35.0107 213.243 33.9526 213.551 32.8179C213.833 31.7865 213.892 30.714 213.724 29.6616C213.557 28.6091 213.166 27.5974 212.575 26.6842C211.984 25.771 211.203 24.9742 210.278 24.3392C209.353 23.7043 208.301 23.2436 207.183 22.9836C206.064 22.7235 204.902 22.6692 203.761 22.8236C202.62 22.9781 201.523 23.3383 200.533 23.8838C199.543 24.4292 198.679 25.1492 197.99 26.0026C197.302 26.8559 196.803 27.826 196.521 28.8575V28.8575ZM212.027 32.4516C211.679 33.7269 210.928 34.8785 209.871 35.7605C208.813 36.6425 207.496 37.2155 206.085 37.4068C204.675 37.5982 203.234 37.3994 201.946 36.8356C200.658 36.2718 199.58 35.3683 198.849 34.2393C198.117 33.1104 197.765 31.8068 197.837 30.4934C197.909 29.1799 198.402 27.9157 199.253 26.8605C200.104 25.8054 201.275 25.0067 202.618 24.5655C203.962 24.1244 205.416 24.0606 206.799 24.3821C208.651 24.8143 210.242 25.9067 211.222 27.4196C212.202 28.9325 212.492 30.7422 212.027 32.4516Z" stroke="#022C40" stroke-miterlimit="10"/>
<path d="M34.2098 126.963C32.8786 127.257 31.6793 127.925 30.7782 128.876C29.8771 129.826 29.3189 131.011 29.1809 132.268C29.0429 133.524 29.3319 134.788 30.008 135.886C30.684 136.984 31.7136 137.86 32.9539 138.394L31.9663 141.528C31.6995 141.587 31.4541 141.71 31.2545 141.883C31.0549 142.057 30.908 142.276 30.8285 142.518L28.5474 149.385C28.435 149.757 28.4842 150.155 28.6847 150.494C28.8851 150.833 29.2209 151.087 29.6209 151.202C30.0243 151.305 30.4557 151.26 30.8234 151.075C31.1912 150.89 31.4664 150.58 31.5906 150.211L33.8556 143.345C33.9362 143.099 33.9438 142.837 33.8778 142.587C33.8117 142.338 33.6743 142.109 33.4799 141.924L34.4567 138.845C35.4261 139.029 36.4279 139.01 37.3881 138.789C38.3483 138.568 39.2423 138.15 40.0039 137.567C40.7656 136.984 41.3754 136.251 41.7883 135.421C42.2012 134.592 42.4066 133.687 42.3893 132.774C42.372 131.862 42.1324 130.964 41.6883 130.148C41.2442 129.333 40.6069 128.619 39.8236 128.061C39.0403 127.503 38.131 127.115 37.163 126.925C36.195 126.735 35.1931 126.748 34.2313 126.963H34.2098ZM36.9901 137.756C35.9469 137.985 34.8537 137.923 33.8486 137.579C32.8434 137.234 31.9716 136.623 31.3433 135.821C30.715 135.02 30.3584 134.065 30.3188 133.076C30.2791 132.088 30.558 131.111 31.1204 130.269C31.6827 129.427 32.5031 128.758 33.4779 128.346C34.4526 127.934 35.538 127.798 36.5966 127.955C37.6552 128.112 38.6396 128.555 39.4252 129.228C40.2108 129.901 40.7624 130.774 41.0101 131.736C41.3415 133.023 41.1069 134.379 40.3576 135.507C39.6083 136.635 38.4053 137.443 37.0115 137.756H36.9901Z" stroke="#022C40" stroke-miterlimit="10"/>
<path d="M213.154 81.3391H197.589C196.578 81.3391 195.609 81.7094 194.894 82.3686C194.18 83.0278 193.778 83.9218 193.778 84.854V92.7997C193.778 93.7319 194.18 94.626 194.894 95.2852C195.609 95.9443 196.578 96.3147 197.589 96.3147H208.431L207.894 101.265L212.939 96.3147H213.154C213.654 96.3147 214.15 96.2237 214.612 96.0471C215.074 95.8705 215.495 95.6116 215.848 95.2852C216.202 94.9588 216.483 94.5713 216.674 94.1448C216.866 93.7184 216.965 93.2613 216.965 92.7997V84.854C216.965 84.3924 216.866 83.9354 216.674 83.5089C216.483 83.0825 216.202 82.695 215.848 82.3686C215.495 82.0422 215.074 81.7833 214.612 81.6067C214.15 81.43 213.654 81.3391 213.154 81.3391V81.3391Z" stroke="#022C40" stroke-miterlimit="10"/>
<path d="M35.337 100.151H45.8837C46.2227 100.151 46.5584 100.213 46.8716 100.332C47.1848 100.452 47.4694 100.627 47.7092 100.849C47.9489 101.07 48.1391 101.332 48.2688 101.621C48.3985 101.91 48.4653 102.22 48.4653 102.532V107.914C48.4653 108.226 48.3985 108.536 48.2688 108.825C48.1391 109.114 47.9489 109.376 47.7092 109.597C47.4694 109.819 47.1848 109.994 46.8716 110.114C46.5584 110.233 46.2227 110.295 45.8837 110.295H38.5413L38.9224 113.641L35.482 110.295H35.337C34.6523 110.295 33.9957 110.044 33.5115 109.597C33.0274 109.151 32.7554 108.545 32.7554 107.914V102.532C32.7554 101.901 33.0274 101.295 33.5115 100.849C33.9957 100.402 34.6523 100.151 35.337 100.151Z" stroke="#022C40" stroke-miterlimit="10"/>
<path d="M113.296 9.43628H123.843C124.528 9.43628 125.184 9.68716 125.668 10.1337C126.152 10.5803 126.424 11.186 126.424 11.8175V17.1988C126.424 17.8304 126.152 18.436 125.668 18.8826C125.184 19.3292 124.528 19.58 123.843 19.58H116.5L116.882 22.9266L113.441 19.58H113.296C112.612 19.58 111.955 19.3292 111.471 18.8826C110.987 18.436 110.715 17.8304 110.715 17.1988V11.8175C110.715 11.186 110.987 10.5803 111.471 10.1337C111.955 9.68716 112.612 9.43628 113.296 9.43628V9.43628Z" stroke="#022C40" stroke-miterlimit="10"/>
<path d="M98.9656 20.3672L124.771 86.8834L180.188 21.4167" stroke="#022C40" stroke-miterlimit="10"/>
<path d="M202.199 63.7788L124.771 86.8832L176.769 140.795" stroke="#022C40" stroke-miterlimit="10"/>
<path d="M65.1842 138.696L124.771 86.8835L43.5488 74.2793" stroke="#022C40" stroke-miterlimit="10"/>
<path d="M208.825 67.3438C210.835 63.8023 209.352 59.4286 205.512 57.5748C201.673 55.721 196.931 57.0891 194.921 60.6306C192.911 64.1721 194.395 68.5458 198.234 70.3996C202.074 72.2533 206.815 70.8852 208.825 67.3438Z" fill="#022C40" stroke="#022C40" stroke-width="0.5" stroke-miterlimit="10"/>
<path d="M204.469 63.4868H199.354C198.875 63.4868 198.415 63.6626 198.075 63.9755C197.736 64.2883 197.546 64.7127 197.546 65.1552V69.1156C198.796 70.0153 200.339 70.4986 201.924 70.4869C203.51 70.4752 205.044 69.9693 206.278 69.0513V65.1552C206.278 64.7127 206.088 64.2883 205.748 63.9755C205.409 63.6626 204.949 63.4868 204.469 63.4868Z" fill="#275F7A" stroke="#022C40" stroke-miterlimit="10"/>
<path d="M201.823 62.7589C202.338 62.7589 202.842 62.618 203.27 62.3542C203.698 62.0904 204.031 61.7154 204.228 61.2767C204.425 60.8379 204.477 60.3552 204.376 59.8894C204.276 59.4237 204.028 58.9958 203.664 58.66C203.3 58.3242 202.836 58.0956 202.331 58.0029C201.826 57.9103 201.303 57.9578 200.827 58.1396C200.352 58.3213 199.945 58.629 199.659 59.0239C199.373 59.4187 199.22 59.8829 199.22 60.3578C199.22 60.9946 199.495 61.6053 199.983 62.0556C200.471 62.5059 201.133 62.7589 201.823 62.7589Z" fill="#275F7A" stroke="#022C40" stroke-miterlimit="10"/>
<path d="M184.805 141.018C186.478 137.331 184.593 133.091 180.595 131.547C176.598 130.004 172.001 131.742 170.327 135.43C168.654 139.117 170.539 143.357 174.537 144.901C178.534 146.444 183.131 144.706 184.805 141.018Z" fill="#022C40" stroke="#022C40" stroke-width="0.5" stroke-miterlimit="10"/>
<path d="M180.199 137.746H175.084C174.847 137.745 174.611 137.788 174.392 137.871C174.173 137.954 173.973 138.077 173.805 138.231C173.637 138.386 173.504 138.569 173.413 138.772C173.322 138.974 173.275 139.19 173.275 139.409V143.37C174.525 144.269 176.068 144.753 177.653 144.741C179.239 144.729 180.773 144.223 182.008 143.305V139.409C182.008 139.19 181.961 138.974 181.87 138.772C181.779 138.569 181.646 138.386 181.477 138.231C181.309 138.077 181.11 137.954 180.891 137.871C180.671 137.788 180.436 137.745 180.199 137.746Z" fill="#275F7A" stroke="#022C40" stroke-miterlimit="10"/>
<path d="M177.515 137.014C178.03 137.014 178.533 136.873 178.961 136.609C179.389 136.345 179.723 135.97 179.92 135.531C180.117 135.093 180.169 134.61 180.068 134.144C179.968 133.678 179.72 133.25 179.356 132.915C178.992 132.579 178.528 132.35 178.023 132.258C177.518 132.165 176.995 132.212 176.519 132.394C176.043 132.576 175.637 132.884 175.351 133.279C175.065 133.673 174.912 134.138 174.912 134.612C174.912 134.928 174.979 135.24 175.11 135.531C175.241 135.823 175.433 136.087 175.674 136.31C175.916 136.533 176.203 136.71 176.519 136.831C176.835 136.951 177.173 137.014 177.515 137.014Z" fill="#275F7A" stroke="#022C40" stroke-miterlimit="10"/>
<path d="M98.6275 25.0406C101.704 25.0406 104.199 22.7399 104.199 19.9019C104.199 17.0639 101.704 14.7632 98.6275 14.7632C95.5506 14.7632 93.0563 17.0639 93.0563 19.9019C93.0563 22.7399 95.5506 25.0406 98.6275 25.0406Z" fill="#022C40" stroke="#022C40" stroke-width="0.5" stroke-miterlimit="10"/>
<path d="M100.474 19.5801H96.8456C96.5054 19.5801 96.1791 19.7047 95.9385 19.9266C95.698 20.1485 95.5628 20.4495 95.5628 20.7633V23.5406C96.4502 24.1767 97.5442 24.5183 98.6681 24.5102C99.792 24.5021 100.88 24.1448 101.757 23.496V20.7385C101.75 20.429 101.611 20.1344 101.372 19.9178C101.132 19.7013 100.809 19.58 100.474 19.5801Z" fill="#275F7A" stroke="#022C40" stroke-miterlimit="10"/>
<path d="M98.6167 19.0345C98.9819 19.0345 99.3389 18.9347 99.6425 18.7476C99.9461 18.5605 100.183 18.2946 100.323 17.9835C100.462 17.6724 100.499 17.3301 100.428 16.9998C100.356 16.6695 100.18 16.3662 99.9223 16.1281C99.6641 15.89 99.3351 15.7278 98.9769 15.6621C98.6188 15.5964 98.2475 15.6301 97.9102 15.759C97.5728 15.8879 97.2844 16.1061 97.0815 16.3861C96.8787 16.666 96.7704 16.9952 96.7704 17.332C96.7704 17.7835 96.9649 18.2166 97.3112 18.5358C97.6574 18.8551 98.127 19.0345 98.6167 19.0345Z" fill="#275F7A" stroke="#022C40" stroke-miterlimit="10"/>
<path d="M69.471 139.835C70.656 137.216 69.3146 134.207 66.475 133.114C63.6354 132.021 60.3729 133.258 59.188 135.877C58.0031 138.496 59.3445 141.506 62.1841 142.599C65.0236 143.691 68.2861 142.454 69.471 139.835Z" fill="#022C40" stroke="#022C40" stroke-width="0.5" stroke-miterlimit="10"/>
<path d="M66.1771 137.509H62.5489C62.3795 137.508 62.2117 137.538 62.0551 137.598C61.8985 137.657 61.7562 137.745 61.6365 137.855C61.5167 137.966 61.4219 138.097 61.3574 138.241C61.2929 138.386 61.26 138.54 61.2608 138.697V141.504C62.1474 142.144 63.243 142.488 64.3688 142.479C65.4946 142.471 66.5842 142.112 67.4599 141.459V138.697C67.4606 138.541 67.428 138.387 67.3638 138.242C67.2997 138.098 67.2053 137.967 67.0861 137.857C66.9669 137.746 66.8253 137.659 66.6693 137.599C66.5133 137.539 66.3461 137.509 66.1771 137.509Z" fill="#275F7A" stroke="#022C40" stroke-miterlimit="10"/>
<path d="M64.2986 136.988C64.6638 136.988 65.0207 136.888 65.3244 136.701C65.628 136.514 65.8646 136.248 66.0044 135.937C66.1441 135.626 66.1807 135.283 66.1095 134.953C66.0382 134.623 65.8624 134.319 65.6042 134.081C65.3459 133.843 65.017 133.681 64.6588 133.615C64.3007 133.55 63.9294 133.583 63.592 133.712C63.2547 133.841 62.9663 134.059 62.7634 134.339C62.5606 134.619 62.4523 134.948 62.4523 135.285C62.4523 135.737 62.6468 136.17 62.993 136.489C63.3393 136.808 63.8089 136.988 64.2986 136.988Z" fill="#275F7A" stroke="#022C40" stroke-miterlimit="10"/>
<path d="M185.271 21.3963C186.392 18.7532 184.978 15.7726 182.112 14.7389C179.247 13.7052 176.015 15.0099 174.894 17.653C173.774 20.2961 175.188 23.2767 178.054 24.3104C180.919 25.3441 184.151 24.0394 185.271 21.3963Z" fill="#022C40" stroke="#022C40" stroke-width="0.5" stroke-miterlimit="10"/>
<path d="M181.943 19.1792H178.31C178.141 19.1792 177.974 19.2098 177.819 19.2693C177.663 19.3287 177.522 19.4159 177.403 19.5257C177.283 19.6356 177.189 19.7661 177.124 19.9096C177.06 20.0532 177.027 20.207 177.027 20.3624V23.1743C177.915 23.8109 179.01 24.1527 180.135 24.1446C181.26 24.1365 182.349 23.779 183.226 23.1298V20.3624C183.226 20.207 183.193 20.0532 183.128 19.9096C183.064 19.7661 182.969 19.6356 182.85 19.5257C182.731 19.4159 182.59 19.3287 182.434 19.2693C182.278 19.2098 182.112 19.1792 181.943 19.1792Z" fill="#275F7A" stroke="#022C40" stroke-miterlimit="10"/>
<path d="M180.065 18.6583C180.43 18.6583 180.787 18.5584 181.09 18.3714C181.394 18.1843 181.631 17.9184 181.77 17.6073C181.91 17.2962 181.947 16.9538 181.876 16.6236C181.804 16.2933 181.628 15.9899 181.37 15.7518C181.112 15.5137 180.783 15.3516 180.425 15.2859C180.067 15.2202 179.695 15.2539 179.358 15.3828C179.021 15.5116 178.732 15.7299 178.529 16.0098C178.327 16.2898 178.218 16.619 178.218 16.9557C178.218 17.4073 178.413 17.8403 178.759 18.1596C179.105 18.4789 179.575 18.6583 180.065 18.6583Z" fill="#275F7A" stroke="#022C40" stroke-miterlimit="10"/>
<path d="M52.2339 76.6984C54.4179 71.9248 51.993 66.4221 46.8177 64.4076C41.6424 62.3932 35.6765 64.6298 33.4925 69.4034C31.3085 74.1769 33.7334 79.6797 38.9087 81.6941C44.084 83.7086 50.0499 81.4719 52.2339 76.6984Z" fill="#022C40" stroke="#022C40" stroke-width="0.5" stroke-miterlimit="10"/>
<path d="M46.2378 72.4177H39.6092C38.9881 72.4177 38.3923 72.645 37.9526 73.0496C37.5129 73.4543 37.2652 74.0033 37.2638 74.5762V79.705C38.8843 80.8679 40.8826 81.4926 42.9358 81.4783C44.9889 81.4639 46.9767 80.8112 48.5779 79.6258V74.5762C48.5779 74.0037 48.3314 73.4547 47.8925 73.0499C47.4536 72.6451 46.8584 72.4177 46.2378 72.4177Z" fill="#275F7A" stroke="#022C40" stroke-miterlimit="10"/>
<path d="M42.7974 71.4672C43.4641 71.4672 44.1158 71.2849 44.6701 70.9433C45.2244 70.6016 45.6564 70.1161 45.9115 69.548C46.1666 68.9799 46.2334 68.3548 46.1033 67.7517C45.9733 67.1486 45.6522 66.5947 45.1808 66.1599C44.7094 65.7251 44.1089 65.429 43.455 65.309C42.8012 65.189 42.1235 65.2506 41.5076 65.4859C40.8917 65.7212 40.3652 66.1197 39.9949 66.631C39.6245 67.1423 39.4268 67.7433 39.4268 68.3582C39.4268 69.1828 39.7819 69.9736 40.4141 70.5566C41.0462 71.1397 41.9035 71.4672 42.7974 71.4672Z" fill="#275F7A" stroke="#022C40" stroke-miterlimit="10"/>
<path d="M75.9509 35.7387C75.9509 35.709 75.9509 35.6793 75.9509 35.6496C75.7987 34.3649 75.25 33.1474 74.37 32.1418C73.49 31.1361 72.3156 30.3845 70.9862 29.9762C69.637 29.5539 68.1804 29.5211 66.8105 29.8822C67.1137 28.9321 67.2175 27.9374 67.1164 26.9514C66.9171 24.9797 65.9124 23.1517 64.306 21.8379C62.6996 20.5242 60.6117 19.823 58.4656 19.8765C56.3194 19.93 54.2757 20.7342 52.7486 22.1261C51.2215 23.518 50.3253 25.3935 50.2418 27.3722C50.1184 27.3722 49.9949 27.3722 49.8715 27.3722C47.6266 27.3722 45.4737 28.1947 43.8864 29.6589C42.2991 31.123 41.4073 33.1087 41.4073 35.1793C41.4052 35.8785 41.5063 36.5746 41.7079 37.2487C41.9919 38.1538 42.5886 38.9488 43.4072 39.5126C44.2258 40.0764 45.2216 40.3784 46.2432 40.3725H71.2438C71.89 40.3753 72.5298 40.2551 73.1233 40.0193C73.7168 39.7836 74.2512 39.4375 74.693 39.0025C75.1349 38.5676 75.4746 38.0532 75.6911 37.4916C75.9075 36.93 75.9959 36.3333 75.9509 35.7387V35.7387Z" stroke="#022C40" stroke-miterlimit="10"/>
<path d="M204.351 114.983C204.349 114.967 204.349 114.95 204.351 114.934C204.27 114.239 203.974 113.58 203.498 113.036C203.022 112.492 202.387 112.085 201.668 111.864C200.94 111.635 200.153 111.618 199.414 111.815C199.58 111.302 199.638 110.764 199.585 110.231C199.506 109.145 198.975 108.13 198.102 107.398C197.23 106.666 196.084 106.273 194.905 106.303C193.726 106.332 192.604 106.781 191.776 107.556C190.948 108.33 190.477 109.371 190.461 110.458H190.262C189.051 110.46 187.889 110.905 187.032 111.696C186.176 112.486 185.695 113.559 185.695 114.676C185.696 115.052 185.75 115.427 185.856 115.79C186.008 116.28 186.33 116.71 186.771 117.016C187.213 117.322 187.751 117.486 188.303 117.483H201.797C202.147 117.487 202.494 117.423 202.816 117.297C203.138 117.171 203.428 116.984 203.668 116.75C203.908 116.515 204.093 116.236 204.21 115.932C204.328 115.628 204.376 115.305 204.351 114.983V114.983Z" stroke="#022C40" stroke-miterlimit="10"/>
<path d="M85.6817 153.132C85.6817 153.132 85.6817 153.102 85.6817 153.088C85.6008 152.392 85.3048 151.733 84.829 151.189C84.3531 150.645 83.7175 150.238 82.9981 150.018C82.2699 149.789 81.483 149.772 80.7439 149.969C80.9083 149.455 80.9648 148.918 80.9102 148.385C80.7954 147.361 80.2825 146.41 79.4665 145.709C78.6505 145.007 77.5866 144.602 76.4715 144.568C75.2732 144.541 74.1116 144.95 73.2378 145.707C72.364 146.464 71.8482 147.507 71.802 148.612H71.6034C71.0027 148.612 70.4078 148.72 69.8526 148.932C69.2975 149.144 68.7931 149.454 68.3683 149.846C67.9436 150.238 67.6068 150.703 67.3772 151.215C67.1476 151.727 67.0298 152.276 67.0306 152.83C67.0309 153.207 67.0869 153.581 67.1969 153.944C67.3475 154.435 67.6685 154.866 68.1106 155.172C68.5528 155.478 69.0917 155.641 69.6444 155.637H83.1323C83.4822 155.64 83.8291 155.576 84.1509 155.449C84.4727 155.322 84.7625 155.135 85.002 154.9C85.2415 154.665 85.4256 154.386 85.5426 154.082C85.6596 153.777 85.7069 153.454 85.6817 153.132V153.132Z" stroke="#022C40" stroke-miterlimit="10"/>
<path d="M162.487 24.1792C162.49 24.1645 162.49 24.1494 162.487 24.1347C162.407 23.4391 162.112 22.7795 161.636 22.2351C161.16 21.6906 160.523 21.2844 159.803 21.0653C159.076 20.8347 158.289 20.8157 157.549 21.0109C157.716 20.4996 157.773 19.963 157.715 19.4316C157.636 18.3461 157.105 17.3309 156.232 16.5987C155.36 15.8665 154.214 15.4741 153.035 15.5035C151.856 15.5329 150.735 15.982 149.906 16.7566C149.078 17.5313 148.607 18.5714 148.591 19.6594H148.393C147.69 19.6609 146.997 19.8117 146.367 20.1001C145.738 20.3884 145.189 20.8066 144.763 21.3221C144.337 21.8377 144.045 22.4368 143.91 23.0731C143.776 23.7093 143.801 24.3656 143.986 24.9911C144.138 25.4808 144.46 25.9113 144.901 26.2169C145.343 26.5226 145.881 26.6867 146.434 26.6842H159.927C160.278 26.6893 160.626 26.6268 160.95 26.5007C161.273 26.3747 161.565 26.1879 161.805 25.9522C162.046 25.7166 162.231 25.4372 162.349 25.1319C162.466 24.8267 162.513 24.5022 162.487 24.1792V24.1792Z" stroke="#022C40" stroke-miterlimit="10"/>
<path d="M165.65 123.572C188.428 102.562 188.428 68.499 165.65 47.4895C142.873 26.4801 105.943 26.48 83.1651 47.4895C60.3874 68.499 60.3874 102.562 83.1651 123.572C105.943 144.581 142.873 144.581 165.65 123.572Z" fill="white" stroke="#022C40" stroke-miterlimit="10"/>
<path d="M122.308 60.6255L127.847 62.9225L129.366 65.2196L131.862 66.1157L132.135 68.5414L131.169 69.9425L129.232 70.3286L125.077 68.7939V68.2989L127.428 67.4028L126.602 64.7245L122.845 63.4473L121.186 61.4027L122.308 60.6255ZM157.195 119.612L152.767 117.953L147.367 116.166H143.074L139.059 115.399L134.626 116.29L132.135 116.419H130.616L127.707 117.953L124.916 118.973L121.159 116.805L122.125 113.226L119.774 112.334H117.005L116.592 111.186L116.865 108.884L115.899 107.612L113.962 107.864L113.425 109.141L111.074 109.27L108.997 106.973L108.165 103.908L110.242 100.329L114.257 100.587L115.368 101.483H117.026L119.104 100.329L120.902 100.824L123.392 104.785L124.363 104.656L124.084 101.72L123.306 100.205L123.58 97.7797L128.7 95.7351L129.393 91.0122L131.609 89.3488L133.407 86.4131L134.792 86.1606L137.975 84.2447L138.114 83.2249L135.903 83.3487L135.484 82.3289H133.965L131.609 82.8239L132.715 81.1655L137.545 79.8882L138.651 78.7397L140.589 81.5467L141.839 82.6952L143.777 82.2001L142.945 80.5417L140.036 78.6258L136.714 75.1604L133.257 72.9871L129.935 72.492L128.271 70.9623L126.054 70.4672L125.78 70.9623L125.501 74.6653L126.038 75.9376L124.793 80.0268L122.034 77.9971L122.447 76.2099L119.549 74.9228L118.293 73.5415L118.986 70.3534L123 67.6701L123.279 64.6057L121.755 64.7344L120.784 63.5859L120.37 61.67L119.399 61.5413L118.862 63.5859L117.343 63.8384L116.651 59.3828L115.524 58.6898L113.586 57.9224L111.375 58.9422L114.139 61.368L114.676 63.5414L109.689 60.0759L106.228 56.6105L105.954 53.1451L102.374 52.1946L99.6044 53.858C98.937 54.2307 98.2491 54.5711 97.5434 54.8778C96.4507 55.1181 95.3402 55.2835 94.2211 55.3729L93.6843 57.5462L90.5016 57.6699L90.7806 59.0759L95.901 59.8433L98.5309 62.5215V66.9771L97.0067 70.9375L97.2857 75.1505L93.4106 81.4031L92.5787 90.7251L93.7863 96.1163L95.5843 100.205L97.6615 100.458L96.9691 98.4183L95.8634 96.8836L95.1711 94.0766L96.4163 93.8192L98.3538 98.4183L99.7386 102.503V105.819L102.369 108.76L107.076 111.948L114.273 113.74L116.49 115.651L118.148 117.696L120.644 119.102L123.687 119.864L126.73 119.74C126.73 119.74 126.596 121.018 126.596 121.656C126.596 122.295 124.659 124.463 124.659 124.463L123.14 127.008L124.245 129.815L127.294 130.963L131.588 135.053L133.525 135.815V137.731L133.767 138.622C144.533 137.017 154.592 132.649 162.793 126.018L162.868 125.092L166.625 118.835L164.827 117.686L157.195 119.612ZM171.611 69.1801L170.087 66.7493L168.149 63.9423L167.613 60.1106L170.103 60.4967L170.243 59.2195L168.439 59.0908L169.964 58.4521L171.627 57.561V56.2838L169.964 54.2392L169.609 51.4916C161.565 42.4112 150.526 36.0029 138.17 33.2416C125.814 30.4803 112.819 31.5171 101.161 36.1943L104.349 38.2785L102.374 40.5755L99.7439 41.0706L99.4702 44.536L98.3592 44.9172L96.9744 46.3133L97.114 48.6104L99.4702 48.8678L98.4987 51.0361H100.855L104.864 46.3133L105.283 44.2687L109.158 44.0162L110.124 42.4815L114.139 42.1003L114.558 39.927L117.461 39.8033C117.461 39.8033 119.538 38.7785 119.957 38.7785C120.756 38.9387 121.542 39.1521 122.308 39.4171L124.385 40.9518H127.294L129.784 39.5458L132.967 39.8033C133.425 40.0779 133.948 40.2476 134.491 40.2983C135.184 40.2983 137.261 39.4023 137.261 39.4023L141.27 41.6993L142.934 42.8528V44.7637L145.011 45.0212L145.704 43.8726L147.502 44.64L147.362 45.6598L143.213 46.6796L145.564 49.4916L150.545 52.0461L152.622 54.5956L155.671 54.8531L156.363 53.5758L157.469 53.3184L153.867 50.7688L151.656 50.5114L153.454 50.0163L151.795 47.843L154.146 47.7192L157.19 49.249L157.882 52.3134L159.406 53.9718L160.651 57.6749L163.7 59.7195V63.9324L166.883 65.8483L166.743 67.2543L166.33 68.9127L167.157 71.2098L167.436 72.3584L169.786 72.7445L170.897 70.5712L171.611 69.1801ZM173.409 56.3085V57.0412L172.685 59.0908L173.098 60.8779L174.622 61.373V63.7988L172.964 63.1602L172.556 70.0761L170.897 72.8831L172.003 76.4624L173.801 77.9921V84.8883L175.605 90.2498L177.542 94.334L180.725 95.1014L181.831 92.5469L182.281 92.2201C182.581 90.0014 182.732 87.7677 182.732 85.5319C182.749 75.1635 179.503 65.0134 173.388 56.3135L173.409 56.3085ZM141.431 55.5115L132.307 51.8084L128.292 51.9372L127.326 54.3629L125.662 52.6995L122.619 53.3382L122.34 57.5561L124.83 59.2145L126.634 56.7887L128.673 58.6898L132.967 62.1552L133.799 65.8582L137.395 70.0712L143.213 69.1801L143.074 67.2642L141.828 65.0909L141.555 59.9868L142.94 57.8135L141.431 55.5115ZM148.908 58.3185L146.831 57.8234L145.033 59.2294L145.999 62.9324H147.802L148.908 58.3185ZM161.789 60.7443L157.082 58.4472L156.111 56.9175L155.005 57.2986L155.971 59.8532L156.803 63.1701L158.88 63.9374L159.293 63.4423L158.048 61.5265L161.65 62.8037L161.789 60.7443ZM121.369 106.839L120.832 107.334L124.986 108.483L126.65 110.27L129.28 110.527L130.246 109.121L127.063 108.626L121.369 106.839ZM133.713 109.265L130.804 110.032L131.223 111.052H134.819L135.511 110.032L134.266 110.156L133.713 109.265Z" fill="#275F7A" stroke="#022C40" stroke-miterlimit="10"/>
<path d="M165.707 152.256C165.658 153.648 165.839 155.039 166.244 156.38C166.883 158.261 167.516 160.029 168.155 160.737C168.793 161.445 169.819 160.266 168.922 158.851C168.026 157.435 168.541 155.91 169.051 155.91C169.561 155.91 173.645 158.261 174.284 159.088C174.923 159.915 176.839 162.034 176.839 160.618C176.839 159.202 173.903 156.261 173.393 155.435C172.883 154.608 170.071 151.078 170.071 151.078L165.707 152.256Z" fill="white" stroke="#022C40" stroke-linejoin="round"/>
<path d="M167.516 147.895L170.071 151.078L165.219 153.548L162.922 150.959L167.516 147.895Z" fill="#275F7A" stroke="#022C40" stroke-linejoin="round"/>
<path d="M140.449 213.846C140.449 213.846 138.533 217.733 137.765 218.797C136.998 219.861 136.359 220.327 135.082 220.564C133.804 220.802 131.636 221.035 131.636 221.975C131.651 222.559 131.836 223.129 132.173 223.624C132.173 223.624 138.173 224.802 140.224 224.332C142.274 223.861 144.308 221.267 144.308 221.267L145.586 221.975L149.289 218.678C149.056 217.52 148.619 216.404 147.995 215.376C146.847 213.257 146.208 211.728 146.208 211.728C146.208 211.728 143.385 213.846 140.449 213.846Z" fill="#616161" stroke="#022C40" stroke-linejoin="round"/>
<path d="M148.473 216.352C147.131 217.515 144.029 220.312 143.181 221C142.108 221.876 139.907 223.629 138.222 223.629C137.009 223.629 133.622 223.178 131.781 222.921C131.863 223.166 131.979 223.401 132.125 223.619C132.125 223.619 138.125 224.797 140.175 224.327C142.226 223.857 144.26 221.263 144.26 221.263L145.537 221.97L149.241 218.673C149.1 217.871 148.842 217.09 148.473 216.352Z" stroke="#022C40" stroke-linejoin="round"/>
<path d="M130.493 198.183C130.493 198.183 132.919 202.891 135.323 205.717C137.728 208.544 140.428 214.906 140.428 214.906C140.428 214.906 142.601 215.614 144.131 214.549C145.103 213.819 145.816 212.836 146.176 211.728C146.176 211.728 143.111 203.01 141.963 199.242C140.814 195.475 138.002 187.227 136.724 185.227C135.757 183.754 134.699 182.332 133.558 180.969C133.558 180.969 132.151 188.742 131.513 191.683C130.874 194.623 130.493 198.183 130.493 198.183Z" fill="#022C40" stroke="#022C40" stroke-linejoin="round"/>
<path d="M119.125 144.008L119.254 151.543C119.254 151.543 117.107 165.444 118.873 172.509C120.639 179.573 123.467 187.361 123.467 187.361C123.467 187.361 122.066 200.316 121.551 203.495C121.036 206.673 118.867 212.683 118.867 212.683C118.867 212.683 122.571 214.45 123.21 214.45H124.487C124.487 214.45 128.314 204.911 129.081 203.495C129.849 202.079 132.527 199.376 133.423 193.485C134.32 187.593 134.577 181.465 134.577 181.465C134.577 181.465 140.959 173.925 142.494 171.563C144.029 169.202 146.45 164.375 146.45 164.375C146.45 164.375 149.262 157.662 148.876 151.187C148.489 144.711 146.326 141.414 146.326 141.414C146.326 141.414 133.81 144.122 127.938 144.122C122.066 144.122 119.125 144.008 119.125 144.008Z" fill="#022C40" stroke="#022C40" stroke-linejoin="round"/>
<path d="M122.383 101.71C122.383 101.71 124.863 103.998 124.487 104.795C124.111 105.592 117.681 105.938 116.318 107.423C114.955 108.909 109.137 127.751 109.137 127.751C109.137 127.751 102.202 125.919 101.585 125.463C100.968 125.008 100.222 125.35 99.8513 126.721C99.481 128.092 95.7668 131.176 96.2606 131.973C96.7544 132.77 103.565 135.855 106.909 136.657C108.945 137.14 111.017 137.483 113.108 137.681L112.615 143.508C112.615 143.508 118.926 146.82 131.185 145.335C143.444 143.85 148.532 141.454 148.532 141.454L147.051 129.691C147.051 129.691 155.102 143.622 156.46 146.028C157.818 148.434 159.551 151.969 161.038 152.424C162.525 152.88 167.849 149.682 167.972 148.315C168.096 146.949 163.518 140.32 159.921 134.612C156.325 128.904 151.377 112.8 150.636 109.364C149.895 105.928 147.91 103.082 145.806 102.626C143.702 102.171 138.007 102.166 135.527 101.71C133.048 101.255 129.586 97.4876 127.976 92.6904L122.383 101.71Z" fill="#275F7A" stroke="#022C40" stroke-miterlimit="10"/>
<path d="M117.939 112.339C118.567 111.112 119.05 110.275 119.05 110.275" stroke="#022C40" stroke-miterlimit="10"/>
<path d="M113.108 137.682C113.108 137.682 114.595 122.954 115.212 119.414C115.603 117.663 116.199 115.957 116.989 114.325" stroke="#022C40" stroke-miterlimit="10"/>
<path d="M142.934 116.19C142.752 115.379 142.58 114.582 142.44 113.815" stroke="#022C40" stroke-miterlimit="10"/>
<path d="M147.024 129.691C147.024 129.691 144.968 124.072 143.482 118.399" stroke="#022C40" stroke-miterlimit="10"/>
<path d="M121.159 105.775C121.755 106.953 123.666 109.334 129.457 109.24C136.29 109.136 139.295 104.785 140.401 102.136C138.767 102.075 137.138 101.93 135.522 101.701C133.048 101.245 129.58 97.4778 127.97 92.6807L122.383 101.711C122.383 101.711 124.863 103.998 124.487 104.795C124.315 105.166 122.823 105.443 121.159 105.775Z" fill="white" stroke="#022C40" stroke-miterlimit="10"/>
<path d="M127.015 95.9429L125.33 96.933L122.383 101.695C123.085 102.346 123.707 103.064 124.24 103.839C127.015 100.794 127.015 95.9429 127.015 95.9429Z" fill="#022C40" stroke="#022C40" stroke-linejoin="round"/>
<path d="M108.026 90.8689C108.026 90.8689 110.376 94.6363 110.994 96.3493C111.898 98.4483 113.621 100.159 115.824 101.146C118.052 102.057 119.168 102.859 121.148 102.973C123.988 103.137 126.097 99.4335 127.213 96.577C128.33 93.7205 128.33 93.265 128.33 93.265C128.33 93.265 130.058 90.8689 130.058 88.354C130.058 85.8391 126.967 82.9876 123.499 81.5024C120.032 80.0172 117.681 77.8489 114.091 80.8192C110.5 83.7896 108.026 90.8689 108.026 90.8689Z" fill="white" stroke="#022C40" stroke-miterlimit="10"/>
<path d="M114.214 94.5171C114.477 95.1784 114.643 95.8692 114.708 96.5711C114.708 97.3728 115.824 97.7143 116.812 96.0019" stroke="#022C40" stroke-miterlimit="10"/>
<path d="M117.059 98.294C117.059 98.294 120.156 98.7494 120.773 95.3245" stroke="#022C40" stroke-miterlimit="10"/>
<path d="M117.692 90.5566C117.982 91.012 117.993 91.502 117.692 91.6554C117.391 91.8088 116.951 91.5564 116.661 91.1011C116.372 90.6457 116.366 90.1508 116.661 90.0023C116.957 89.8538 117.402 90.1013 117.692 90.5566Z" fill="#022C40"/>
<path d="M112.695 92.8486C112.985 93.3039 112.996 93.7989 112.695 93.9473C112.395 94.0958 111.954 93.8484 111.67 93.393C111.385 92.9377 111.369 92.4428 111.67 92.2943C111.971 92.1458 112.411 92.3834 112.695 92.8486Z" fill="#022C40"/>
<path d="M114.144 89.0318C114.144 89.0318 114.681 87.2402 118.164 87.4778" stroke="#022C40" stroke-miterlimit="10"/>
<path d="M111.547 90.8291C111.547 90.8291 109.604 90.8291 109.732 92.2644" stroke="#022C40" stroke-miterlimit="10"/>
<path d="M116.935 82.6408C116.935 82.6408 115.325 84.3538 113.468 86.0667C111.611 87.7796 108.519 90.2945 108.519 93.3737C108.519 96.453 108.643 96.7995 108.643 96.7995C108.643 96.7995 103.319 94.2896 101.832 90.8588C100.345 87.4281 103.689 79.5517 107.773 76.007C111.858 72.4624 116.688 71.7842 122.013 72.1258C127.337 72.4674 132.661 77.3784 134.025 82.2894C135.388 87.2003 132.661 92.5668 131.792 93.4777C130.922 94.3886 128.201 94.5074 128.201 94.5074C128.782 92.7707 128.911 90.9322 128.577 89.141C127.954 86.5122 126.221 87.0865 125.974 88.2251C125.727 89.3638 125.603 89.8242 125.603 89.8242C125.603 89.8242 123.129 88.2251 120.526 86.5122C118.995 85.5213 117.76 84.1896 116.935 82.6408Z" fill="#022C40" stroke="#022C40" stroke-linejoin="round"/>
<path d="M93.416 128.781L96.7544 124.211L98.3646 125.696L93.416 128.781Z" fill="#275F7A" stroke="#022C40" stroke-linejoin="round"/>
<path d="M105.219 122.043L97.4414 122.072L90.0292 108.904L97.8063 108.874L105.219 122.043Z" fill="#022C40" stroke="#022C40" stroke-linejoin="round"/>
<path d="M91.312 115.3C91.312 115.3 93.2925 117.013 93.416 117.815C93.5394 118.617 94.527 121.696 95.0261 123.181C95.5253 124.667 97.377 126.266 97.377 126.266L98.9872 124.78L98.3646 122.266C98.9584 121.78 99.5782 121.322 100.222 120.894C100.968 120.439 101.832 119.181 101.338 119.181C100.963 119.192 100.589 119.232 100.222 119.3C100.222 119.3 101.338 117.701 100.597 117.587C100.106 117.513 99.6087 117.474 99.1106 117.468C99.1106 117.468 100.345 116.102 99.3575 115.983C98.3699 115.864 94.8973 117.582 94.8973 117.582L93.416 115.523C93.1 115.356 92.7505 115.25 92.3888 115.212C92.0271 115.174 91.6608 115.204 91.312 115.3Z" fill="white" stroke="#022C40" stroke-linejoin="round"/>
<path d="M91.7199 114.547C91.6139 114.632 91.5355 114.742 91.4938 114.866C91.4521 114.989 91.4486 115.121 91.4838 115.246C91.519 115.371 91.5914 115.484 91.6929 115.574C91.7943 115.663 91.9208 115.724 92.058 115.75C92.286 115.824 92.5308 115.843 92.7688 115.804C93.0067 115.765 93.2297 115.67 93.416 115.528C94.0332 114.844 96.5075 113.018 96.5075 112.102C96.5075 111.186 95.3965 112.216 94.8973 112.448C93.7811 113.071 92.7188 113.773 91.7199 114.547Z" fill="white" stroke="#022C40" stroke-linejoin="round"/>
<path d="M99.1105 117.469C99.1105 117.469 95.3964 119.181 94.7738 119.869" stroke="#022C40" stroke-linejoin="round"/>
<path d="M100.227 119.3C100.227 119.3 97.2589 120.552 96.2659 121.582" stroke="#022C40" stroke-linejoin="round"/>
<path d="M100.468 125.35L98.7402 123.979L93.4159 128.776L97.0066 131.291C97.0066 131.291 100.345 128.32 100.468 125.35Z" fill="#275F7A" stroke="#022C40" stroke-linejoin="round"/>
<path d="M134.706 151.9C134.706 151.9 128.958 164.38 127.68 169.583C126.403 174.786 123.977 184.658 123.977 185.247" stroke="#757575" stroke-linejoin="round"/>
<path d="M126.403 155.435L129.725 158.963" stroke="#757575" stroke-linejoin="round"/>
<path d="M118.873 212.317C118.873 212.317 118.105 213.847 114.402 214.55C110.698 215.253 107.253 213.965 106.614 214.079C105.975 214.193 105.337 215.258 105.337 216.203C105.337 217.149 109.808 219.733 111.595 220.56C113.019 221.118 114.526 221.475 116.066 221.619H116.699L116.576 222.797C117.613 223.179 118.679 223.493 119.764 223.738C120.739 223.871 121.73 223.871 122.705 223.738C123.093 222.232 123.307 220.692 123.344 219.144C123.43 217.525 123.819 215.933 124.492 214.436L118.873 212.317Z" fill="#616161" stroke="#022C40" stroke-linejoin="round"/>
<path d="M123.091 221.896C120.574 221.594 115.932 220.906 113.114 219.916C110.13 218.876 106.786 216.758 105.369 215.817C105.347 215.94 105.337 216.064 105.337 216.188C105.337 217.129 109.808 219.718 111.595 220.545C113.019 221.103 114.526 221.461 116.066 221.604H116.699L116.576 222.782C117.613 223.164 118.679 223.478 119.764 223.723C120.739 223.856 121.73 223.856 122.705 223.723C122.705 223.723 122.909 222.971 123.091 221.896Z" stroke="#022C40" stroke-linejoin="round"/>
</svg>
