<svg width="40" height="40" viewBox="0 0 40 40" fill="none" xmlns="http://www.w3.org/2000/svg">
<g clip-path="url(#clip0_2_1026)">
<path d="M34.3185 5.55848C30.6546 1.97385 25.7843 0 20.6024 0C20.6021 0 20.6008 0 20.6005 0C18.0377 0.00029857 15.5401 0.485774 13.1777 1.44329C10.8151 2.4008 8.69837 3.78527 6.88593 5.55848C3.2223 9.14282 1.20478 13.9086 1.20478 18.9777C1.20478 22.0007 1.95033 25.005 3.36298 27.6816L0.102486 36.7946C-0.127311 37.4374 0.0353478 38.1361 0.527901 38.6177C0.872445 38.9551 1.32594 39.1342 1.79224 39.1342C1.99214 39.1342 2.19416 39.1014 2.3913 39.0339L11.7059 35.8443C14.4418 37.2263 17.5125 37.9557 20.6024 37.9557C25.7836 37.9557 30.6546 35.9816 34.3185 32.3973C37.9821 28.8129 40 24.0471 40 18.978C40 13.9086 37.9824 9.14282 34.3185 5.55848ZM32.6596 30.7742C29.439 33.9253 25.1568 35.6603 20.6024 35.6603C17.8161 35.6603 15.0482 34.9862 12.5976 33.7101C12.1533 33.479 11.6281 33.4393 11.1566 33.6008L2.69404 36.4984L5.65608 28.2191C5.82118 27.7572 5.78028 27.2433 5.54408 26.8089C4.24006 24.412 3.55067 21.704 3.55067 18.9777C3.55067 14.5219 5.32435 10.3323 8.54487 7.18151C11.7651 4.031 16.0467 2.29571 20.6008 2.29511H20.6024C25.1571 2.29511 29.439 4.0304 32.6596 7.18151C35.8804 10.3323 37.6541 14.5216 37.6541 18.9777C37.6541 23.4339 35.8804 27.6234 32.6596 30.7742Z" fill="white"/>
<path d="M27.8113 20.673C26.9189 19.8 25.4669 19.8 24.5746 20.673L23.5986 21.6278C21.1752 20.3359 19.2142 18.4173 17.8934 16.0463L18.8693 15.0915C19.762 14.2185 19.762 12.7979 18.8693 11.9249L16.2393 9.35179C15.347 8.47877 13.895 8.47877 13.0026 9.35179L10.8987 11.4101C9.69361 12.5892 9.63349 14.6162 10.7294 17.1179C11.6809 19.29 13.4222 21.6774 15.6326 23.8399C17.843 26.0025 20.2832 27.7061 22.5034 28.637C23.7183 29.1464 24.8233 29.4005 25.7782 29.4005C26.8332 29.4005 27.7048 29.0903 28.3374 28.4713L30.4413 26.4127V26.413C30.8737 25.9899 31.1118 25.4277 31.1118 24.8297C31.1118 24.2313 30.8737 23.6691 30.4413 23.2463L27.8113 20.673ZM26.6785 26.8483C26.3345 27.1848 25.2768 27.3027 23.4277 26.5276C21.4752 25.709 19.296 24.1779 17.2916 22.2169C15.2872 20.2559 13.7225 18.1241 12.8857 16.2138C12.0932 14.4048 12.2137 13.3696 12.5577 13.0332L14.6213 11.0142L17.1701 13.5082L15.9485 14.7037C15.3961 15.2441 15.2628 16.0636 15.6171 16.7432C17.2232 19.8244 19.7369 22.2838 22.8864 23.8551C23.5812 24.2018 24.4189 24.0716 24.9713 23.5309L26.1929 22.3357L28.7421 24.8297L26.6785 26.8483Z" fill="white"/>
</g>
<defs>
<clipPath id="clip0_2_1026">
<rect width="40" height="39.1342" fill="white"/>
</clipPath>
</defs>
</svg>
